%TF.GenerationSoftware,KiCad,Pcbnew,7.0.8*%
%TF.CreationDate,2023-11-16T15:54:05-08:00*%
%TF.ProjectId,wifi_pc_power_switch,77696669-5f70-4635-9f70-6f7765725f73,rev?*%
%TF.SameCoordinates,Original*%
%TF.FileFunction,Drillmap*%
%TF.FilePolarity,Positive*%
%FSLAX45Y45*%
G04 Gerber Fmt 4.5, Leading zero omitted, Abs format (unit mm)*
G04 Created by KiCad (PCBNEW 7.0.8) date 2023-11-16 15:54:05*
%MOMM*%
%LPD*%
G01*
G04 APERTURE LIST*
%ADD10C,0.100000*%
%ADD11C,0.200000*%
%ADD12C,0.040000*%
%ADD13C,0.050000*%
%ADD14C,0.102000*%
%ADD15C,0.320000*%
G04 APERTURE END LIST*
D10*
X13208000Y-7518400D02*
X21844000Y-7518400D01*
X21844000Y-13106400D01*
X13208000Y-13106400D01*
X13208000Y-7518400D01*
D11*
D12*
X18776000Y-10800400D02*
X18816000Y-10840400D01*
X18816000Y-10800400D02*
X18776000Y-10840400D01*
D13*
X13450200Y-8026400D02*
G75*
G03*
X13450200Y-8026400I-25000J0D01*
G01*
X13450200Y-12649200D02*
G75*
G03*
X13450200Y-12649200I-25000J0D01*
G01*
X13520494Y-7856694D02*
G75*
G03*
X13520494Y-7856694I-25000J0D01*
G01*
X13520494Y-8196106D02*
G75*
G03*
X13520494Y-8196106I-25000J0D01*
G01*
X13520494Y-12479494D02*
G75*
G03*
X13520494Y-12479494I-25000J0D01*
G01*
X13520494Y-12818906D02*
G75*
G03*
X13520494Y-12818906I-25000J0D01*
G01*
X13690200Y-7786400D02*
G75*
G03*
X13690200Y-7786400I-25000J0D01*
G01*
X13690200Y-8266400D02*
G75*
G03*
X13690200Y-8266400I-25000J0D01*
G01*
X13690200Y-12409200D02*
G75*
G03*
X13690200Y-12409200I-25000J0D01*
G01*
X13690200Y-12889200D02*
G75*
G03*
X13690200Y-12889200I-25000J0D01*
G01*
X13859906Y-7856694D02*
G75*
G03*
X13859906Y-7856694I-25000J0D01*
G01*
X13859906Y-8196106D02*
G75*
G03*
X13859906Y-8196106I-25000J0D01*
G01*
X13859906Y-12479494D02*
G75*
G03*
X13859906Y-12479494I-25000J0D01*
G01*
X13859906Y-12818906D02*
G75*
G03*
X13859906Y-12818906I-25000J0D01*
G01*
X13930200Y-8026400D02*
G75*
G03*
X13930200Y-8026400I-25000J0D01*
G01*
X13930200Y-12649200D02*
G75*
G03*
X13930200Y-12649200I-25000J0D01*
G01*
X21171800Y-8026400D02*
G75*
G03*
X21171800Y-8026400I-25000J0D01*
G01*
X21171800Y-12649200D02*
G75*
G03*
X21171800Y-12649200I-25000J0D01*
G01*
X21242094Y-7856694D02*
G75*
G03*
X21242094Y-7856694I-25000J0D01*
G01*
X21242094Y-8196106D02*
G75*
G03*
X21242094Y-8196106I-25000J0D01*
G01*
X21242094Y-12479494D02*
G75*
G03*
X21242094Y-12479494I-25000J0D01*
G01*
X21242094Y-12818906D02*
G75*
G03*
X21242094Y-12818906I-25000J0D01*
G01*
X21411800Y-7786400D02*
G75*
G03*
X21411800Y-7786400I-25000J0D01*
G01*
X21411800Y-8266400D02*
G75*
G03*
X21411800Y-8266400I-25000J0D01*
G01*
X21411800Y-12409200D02*
G75*
G03*
X21411800Y-12409200I-25000J0D01*
G01*
X21411800Y-12889200D02*
G75*
G03*
X21411800Y-12889200I-25000J0D01*
G01*
X21581506Y-7856694D02*
G75*
G03*
X21581506Y-7856694I-25000J0D01*
G01*
X21581506Y-8196106D02*
G75*
G03*
X21581506Y-8196106I-25000J0D01*
G01*
X21581506Y-12479494D02*
G75*
G03*
X21581506Y-12479494I-25000J0D01*
G01*
X21581506Y-12818906D02*
G75*
G03*
X21581506Y-12818906I-25000J0D01*
G01*
X21651800Y-8026400D02*
G75*
G03*
X21651800Y-8026400I-25000J0D01*
G01*
X21651800Y-12649200D02*
G75*
G03*
X21651800Y-12649200I-25000J0D01*
G01*
D10*
X14119900Y-10618000D02*
X14119900Y-10718000D01*
X14069900Y-10668000D02*
X14169900Y-10668000D01*
X14119900Y-10872000D02*
X14119900Y-10972000D01*
X14069900Y-10922000D02*
X14169900Y-10922000D01*
X14119900Y-11126000D02*
X14119900Y-11226000D01*
X14069900Y-11176000D02*
X14169900Y-11176000D01*
X14579600Y-7722400D02*
X14579600Y-7822400D01*
X14529600Y-7772400D02*
X14629600Y-7772400D01*
X14579600Y-7976400D02*
X14579600Y-8076400D01*
X14529600Y-8026400D02*
X14629600Y-8026400D01*
X14579600Y-8230400D02*
X14579600Y-8330400D01*
X14529600Y-8280400D02*
X14629600Y-8280400D01*
X14579600Y-8484400D02*
X14579600Y-8584400D01*
X14529600Y-8534400D02*
X14629600Y-8534400D01*
X14579600Y-8738400D02*
X14579600Y-8838400D01*
X14529600Y-8788400D02*
X14629600Y-8788400D01*
X14579600Y-8992400D02*
X14579600Y-9092400D01*
X14529600Y-9042400D02*
X14629600Y-9042400D01*
X14579600Y-9246400D02*
X14579600Y-9346400D01*
X14529600Y-9296400D02*
X14629600Y-9296400D01*
X14579600Y-9500400D02*
X14579600Y-9600400D01*
X14529600Y-9550400D02*
X14629600Y-9550400D01*
X14579600Y-9754400D02*
X14579600Y-9854400D01*
X14529600Y-9804400D02*
X14629600Y-9804400D01*
X14579600Y-10008400D02*
X14579600Y-10108400D01*
X14529600Y-10058400D02*
X14629600Y-10058400D01*
X14579600Y-10262400D02*
X14579600Y-10362400D01*
X14529600Y-10312400D02*
X14629600Y-10312400D01*
X14579600Y-10516400D02*
X14579600Y-10616400D01*
X14529600Y-10566400D02*
X14629600Y-10566400D01*
X14579600Y-10770400D02*
X14579600Y-10870400D01*
X14529600Y-10820400D02*
X14629600Y-10820400D01*
X14579600Y-11024400D02*
X14579600Y-11124400D01*
X14529600Y-11074400D02*
X14629600Y-11074400D01*
X14579600Y-11278400D02*
X14579600Y-11378400D01*
X14529600Y-11328400D02*
X14629600Y-11328400D01*
X14579600Y-11532400D02*
X14579600Y-11632400D01*
X14529600Y-11582400D02*
X14629600Y-11582400D01*
X14579600Y-11786400D02*
X14579600Y-11886400D01*
X14529600Y-11836400D02*
X14629600Y-11836400D01*
X14579600Y-12040400D02*
X14579600Y-12140400D01*
X14529600Y-12090400D02*
X14629600Y-12090400D01*
X14579600Y-12294400D02*
X14579600Y-12394400D01*
X14529600Y-12344400D02*
X14629600Y-12344400D01*
X14579600Y-12548400D02*
X14579600Y-12648400D01*
X14529600Y-12598400D02*
X14629600Y-12598400D01*
X18084800Y-7722400D02*
X18084800Y-7822400D01*
X18034800Y-7772400D02*
X18134800Y-7772400D01*
X18084800Y-7976400D02*
X18084800Y-8076400D01*
X18034800Y-8026400D02*
X18134800Y-8026400D01*
X18084800Y-8230400D02*
X18084800Y-8330400D01*
X18034800Y-8280400D02*
X18134800Y-8280400D01*
X18084800Y-8484400D02*
X18084800Y-8584400D01*
X18034800Y-8534400D02*
X18134800Y-8534400D01*
X18084800Y-8738400D02*
X18084800Y-8838400D01*
X18034800Y-8788400D02*
X18134800Y-8788400D01*
X18084800Y-8992400D02*
X18084800Y-9092400D01*
X18034800Y-9042400D02*
X18134800Y-9042400D01*
X18084800Y-9246400D02*
X18084800Y-9346400D01*
X18034800Y-9296400D02*
X18134800Y-9296400D01*
X18084800Y-9500400D02*
X18084800Y-9600400D01*
X18034800Y-9550400D02*
X18134800Y-9550400D01*
X18084800Y-9754400D02*
X18084800Y-9854400D01*
X18034800Y-9804400D02*
X18134800Y-9804400D01*
X18084800Y-10008400D02*
X18084800Y-10108400D01*
X18034800Y-10058400D02*
X18134800Y-10058400D01*
X18084800Y-10262400D02*
X18084800Y-10362400D01*
X18034800Y-10312400D02*
X18134800Y-10312400D01*
X18084800Y-10516400D02*
X18084800Y-10616400D01*
X18034800Y-10566400D02*
X18134800Y-10566400D01*
X18084800Y-10770400D02*
X18084800Y-10870400D01*
X18034800Y-10820400D02*
X18134800Y-10820400D01*
X18084800Y-11024400D02*
X18084800Y-11124400D01*
X18034800Y-11074400D02*
X18134800Y-11074400D01*
X18084800Y-11278400D02*
X18084800Y-11378400D01*
X18034800Y-11328400D02*
X18134800Y-11328400D01*
X18084800Y-11532400D02*
X18084800Y-11632400D01*
X18034800Y-11582400D02*
X18134800Y-11582400D01*
X18084800Y-11786400D02*
X18084800Y-11886400D01*
X18034800Y-11836400D02*
X18134800Y-11836400D01*
X18084800Y-12040400D02*
X18084800Y-12140400D01*
X18034800Y-12090400D02*
X18134800Y-12090400D01*
X18084800Y-12294400D02*
X18084800Y-12394400D01*
X18034800Y-12344400D02*
X18134800Y-12344400D01*
X18084800Y-12548400D02*
X18084800Y-12648400D01*
X18034800Y-12598400D02*
X18134800Y-12598400D01*
X19202400Y-7976400D02*
X19202400Y-8076400D01*
X19152400Y-8026400D02*
X19252400Y-8026400D01*
X19202400Y-8230400D02*
X19202400Y-8330400D01*
X19152400Y-8280400D02*
X19252400Y-8280400D01*
X19202400Y-8484400D02*
X19202400Y-8584400D01*
X19152400Y-8534400D02*
X19252400Y-8534400D01*
X19202400Y-8738400D02*
X19202400Y-8838400D01*
X19152400Y-8788400D02*
X19252400Y-8788400D01*
X19659600Y-9500400D02*
X19659600Y-9600400D01*
X19609600Y-9550400D02*
X19709600Y-9550400D01*
X19659600Y-9983000D02*
X19659600Y-10083000D01*
X19609600Y-10033000D02*
X19709600Y-10033000D01*
X19913600Y-9500400D02*
X19913600Y-9600400D01*
X19863600Y-9550400D02*
X19963600Y-9550400D01*
X19913600Y-9983000D02*
X19913600Y-10083000D01*
X19863600Y-10033000D02*
X19963600Y-10033000D01*
X20167600Y-9500400D02*
X20167600Y-9600400D01*
X20117600Y-9550400D02*
X20217600Y-9550400D01*
X20167600Y-9983000D02*
X20167600Y-10083000D01*
X20117600Y-10033000D02*
X20217600Y-10033000D01*
X20421600Y-7976400D02*
X20421600Y-8076400D01*
X20371600Y-8026400D02*
X20471600Y-8026400D01*
X20421600Y-8230400D02*
X20421600Y-8330400D01*
X20371600Y-8280400D02*
X20471600Y-8280400D01*
X20421600Y-8484400D02*
X20421600Y-8584400D01*
X20371600Y-8534400D02*
X20471600Y-8534400D01*
X20421600Y-8738400D02*
X20421600Y-8838400D01*
X20371600Y-8788400D02*
X20471600Y-8788400D01*
X20421600Y-9500400D02*
X20421600Y-9600400D01*
X20371600Y-9550400D02*
X20471600Y-9550400D01*
X20421600Y-9983000D02*
X20421600Y-10083000D01*
X20371600Y-10033000D02*
X20471600Y-10033000D01*
D14*
X15479263Y-7808463D02*
X15479263Y-7736337D01*
X15407137Y-7736337D01*
X15407137Y-7808463D01*
X15479263Y-7808463D01*
X15479263Y-8062463D02*
X15479263Y-7990337D01*
X15407137Y-7990337D01*
X15407137Y-8062463D01*
X15479263Y-8062463D01*
X15479263Y-8316463D02*
X15479263Y-8244337D01*
X15407137Y-8244337D01*
X15407137Y-8316463D01*
X15479263Y-8316463D01*
X15479263Y-8570463D02*
X15479263Y-8498337D01*
X15407137Y-8498337D01*
X15407137Y-8570463D01*
X15479263Y-8570463D01*
X15479263Y-8824463D02*
X15479263Y-8752337D01*
X15407137Y-8752337D01*
X15407137Y-8824463D01*
X15479263Y-8824463D01*
X15479263Y-9078463D02*
X15479263Y-9006337D01*
X15407137Y-9006337D01*
X15407137Y-9078463D01*
X15479263Y-9078463D01*
X15479263Y-9332463D02*
X15479263Y-9260337D01*
X15407137Y-9260337D01*
X15407137Y-9332463D01*
X15479263Y-9332463D01*
X15479263Y-9586463D02*
X15479263Y-9514337D01*
X15407137Y-9514337D01*
X15407137Y-9586463D01*
X15479263Y-9586463D01*
X15479263Y-9840463D02*
X15479263Y-9768337D01*
X15407137Y-9768337D01*
X15407137Y-9840463D01*
X15479263Y-9840463D01*
X15479263Y-10094463D02*
X15479263Y-10022337D01*
X15407137Y-10022337D01*
X15407137Y-10094463D01*
X15479263Y-10094463D01*
X15479263Y-10348463D02*
X15479263Y-10276337D01*
X15407137Y-10276337D01*
X15407137Y-10348463D01*
X15479263Y-10348463D01*
X15479263Y-10602463D02*
X15479263Y-10530337D01*
X15407137Y-10530337D01*
X15407137Y-10602463D01*
X15479263Y-10602463D01*
X15479263Y-10856463D02*
X15479263Y-10784337D01*
X15407137Y-10784337D01*
X15407137Y-10856463D01*
X15479263Y-10856463D01*
X15479263Y-11110463D02*
X15479263Y-11038337D01*
X15407137Y-11038337D01*
X15407137Y-11110463D01*
X15479263Y-11110463D01*
X15479263Y-11364463D02*
X15479263Y-11292337D01*
X15407137Y-11292337D01*
X15407137Y-11364463D01*
X15479263Y-11364463D01*
X15479263Y-11618463D02*
X15479263Y-11546337D01*
X15407137Y-11546337D01*
X15407137Y-11618463D01*
X15479263Y-11618463D01*
X15479263Y-11872463D02*
X15479263Y-11800337D01*
X15407137Y-11800337D01*
X15407137Y-11872463D01*
X15479263Y-11872463D01*
X15479263Y-12126463D02*
X15479263Y-12054337D01*
X15407137Y-12054337D01*
X15407137Y-12126463D01*
X15479263Y-12126463D01*
X15479263Y-12380463D02*
X15479263Y-12308337D01*
X15407137Y-12308337D01*
X15407137Y-12380463D01*
X15479263Y-12380463D01*
X15479263Y-12634463D02*
X15479263Y-12562337D01*
X15407137Y-12562337D01*
X15407137Y-12634463D01*
X15479263Y-12634463D01*
X16426673Y-10781463D02*
X16426673Y-10709337D01*
X16354547Y-10709337D01*
X16354547Y-10781463D01*
X16426673Y-10781463D01*
X16680673Y-10781463D02*
X16680673Y-10709337D01*
X16608547Y-10709337D01*
X16608547Y-10781463D01*
X16680673Y-10781463D01*
X16934673Y-10781463D02*
X16934673Y-10709337D01*
X16862547Y-10709337D01*
X16862547Y-10781463D01*
X16934673Y-10781463D01*
X17257263Y-7808463D02*
X17257263Y-7736337D01*
X17185137Y-7736337D01*
X17185137Y-7808463D01*
X17257263Y-7808463D01*
X17257263Y-8062463D02*
X17257263Y-7990337D01*
X17185137Y-7990337D01*
X17185137Y-8062463D01*
X17257263Y-8062463D01*
X17257263Y-8316463D02*
X17257263Y-8244337D01*
X17185137Y-8244337D01*
X17185137Y-8316463D01*
X17257263Y-8316463D01*
X17257263Y-8570463D02*
X17257263Y-8498337D01*
X17185137Y-8498337D01*
X17185137Y-8570463D01*
X17257263Y-8570463D01*
X17257263Y-8824463D02*
X17257263Y-8752337D01*
X17185137Y-8752337D01*
X17185137Y-8824463D01*
X17257263Y-8824463D01*
X17257263Y-9078463D02*
X17257263Y-9006337D01*
X17185137Y-9006337D01*
X17185137Y-9078463D01*
X17257263Y-9078463D01*
X17257263Y-9332463D02*
X17257263Y-9260337D01*
X17185137Y-9260337D01*
X17185137Y-9332463D01*
X17257263Y-9332463D01*
X17257263Y-9586463D02*
X17257263Y-9514337D01*
X17185137Y-9514337D01*
X17185137Y-9586463D01*
X17257263Y-9586463D01*
X17257263Y-9840463D02*
X17257263Y-9768337D01*
X17185137Y-9768337D01*
X17185137Y-9840463D01*
X17257263Y-9840463D01*
X17257263Y-10094463D02*
X17257263Y-10022337D01*
X17185137Y-10022337D01*
X17185137Y-10094463D01*
X17257263Y-10094463D01*
X17257263Y-10348463D02*
X17257263Y-10276337D01*
X17185137Y-10276337D01*
X17185137Y-10348463D01*
X17257263Y-10348463D01*
X17257263Y-10602463D02*
X17257263Y-10530337D01*
X17185137Y-10530337D01*
X17185137Y-10602463D01*
X17257263Y-10602463D01*
X17257263Y-10856463D02*
X17257263Y-10784337D01*
X17185137Y-10784337D01*
X17185137Y-10856463D01*
X17257263Y-10856463D01*
X17257263Y-11110463D02*
X17257263Y-11038337D01*
X17185137Y-11038337D01*
X17185137Y-11110463D01*
X17257263Y-11110463D01*
X17257263Y-11364463D02*
X17257263Y-11292337D01*
X17185137Y-11292337D01*
X17185137Y-11364463D01*
X17257263Y-11364463D01*
X17257263Y-11618463D02*
X17257263Y-11546337D01*
X17185137Y-11546337D01*
X17185137Y-11618463D01*
X17257263Y-11618463D01*
X17257263Y-11872463D02*
X17257263Y-11800337D01*
X17185137Y-11800337D01*
X17185137Y-11872463D01*
X17257263Y-11872463D01*
X17257263Y-12126463D02*
X17257263Y-12054337D01*
X17185137Y-12054337D01*
X17185137Y-12126463D01*
X17257263Y-12126463D01*
X17257263Y-12380463D02*
X17257263Y-12308337D01*
X17185137Y-12308337D01*
X17185137Y-12380463D01*
X17257263Y-12380463D01*
X17257263Y-12634463D02*
X17257263Y-12562337D01*
X17185137Y-12562337D01*
X17185137Y-12634463D01*
X17257263Y-12634463D01*
D15*
X13665200Y-8186400D02*
X13825200Y-8026400D01*
X13665200Y-7866400D01*
X13505200Y-8026400D01*
X13665200Y-8186400D01*
X13665200Y-12809200D02*
X13825200Y-12649200D01*
X13665200Y-12489200D01*
X13505200Y-12649200D01*
X13665200Y-12809200D01*
X21386800Y-8186400D02*
X21546800Y-8026400D01*
X21386800Y-7866400D01*
X21226800Y-8026400D01*
X21386800Y-8186400D01*
X21386800Y-12809200D02*
X21546800Y-12649200D01*
X21386800Y-12489200D01*
X21226800Y-12649200D01*
X21386800Y-12809200D01*
D11*
X13463777Y-13422884D02*
X13463777Y-13222884D01*
X13463777Y-13222884D02*
X13511396Y-13222884D01*
X13511396Y-13222884D02*
X13539967Y-13232408D01*
X13539967Y-13232408D02*
X13559015Y-13251455D01*
X13559015Y-13251455D02*
X13568539Y-13270503D01*
X13568539Y-13270503D02*
X13578062Y-13308598D01*
X13578062Y-13308598D02*
X13578062Y-13337169D01*
X13578062Y-13337169D02*
X13568539Y-13375265D01*
X13568539Y-13375265D02*
X13559015Y-13394312D01*
X13559015Y-13394312D02*
X13539967Y-13413360D01*
X13539967Y-13413360D02*
X13511396Y-13422884D01*
X13511396Y-13422884D02*
X13463777Y-13422884D01*
X13663777Y-13422884D02*
X13663777Y-13289550D01*
X13663777Y-13327646D02*
X13673301Y-13308598D01*
X13673301Y-13308598D02*
X13682824Y-13299074D01*
X13682824Y-13299074D02*
X13701872Y-13289550D01*
X13701872Y-13289550D02*
X13720920Y-13289550D01*
X13787586Y-13422884D02*
X13787586Y-13289550D01*
X13787586Y-13222884D02*
X13778062Y-13232408D01*
X13778062Y-13232408D02*
X13787586Y-13241931D01*
X13787586Y-13241931D02*
X13797110Y-13232408D01*
X13797110Y-13232408D02*
X13787586Y-13222884D01*
X13787586Y-13222884D02*
X13787586Y-13241931D01*
X13911396Y-13422884D02*
X13892348Y-13413360D01*
X13892348Y-13413360D02*
X13882824Y-13394312D01*
X13882824Y-13394312D02*
X13882824Y-13222884D01*
X14016158Y-13422884D02*
X13997110Y-13413360D01*
X13997110Y-13413360D02*
X13987586Y-13394312D01*
X13987586Y-13394312D02*
X13987586Y-13222884D01*
X14244729Y-13422884D02*
X14244729Y-13222884D01*
X14244729Y-13222884D02*
X14311396Y-13365741D01*
X14311396Y-13365741D02*
X14378062Y-13222884D01*
X14378062Y-13222884D02*
X14378062Y-13422884D01*
X14559015Y-13422884D02*
X14559015Y-13318122D01*
X14559015Y-13318122D02*
X14549491Y-13299074D01*
X14549491Y-13299074D02*
X14530443Y-13289550D01*
X14530443Y-13289550D02*
X14492348Y-13289550D01*
X14492348Y-13289550D02*
X14473301Y-13299074D01*
X14559015Y-13413360D02*
X14539967Y-13422884D01*
X14539967Y-13422884D02*
X14492348Y-13422884D01*
X14492348Y-13422884D02*
X14473301Y-13413360D01*
X14473301Y-13413360D02*
X14463777Y-13394312D01*
X14463777Y-13394312D02*
X14463777Y-13375265D01*
X14463777Y-13375265D02*
X14473301Y-13356217D01*
X14473301Y-13356217D02*
X14492348Y-13346693D01*
X14492348Y-13346693D02*
X14539967Y-13346693D01*
X14539967Y-13346693D02*
X14559015Y-13337169D01*
X14654253Y-13289550D02*
X14654253Y-13489550D01*
X14654253Y-13299074D02*
X14673301Y-13289550D01*
X14673301Y-13289550D02*
X14711396Y-13289550D01*
X14711396Y-13289550D02*
X14730443Y-13299074D01*
X14730443Y-13299074D02*
X14739967Y-13308598D01*
X14739967Y-13308598D02*
X14749491Y-13327646D01*
X14749491Y-13327646D02*
X14749491Y-13384788D01*
X14749491Y-13384788D02*
X14739967Y-13403836D01*
X14739967Y-13403836D02*
X14730443Y-13413360D01*
X14730443Y-13413360D02*
X14711396Y-13422884D01*
X14711396Y-13422884D02*
X14673301Y-13422884D01*
X14673301Y-13422884D02*
X14654253Y-13413360D01*
X14835205Y-13403836D02*
X14844729Y-13413360D01*
X14844729Y-13413360D02*
X14835205Y-13422884D01*
X14835205Y-13422884D02*
X14825682Y-13413360D01*
X14825682Y-13413360D02*
X14835205Y-13403836D01*
X14835205Y-13403836D02*
X14835205Y-13422884D01*
X14835205Y-13299074D02*
X14844729Y-13308598D01*
X14844729Y-13308598D02*
X14835205Y-13318122D01*
X14835205Y-13318122D02*
X14825682Y-13308598D01*
X14825682Y-13308598D02*
X14835205Y-13299074D01*
X14835205Y-13299074D02*
X14835205Y-13318122D01*
D12*
X13163000Y-13731400D02*
X13203000Y-13771400D01*
X13203000Y-13731400D02*
X13163000Y-13771400D01*
D11*
X13501872Y-13642884D02*
X13520920Y-13642884D01*
X13520920Y-13642884D02*
X13539967Y-13652408D01*
X13539967Y-13652408D02*
X13549491Y-13661931D01*
X13549491Y-13661931D02*
X13559015Y-13680979D01*
X13559015Y-13680979D02*
X13568539Y-13719074D01*
X13568539Y-13719074D02*
X13568539Y-13766693D01*
X13568539Y-13766693D02*
X13559015Y-13804788D01*
X13559015Y-13804788D02*
X13549491Y-13823836D01*
X13549491Y-13823836D02*
X13539967Y-13833360D01*
X13539967Y-13833360D02*
X13520920Y-13842884D01*
X13520920Y-13842884D02*
X13501872Y-13842884D01*
X13501872Y-13842884D02*
X13482824Y-13833360D01*
X13482824Y-13833360D02*
X13473301Y-13823836D01*
X13473301Y-13823836D02*
X13463777Y-13804788D01*
X13463777Y-13804788D02*
X13454253Y-13766693D01*
X13454253Y-13766693D02*
X13454253Y-13719074D01*
X13454253Y-13719074D02*
X13463777Y-13680979D01*
X13463777Y-13680979D02*
X13473301Y-13661931D01*
X13473301Y-13661931D02*
X13482824Y-13652408D01*
X13482824Y-13652408D02*
X13501872Y-13642884D01*
X13654253Y-13823836D02*
X13663777Y-13833360D01*
X13663777Y-13833360D02*
X13654253Y-13842884D01*
X13654253Y-13842884D02*
X13644729Y-13833360D01*
X13644729Y-13833360D02*
X13654253Y-13823836D01*
X13654253Y-13823836D02*
X13654253Y-13842884D01*
X13835205Y-13709550D02*
X13835205Y-13842884D01*
X13787586Y-13633360D02*
X13739967Y-13776217D01*
X13739967Y-13776217D02*
X13863777Y-13776217D01*
X13978062Y-13642884D02*
X13997110Y-13642884D01*
X13997110Y-13642884D02*
X14016158Y-13652408D01*
X14016158Y-13652408D02*
X14025682Y-13661931D01*
X14025682Y-13661931D02*
X14035205Y-13680979D01*
X14035205Y-13680979D02*
X14044729Y-13719074D01*
X14044729Y-13719074D02*
X14044729Y-13766693D01*
X14044729Y-13766693D02*
X14035205Y-13804788D01*
X14035205Y-13804788D02*
X14025682Y-13823836D01*
X14025682Y-13823836D02*
X14016158Y-13833360D01*
X14016158Y-13833360D02*
X13997110Y-13842884D01*
X13997110Y-13842884D02*
X13978062Y-13842884D01*
X13978062Y-13842884D02*
X13959015Y-13833360D01*
X13959015Y-13833360D02*
X13949491Y-13823836D01*
X13949491Y-13823836D02*
X13939967Y-13804788D01*
X13939967Y-13804788D02*
X13930443Y-13766693D01*
X13930443Y-13766693D02*
X13930443Y-13719074D01*
X13930443Y-13719074D02*
X13939967Y-13680979D01*
X13939967Y-13680979D02*
X13949491Y-13661931D01*
X13949491Y-13661931D02*
X13959015Y-13652408D01*
X13959015Y-13652408D02*
X13978062Y-13642884D01*
X14168539Y-13642884D02*
X14187586Y-13642884D01*
X14187586Y-13642884D02*
X14206634Y-13652408D01*
X14206634Y-13652408D02*
X14216158Y-13661931D01*
X14216158Y-13661931D02*
X14225682Y-13680979D01*
X14225682Y-13680979D02*
X14235205Y-13719074D01*
X14235205Y-13719074D02*
X14235205Y-13766693D01*
X14235205Y-13766693D02*
X14225682Y-13804788D01*
X14225682Y-13804788D02*
X14216158Y-13823836D01*
X14216158Y-13823836D02*
X14206634Y-13833360D01*
X14206634Y-13833360D02*
X14187586Y-13842884D01*
X14187586Y-13842884D02*
X14168539Y-13842884D01*
X14168539Y-13842884D02*
X14149491Y-13833360D01*
X14149491Y-13833360D02*
X14139967Y-13823836D01*
X14139967Y-13823836D02*
X14130443Y-13804788D01*
X14130443Y-13804788D02*
X14120920Y-13766693D01*
X14120920Y-13766693D02*
X14120920Y-13719074D01*
X14120920Y-13719074D02*
X14130443Y-13680979D01*
X14130443Y-13680979D02*
X14139967Y-13661931D01*
X14139967Y-13661931D02*
X14149491Y-13652408D01*
X14149491Y-13652408D02*
X14168539Y-13642884D01*
X14320920Y-13842884D02*
X14320920Y-13709550D01*
X14320920Y-13728598D02*
X14330443Y-13719074D01*
X14330443Y-13719074D02*
X14349491Y-13709550D01*
X14349491Y-13709550D02*
X14378063Y-13709550D01*
X14378063Y-13709550D02*
X14397110Y-13719074D01*
X14397110Y-13719074D02*
X14406634Y-13738122D01*
X14406634Y-13738122D02*
X14406634Y-13842884D01*
X14406634Y-13738122D02*
X14416158Y-13719074D01*
X14416158Y-13719074D02*
X14435205Y-13709550D01*
X14435205Y-13709550D02*
X14463777Y-13709550D01*
X14463777Y-13709550D02*
X14482824Y-13719074D01*
X14482824Y-13719074D02*
X14492348Y-13738122D01*
X14492348Y-13738122D02*
X14492348Y-13842884D01*
X14587586Y-13842884D02*
X14587586Y-13709550D01*
X14587586Y-13728598D02*
X14597110Y-13719074D01*
X14597110Y-13719074D02*
X14616158Y-13709550D01*
X14616158Y-13709550D02*
X14644729Y-13709550D01*
X14644729Y-13709550D02*
X14663777Y-13719074D01*
X14663777Y-13719074D02*
X14673301Y-13738122D01*
X14673301Y-13738122D02*
X14673301Y-13842884D01*
X14673301Y-13738122D02*
X14682824Y-13719074D01*
X14682824Y-13719074D02*
X14701872Y-13709550D01*
X14701872Y-13709550D02*
X14730443Y-13709550D01*
X14730443Y-13709550D02*
X14749491Y-13719074D01*
X14749491Y-13719074D02*
X14759015Y-13738122D01*
X14759015Y-13738122D02*
X14759015Y-13842884D01*
X15149491Y-13633360D02*
X14978063Y-13890503D01*
X15406634Y-13642884D02*
X15425682Y-13642884D01*
X15425682Y-13642884D02*
X15444729Y-13652408D01*
X15444729Y-13652408D02*
X15454253Y-13661931D01*
X15454253Y-13661931D02*
X15463777Y-13680979D01*
X15463777Y-13680979D02*
X15473301Y-13719074D01*
X15473301Y-13719074D02*
X15473301Y-13766693D01*
X15473301Y-13766693D02*
X15463777Y-13804788D01*
X15463777Y-13804788D02*
X15454253Y-13823836D01*
X15454253Y-13823836D02*
X15444729Y-13833360D01*
X15444729Y-13833360D02*
X15425682Y-13842884D01*
X15425682Y-13842884D02*
X15406634Y-13842884D01*
X15406634Y-13842884D02*
X15387586Y-13833360D01*
X15387586Y-13833360D02*
X15378063Y-13823836D01*
X15378063Y-13823836D02*
X15368539Y-13804788D01*
X15368539Y-13804788D02*
X15359015Y-13766693D01*
X15359015Y-13766693D02*
X15359015Y-13719074D01*
X15359015Y-13719074D02*
X15368539Y-13680979D01*
X15368539Y-13680979D02*
X15378063Y-13661931D01*
X15378063Y-13661931D02*
X15387586Y-13652408D01*
X15387586Y-13652408D02*
X15406634Y-13642884D01*
X15559015Y-13823836D02*
X15568539Y-13833360D01*
X15568539Y-13833360D02*
X15559015Y-13842884D01*
X15559015Y-13842884D02*
X15549491Y-13833360D01*
X15549491Y-13833360D02*
X15559015Y-13823836D01*
X15559015Y-13823836D02*
X15559015Y-13842884D01*
X15692348Y-13642884D02*
X15711396Y-13642884D01*
X15711396Y-13642884D02*
X15730444Y-13652408D01*
X15730444Y-13652408D02*
X15739967Y-13661931D01*
X15739967Y-13661931D02*
X15749491Y-13680979D01*
X15749491Y-13680979D02*
X15759015Y-13719074D01*
X15759015Y-13719074D02*
X15759015Y-13766693D01*
X15759015Y-13766693D02*
X15749491Y-13804788D01*
X15749491Y-13804788D02*
X15739967Y-13823836D01*
X15739967Y-13823836D02*
X15730444Y-13833360D01*
X15730444Y-13833360D02*
X15711396Y-13842884D01*
X15711396Y-13842884D02*
X15692348Y-13842884D01*
X15692348Y-13842884D02*
X15673301Y-13833360D01*
X15673301Y-13833360D02*
X15663777Y-13823836D01*
X15663777Y-13823836D02*
X15654253Y-13804788D01*
X15654253Y-13804788D02*
X15644729Y-13766693D01*
X15644729Y-13766693D02*
X15644729Y-13719074D01*
X15644729Y-13719074D02*
X15654253Y-13680979D01*
X15654253Y-13680979D02*
X15663777Y-13661931D01*
X15663777Y-13661931D02*
X15673301Y-13652408D01*
X15673301Y-13652408D02*
X15692348Y-13642884D01*
X15949491Y-13842884D02*
X15835206Y-13842884D01*
X15892348Y-13842884D02*
X15892348Y-13642884D01*
X15892348Y-13642884D02*
X15873301Y-13671455D01*
X15873301Y-13671455D02*
X15854253Y-13690503D01*
X15854253Y-13690503D02*
X15835206Y-13700027D01*
X16130444Y-13642884D02*
X16035206Y-13642884D01*
X16035206Y-13642884D02*
X16025682Y-13738122D01*
X16025682Y-13738122D02*
X16035206Y-13728598D01*
X16035206Y-13728598D02*
X16054253Y-13719074D01*
X16054253Y-13719074D02*
X16101872Y-13719074D01*
X16101872Y-13719074D02*
X16120920Y-13728598D01*
X16120920Y-13728598D02*
X16130444Y-13738122D01*
X16130444Y-13738122D02*
X16139967Y-13757169D01*
X16139967Y-13757169D02*
X16139967Y-13804788D01*
X16139967Y-13804788D02*
X16130444Y-13823836D01*
X16130444Y-13823836D02*
X16120920Y-13833360D01*
X16120920Y-13833360D02*
X16101872Y-13842884D01*
X16101872Y-13842884D02*
X16054253Y-13842884D01*
X16054253Y-13842884D02*
X16035206Y-13833360D01*
X16035206Y-13833360D02*
X16025682Y-13823836D01*
X16206634Y-13642884D02*
X16339967Y-13642884D01*
X16339967Y-13642884D02*
X16254253Y-13842884D01*
X16406634Y-13642884D02*
X16406634Y-13680979D01*
X16482825Y-13642884D02*
X16482825Y-13680979D01*
X16778063Y-13919074D02*
X16768539Y-13909550D01*
X16768539Y-13909550D02*
X16749491Y-13880979D01*
X16749491Y-13880979D02*
X16739968Y-13861931D01*
X16739968Y-13861931D02*
X16730444Y-13833360D01*
X16730444Y-13833360D02*
X16720920Y-13785741D01*
X16720920Y-13785741D02*
X16720920Y-13747646D01*
X16720920Y-13747646D02*
X16730444Y-13700027D01*
X16730444Y-13700027D02*
X16739968Y-13671455D01*
X16739968Y-13671455D02*
X16749491Y-13652408D01*
X16749491Y-13652408D02*
X16768539Y-13623836D01*
X16768539Y-13623836D02*
X16778063Y-13614312D01*
X16959015Y-13842884D02*
X16844730Y-13842884D01*
X16901872Y-13842884D02*
X16901872Y-13642884D01*
X16901872Y-13642884D02*
X16882825Y-13671455D01*
X16882825Y-13671455D02*
X16863777Y-13690503D01*
X16863777Y-13690503D02*
X16844730Y-13700027D01*
X17197111Y-13842884D02*
X17197111Y-13642884D01*
X17282825Y-13842884D02*
X17282825Y-13738122D01*
X17282825Y-13738122D02*
X17273301Y-13719074D01*
X17273301Y-13719074D02*
X17254253Y-13709550D01*
X17254253Y-13709550D02*
X17225682Y-13709550D01*
X17225682Y-13709550D02*
X17206634Y-13719074D01*
X17206634Y-13719074D02*
X17197111Y-13728598D01*
X17406634Y-13842884D02*
X17387587Y-13833360D01*
X17387587Y-13833360D02*
X17378063Y-13823836D01*
X17378063Y-13823836D02*
X17368539Y-13804788D01*
X17368539Y-13804788D02*
X17368539Y-13747646D01*
X17368539Y-13747646D02*
X17378063Y-13728598D01*
X17378063Y-13728598D02*
X17387587Y-13719074D01*
X17387587Y-13719074D02*
X17406634Y-13709550D01*
X17406634Y-13709550D02*
X17435206Y-13709550D01*
X17435206Y-13709550D02*
X17454253Y-13719074D01*
X17454253Y-13719074D02*
X17463777Y-13728598D01*
X17463777Y-13728598D02*
X17473301Y-13747646D01*
X17473301Y-13747646D02*
X17473301Y-13804788D01*
X17473301Y-13804788D02*
X17463777Y-13823836D01*
X17463777Y-13823836D02*
X17454253Y-13833360D01*
X17454253Y-13833360D02*
X17435206Y-13842884D01*
X17435206Y-13842884D02*
X17406634Y-13842884D01*
X17587587Y-13842884D02*
X17568539Y-13833360D01*
X17568539Y-13833360D02*
X17559015Y-13814312D01*
X17559015Y-13814312D02*
X17559015Y-13642884D01*
X17739968Y-13833360D02*
X17720920Y-13842884D01*
X17720920Y-13842884D02*
X17682825Y-13842884D01*
X17682825Y-13842884D02*
X17663777Y-13833360D01*
X17663777Y-13833360D02*
X17654253Y-13814312D01*
X17654253Y-13814312D02*
X17654253Y-13738122D01*
X17654253Y-13738122D02*
X17663777Y-13719074D01*
X17663777Y-13719074D02*
X17682825Y-13709550D01*
X17682825Y-13709550D02*
X17720920Y-13709550D01*
X17720920Y-13709550D02*
X17739968Y-13719074D01*
X17739968Y-13719074D02*
X17749492Y-13738122D01*
X17749492Y-13738122D02*
X17749492Y-13757169D01*
X17749492Y-13757169D02*
X17654253Y-13776217D01*
X17816158Y-13919074D02*
X17825682Y-13909550D01*
X17825682Y-13909550D02*
X17844730Y-13880979D01*
X17844730Y-13880979D02*
X17854253Y-13861931D01*
X17854253Y-13861931D02*
X17863777Y-13833360D01*
X17863777Y-13833360D02*
X17873301Y-13785741D01*
X17873301Y-13785741D02*
X17873301Y-13747646D01*
X17873301Y-13747646D02*
X17863777Y-13700027D01*
X17863777Y-13700027D02*
X17854253Y-13671455D01*
X17854253Y-13671455D02*
X17844730Y-13652408D01*
X17844730Y-13652408D02*
X17825682Y-13623836D01*
X17825682Y-13623836D02*
X17816158Y-13614312D01*
D13*
X13203000Y-14015400D02*
G75*
G03*
X13203000Y-14015400I-25000J0D01*
G01*
D11*
X13501872Y-13906884D02*
X13520920Y-13906884D01*
X13520920Y-13906884D02*
X13539967Y-13916408D01*
X13539967Y-13916408D02*
X13549491Y-13925931D01*
X13549491Y-13925931D02*
X13559015Y-13944979D01*
X13559015Y-13944979D02*
X13568539Y-13983074D01*
X13568539Y-13983074D02*
X13568539Y-14030693D01*
X13568539Y-14030693D02*
X13559015Y-14068788D01*
X13559015Y-14068788D02*
X13549491Y-14087836D01*
X13549491Y-14087836D02*
X13539967Y-14097360D01*
X13539967Y-14097360D02*
X13520920Y-14106884D01*
X13520920Y-14106884D02*
X13501872Y-14106884D01*
X13501872Y-14106884D02*
X13482824Y-14097360D01*
X13482824Y-14097360D02*
X13473301Y-14087836D01*
X13473301Y-14087836D02*
X13463777Y-14068788D01*
X13463777Y-14068788D02*
X13454253Y-14030693D01*
X13454253Y-14030693D02*
X13454253Y-13983074D01*
X13454253Y-13983074D02*
X13463777Y-13944979D01*
X13463777Y-13944979D02*
X13473301Y-13925931D01*
X13473301Y-13925931D02*
X13482824Y-13916408D01*
X13482824Y-13916408D02*
X13501872Y-13906884D01*
X13654253Y-14087836D02*
X13663777Y-14097360D01*
X13663777Y-14097360D02*
X13654253Y-14106884D01*
X13654253Y-14106884D02*
X13644729Y-14097360D01*
X13644729Y-14097360D02*
X13654253Y-14087836D01*
X13654253Y-14087836D02*
X13654253Y-14106884D01*
X13844729Y-13906884D02*
X13749491Y-13906884D01*
X13749491Y-13906884D02*
X13739967Y-14002122D01*
X13739967Y-14002122D02*
X13749491Y-13992598D01*
X13749491Y-13992598D02*
X13768539Y-13983074D01*
X13768539Y-13983074D02*
X13816158Y-13983074D01*
X13816158Y-13983074D02*
X13835205Y-13992598D01*
X13835205Y-13992598D02*
X13844729Y-14002122D01*
X13844729Y-14002122D02*
X13854253Y-14021169D01*
X13854253Y-14021169D02*
X13854253Y-14068788D01*
X13854253Y-14068788D02*
X13844729Y-14087836D01*
X13844729Y-14087836D02*
X13835205Y-14097360D01*
X13835205Y-14097360D02*
X13816158Y-14106884D01*
X13816158Y-14106884D02*
X13768539Y-14106884D01*
X13768539Y-14106884D02*
X13749491Y-14097360D01*
X13749491Y-14097360D02*
X13739967Y-14087836D01*
X13978062Y-13906884D02*
X13997110Y-13906884D01*
X13997110Y-13906884D02*
X14016158Y-13916408D01*
X14016158Y-13916408D02*
X14025682Y-13925931D01*
X14025682Y-13925931D02*
X14035205Y-13944979D01*
X14035205Y-13944979D02*
X14044729Y-13983074D01*
X14044729Y-13983074D02*
X14044729Y-14030693D01*
X14044729Y-14030693D02*
X14035205Y-14068788D01*
X14035205Y-14068788D02*
X14025682Y-14087836D01*
X14025682Y-14087836D02*
X14016158Y-14097360D01*
X14016158Y-14097360D02*
X13997110Y-14106884D01*
X13997110Y-14106884D02*
X13978062Y-14106884D01*
X13978062Y-14106884D02*
X13959015Y-14097360D01*
X13959015Y-14097360D02*
X13949491Y-14087836D01*
X13949491Y-14087836D02*
X13939967Y-14068788D01*
X13939967Y-14068788D02*
X13930443Y-14030693D01*
X13930443Y-14030693D02*
X13930443Y-13983074D01*
X13930443Y-13983074D02*
X13939967Y-13944979D01*
X13939967Y-13944979D02*
X13949491Y-13925931D01*
X13949491Y-13925931D02*
X13959015Y-13916408D01*
X13959015Y-13916408D02*
X13978062Y-13906884D01*
X14168539Y-13906884D02*
X14187586Y-13906884D01*
X14187586Y-13906884D02*
X14206634Y-13916408D01*
X14206634Y-13916408D02*
X14216158Y-13925931D01*
X14216158Y-13925931D02*
X14225682Y-13944979D01*
X14225682Y-13944979D02*
X14235205Y-13983074D01*
X14235205Y-13983074D02*
X14235205Y-14030693D01*
X14235205Y-14030693D02*
X14225682Y-14068788D01*
X14225682Y-14068788D02*
X14216158Y-14087836D01*
X14216158Y-14087836D02*
X14206634Y-14097360D01*
X14206634Y-14097360D02*
X14187586Y-14106884D01*
X14187586Y-14106884D02*
X14168539Y-14106884D01*
X14168539Y-14106884D02*
X14149491Y-14097360D01*
X14149491Y-14097360D02*
X14139967Y-14087836D01*
X14139967Y-14087836D02*
X14130443Y-14068788D01*
X14130443Y-14068788D02*
X14120920Y-14030693D01*
X14120920Y-14030693D02*
X14120920Y-13983074D01*
X14120920Y-13983074D02*
X14130443Y-13944979D01*
X14130443Y-13944979D02*
X14139967Y-13925931D01*
X14139967Y-13925931D02*
X14149491Y-13916408D01*
X14149491Y-13916408D02*
X14168539Y-13906884D01*
X14320920Y-14106884D02*
X14320920Y-13973550D01*
X14320920Y-13992598D02*
X14330443Y-13983074D01*
X14330443Y-13983074D02*
X14349491Y-13973550D01*
X14349491Y-13973550D02*
X14378063Y-13973550D01*
X14378063Y-13973550D02*
X14397110Y-13983074D01*
X14397110Y-13983074D02*
X14406634Y-14002122D01*
X14406634Y-14002122D02*
X14406634Y-14106884D01*
X14406634Y-14002122D02*
X14416158Y-13983074D01*
X14416158Y-13983074D02*
X14435205Y-13973550D01*
X14435205Y-13973550D02*
X14463777Y-13973550D01*
X14463777Y-13973550D02*
X14482824Y-13983074D01*
X14482824Y-13983074D02*
X14492348Y-14002122D01*
X14492348Y-14002122D02*
X14492348Y-14106884D01*
X14587586Y-14106884D02*
X14587586Y-13973550D01*
X14587586Y-13992598D02*
X14597110Y-13983074D01*
X14597110Y-13983074D02*
X14616158Y-13973550D01*
X14616158Y-13973550D02*
X14644729Y-13973550D01*
X14644729Y-13973550D02*
X14663777Y-13983074D01*
X14663777Y-13983074D02*
X14673301Y-14002122D01*
X14673301Y-14002122D02*
X14673301Y-14106884D01*
X14673301Y-14002122D02*
X14682824Y-13983074D01*
X14682824Y-13983074D02*
X14701872Y-13973550D01*
X14701872Y-13973550D02*
X14730443Y-13973550D01*
X14730443Y-13973550D02*
X14749491Y-13983074D01*
X14749491Y-13983074D02*
X14759015Y-14002122D01*
X14759015Y-14002122D02*
X14759015Y-14106884D01*
X15149491Y-13897360D02*
X14978063Y-14154503D01*
X15406634Y-13906884D02*
X15425682Y-13906884D01*
X15425682Y-13906884D02*
X15444729Y-13916408D01*
X15444729Y-13916408D02*
X15454253Y-13925931D01*
X15454253Y-13925931D02*
X15463777Y-13944979D01*
X15463777Y-13944979D02*
X15473301Y-13983074D01*
X15473301Y-13983074D02*
X15473301Y-14030693D01*
X15473301Y-14030693D02*
X15463777Y-14068788D01*
X15463777Y-14068788D02*
X15454253Y-14087836D01*
X15454253Y-14087836D02*
X15444729Y-14097360D01*
X15444729Y-14097360D02*
X15425682Y-14106884D01*
X15425682Y-14106884D02*
X15406634Y-14106884D01*
X15406634Y-14106884D02*
X15387586Y-14097360D01*
X15387586Y-14097360D02*
X15378063Y-14087836D01*
X15378063Y-14087836D02*
X15368539Y-14068788D01*
X15368539Y-14068788D02*
X15359015Y-14030693D01*
X15359015Y-14030693D02*
X15359015Y-13983074D01*
X15359015Y-13983074D02*
X15368539Y-13944979D01*
X15368539Y-13944979D02*
X15378063Y-13925931D01*
X15378063Y-13925931D02*
X15387586Y-13916408D01*
X15387586Y-13916408D02*
X15406634Y-13906884D01*
X15559015Y-14087836D02*
X15568539Y-14097360D01*
X15568539Y-14097360D02*
X15559015Y-14106884D01*
X15559015Y-14106884D02*
X15549491Y-14097360D01*
X15549491Y-14097360D02*
X15559015Y-14087836D01*
X15559015Y-14087836D02*
X15559015Y-14106884D01*
X15692348Y-13906884D02*
X15711396Y-13906884D01*
X15711396Y-13906884D02*
X15730444Y-13916408D01*
X15730444Y-13916408D02*
X15739967Y-13925931D01*
X15739967Y-13925931D02*
X15749491Y-13944979D01*
X15749491Y-13944979D02*
X15759015Y-13983074D01*
X15759015Y-13983074D02*
X15759015Y-14030693D01*
X15759015Y-14030693D02*
X15749491Y-14068788D01*
X15749491Y-14068788D02*
X15739967Y-14087836D01*
X15739967Y-14087836D02*
X15730444Y-14097360D01*
X15730444Y-14097360D02*
X15711396Y-14106884D01*
X15711396Y-14106884D02*
X15692348Y-14106884D01*
X15692348Y-14106884D02*
X15673301Y-14097360D01*
X15673301Y-14097360D02*
X15663777Y-14087836D01*
X15663777Y-14087836D02*
X15654253Y-14068788D01*
X15654253Y-14068788D02*
X15644729Y-14030693D01*
X15644729Y-14030693D02*
X15644729Y-13983074D01*
X15644729Y-13983074D02*
X15654253Y-13944979D01*
X15654253Y-13944979D02*
X15663777Y-13925931D01*
X15663777Y-13925931D02*
X15673301Y-13916408D01*
X15673301Y-13916408D02*
X15692348Y-13906884D01*
X15949491Y-14106884D02*
X15835206Y-14106884D01*
X15892348Y-14106884D02*
X15892348Y-13906884D01*
X15892348Y-13906884D02*
X15873301Y-13935455D01*
X15873301Y-13935455D02*
X15854253Y-13954503D01*
X15854253Y-13954503D02*
X15835206Y-13964027D01*
X16044729Y-14106884D02*
X16082825Y-14106884D01*
X16082825Y-14106884D02*
X16101872Y-14097360D01*
X16101872Y-14097360D02*
X16111396Y-14087836D01*
X16111396Y-14087836D02*
X16130444Y-14059265D01*
X16130444Y-14059265D02*
X16139967Y-14021169D01*
X16139967Y-14021169D02*
X16139967Y-13944979D01*
X16139967Y-13944979D02*
X16130444Y-13925931D01*
X16130444Y-13925931D02*
X16120920Y-13916408D01*
X16120920Y-13916408D02*
X16101872Y-13906884D01*
X16101872Y-13906884D02*
X16063777Y-13906884D01*
X16063777Y-13906884D02*
X16044729Y-13916408D01*
X16044729Y-13916408D02*
X16035206Y-13925931D01*
X16035206Y-13925931D02*
X16025682Y-13944979D01*
X16025682Y-13944979D02*
X16025682Y-13992598D01*
X16025682Y-13992598D02*
X16035206Y-14011646D01*
X16035206Y-14011646D02*
X16044729Y-14021169D01*
X16044729Y-14021169D02*
X16063777Y-14030693D01*
X16063777Y-14030693D02*
X16101872Y-14030693D01*
X16101872Y-14030693D02*
X16120920Y-14021169D01*
X16120920Y-14021169D02*
X16130444Y-14011646D01*
X16130444Y-14011646D02*
X16139967Y-13992598D01*
X16206634Y-13906884D02*
X16339967Y-13906884D01*
X16339967Y-13906884D02*
X16254253Y-14106884D01*
X16406634Y-13906884D02*
X16406634Y-13944979D01*
X16482825Y-13906884D02*
X16482825Y-13944979D01*
X16778063Y-14183074D02*
X16768539Y-14173550D01*
X16768539Y-14173550D02*
X16749491Y-14144979D01*
X16749491Y-14144979D02*
X16739968Y-14125931D01*
X16739968Y-14125931D02*
X16730444Y-14097360D01*
X16730444Y-14097360D02*
X16720920Y-14049741D01*
X16720920Y-14049741D02*
X16720920Y-14011646D01*
X16720920Y-14011646D02*
X16730444Y-13964027D01*
X16730444Y-13964027D02*
X16739968Y-13935455D01*
X16739968Y-13935455D02*
X16749491Y-13916408D01*
X16749491Y-13916408D02*
X16768539Y-13887836D01*
X16768539Y-13887836D02*
X16778063Y-13878312D01*
X16835206Y-13906884D02*
X16959015Y-13906884D01*
X16959015Y-13906884D02*
X16892349Y-13983074D01*
X16892349Y-13983074D02*
X16920920Y-13983074D01*
X16920920Y-13983074D02*
X16939968Y-13992598D01*
X16939968Y-13992598D02*
X16949491Y-14002122D01*
X16949491Y-14002122D02*
X16959015Y-14021169D01*
X16959015Y-14021169D02*
X16959015Y-14068788D01*
X16959015Y-14068788D02*
X16949491Y-14087836D01*
X16949491Y-14087836D02*
X16939968Y-14097360D01*
X16939968Y-14097360D02*
X16920920Y-14106884D01*
X16920920Y-14106884D02*
X16863777Y-14106884D01*
X16863777Y-14106884D02*
X16844730Y-14097360D01*
X16844730Y-14097360D02*
X16835206Y-14087836D01*
X17035206Y-13925931D02*
X17044730Y-13916408D01*
X17044730Y-13916408D02*
X17063777Y-13906884D01*
X17063777Y-13906884D02*
X17111396Y-13906884D01*
X17111396Y-13906884D02*
X17130444Y-13916408D01*
X17130444Y-13916408D02*
X17139968Y-13925931D01*
X17139968Y-13925931D02*
X17149491Y-13944979D01*
X17149491Y-13944979D02*
X17149491Y-13964027D01*
X17149491Y-13964027D02*
X17139968Y-13992598D01*
X17139968Y-13992598D02*
X17025682Y-14106884D01*
X17025682Y-14106884D02*
X17149491Y-14106884D01*
X17387587Y-14106884D02*
X17387587Y-13906884D01*
X17473301Y-14106884D02*
X17473301Y-14002122D01*
X17473301Y-14002122D02*
X17463777Y-13983074D01*
X17463777Y-13983074D02*
X17444730Y-13973550D01*
X17444730Y-13973550D02*
X17416158Y-13973550D01*
X17416158Y-13973550D02*
X17397111Y-13983074D01*
X17397111Y-13983074D02*
X17387587Y-13992598D01*
X17597111Y-14106884D02*
X17578063Y-14097360D01*
X17578063Y-14097360D02*
X17568539Y-14087836D01*
X17568539Y-14087836D02*
X17559015Y-14068788D01*
X17559015Y-14068788D02*
X17559015Y-14011646D01*
X17559015Y-14011646D02*
X17568539Y-13992598D01*
X17568539Y-13992598D02*
X17578063Y-13983074D01*
X17578063Y-13983074D02*
X17597111Y-13973550D01*
X17597111Y-13973550D02*
X17625682Y-13973550D01*
X17625682Y-13973550D02*
X17644730Y-13983074D01*
X17644730Y-13983074D02*
X17654253Y-13992598D01*
X17654253Y-13992598D02*
X17663777Y-14011646D01*
X17663777Y-14011646D02*
X17663777Y-14068788D01*
X17663777Y-14068788D02*
X17654253Y-14087836D01*
X17654253Y-14087836D02*
X17644730Y-14097360D01*
X17644730Y-14097360D02*
X17625682Y-14106884D01*
X17625682Y-14106884D02*
X17597111Y-14106884D01*
X17778063Y-14106884D02*
X17759015Y-14097360D01*
X17759015Y-14097360D02*
X17749492Y-14078312D01*
X17749492Y-14078312D02*
X17749492Y-13906884D01*
X17930444Y-14097360D02*
X17911396Y-14106884D01*
X17911396Y-14106884D02*
X17873301Y-14106884D01*
X17873301Y-14106884D02*
X17854253Y-14097360D01*
X17854253Y-14097360D02*
X17844730Y-14078312D01*
X17844730Y-14078312D02*
X17844730Y-14002122D01*
X17844730Y-14002122D02*
X17854253Y-13983074D01*
X17854253Y-13983074D02*
X17873301Y-13973550D01*
X17873301Y-13973550D02*
X17911396Y-13973550D01*
X17911396Y-13973550D02*
X17930444Y-13983074D01*
X17930444Y-13983074D02*
X17939968Y-14002122D01*
X17939968Y-14002122D02*
X17939968Y-14021169D01*
X17939968Y-14021169D02*
X17844730Y-14040217D01*
X18016158Y-14097360D02*
X18035206Y-14106884D01*
X18035206Y-14106884D02*
X18073301Y-14106884D01*
X18073301Y-14106884D02*
X18092349Y-14097360D01*
X18092349Y-14097360D02*
X18101873Y-14078312D01*
X18101873Y-14078312D02*
X18101873Y-14068788D01*
X18101873Y-14068788D02*
X18092349Y-14049741D01*
X18092349Y-14049741D02*
X18073301Y-14040217D01*
X18073301Y-14040217D02*
X18044730Y-14040217D01*
X18044730Y-14040217D02*
X18025682Y-14030693D01*
X18025682Y-14030693D02*
X18016158Y-14011646D01*
X18016158Y-14011646D02*
X18016158Y-14002122D01*
X18016158Y-14002122D02*
X18025682Y-13983074D01*
X18025682Y-13983074D02*
X18044730Y-13973550D01*
X18044730Y-13973550D02*
X18073301Y-13973550D01*
X18073301Y-13973550D02*
X18092349Y-13983074D01*
X18168539Y-14183074D02*
X18178063Y-14173550D01*
X18178063Y-14173550D02*
X18197111Y-14144979D01*
X18197111Y-14144979D02*
X18206634Y-14125931D01*
X18206634Y-14125931D02*
X18216158Y-14097360D01*
X18216158Y-14097360D02*
X18225682Y-14049741D01*
X18225682Y-14049741D02*
X18225682Y-14011646D01*
X18225682Y-14011646D02*
X18216158Y-13964027D01*
X18216158Y-13964027D02*
X18206634Y-13935455D01*
X18206634Y-13935455D02*
X18197111Y-13916408D01*
X18197111Y-13916408D02*
X18178063Y-13887836D01*
X18178063Y-13887836D02*
X18168539Y-13878312D01*
D10*
X13153000Y-14229400D02*
X13153000Y-14329400D01*
X13103000Y-14279400D02*
X13203000Y-14279400D01*
D11*
X13568539Y-14370884D02*
X13454253Y-14370884D01*
X13511396Y-14370884D02*
X13511396Y-14170884D01*
X13511396Y-14170884D02*
X13492348Y-14199455D01*
X13492348Y-14199455D02*
X13473301Y-14218503D01*
X13473301Y-14218503D02*
X13454253Y-14228027D01*
X13654253Y-14351836D02*
X13663777Y-14361360D01*
X13663777Y-14361360D02*
X13654253Y-14370884D01*
X13654253Y-14370884D02*
X13644729Y-14361360D01*
X13644729Y-14361360D02*
X13654253Y-14351836D01*
X13654253Y-14351836D02*
X13654253Y-14370884D01*
X13787586Y-14170884D02*
X13806634Y-14170884D01*
X13806634Y-14170884D02*
X13825682Y-14180408D01*
X13825682Y-14180408D02*
X13835205Y-14189931D01*
X13835205Y-14189931D02*
X13844729Y-14208979D01*
X13844729Y-14208979D02*
X13854253Y-14247074D01*
X13854253Y-14247074D02*
X13854253Y-14294693D01*
X13854253Y-14294693D02*
X13844729Y-14332788D01*
X13844729Y-14332788D02*
X13835205Y-14351836D01*
X13835205Y-14351836D02*
X13825682Y-14361360D01*
X13825682Y-14361360D02*
X13806634Y-14370884D01*
X13806634Y-14370884D02*
X13787586Y-14370884D01*
X13787586Y-14370884D02*
X13768539Y-14361360D01*
X13768539Y-14361360D02*
X13759015Y-14351836D01*
X13759015Y-14351836D02*
X13749491Y-14332788D01*
X13749491Y-14332788D02*
X13739967Y-14294693D01*
X13739967Y-14294693D02*
X13739967Y-14247074D01*
X13739967Y-14247074D02*
X13749491Y-14208979D01*
X13749491Y-14208979D02*
X13759015Y-14189931D01*
X13759015Y-14189931D02*
X13768539Y-14180408D01*
X13768539Y-14180408D02*
X13787586Y-14170884D01*
X13978062Y-14170884D02*
X13997110Y-14170884D01*
X13997110Y-14170884D02*
X14016158Y-14180408D01*
X14016158Y-14180408D02*
X14025682Y-14189931D01*
X14025682Y-14189931D02*
X14035205Y-14208979D01*
X14035205Y-14208979D02*
X14044729Y-14247074D01*
X14044729Y-14247074D02*
X14044729Y-14294693D01*
X14044729Y-14294693D02*
X14035205Y-14332788D01*
X14035205Y-14332788D02*
X14025682Y-14351836D01*
X14025682Y-14351836D02*
X14016158Y-14361360D01*
X14016158Y-14361360D02*
X13997110Y-14370884D01*
X13997110Y-14370884D02*
X13978062Y-14370884D01*
X13978062Y-14370884D02*
X13959015Y-14361360D01*
X13959015Y-14361360D02*
X13949491Y-14351836D01*
X13949491Y-14351836D02*
X13939967Y-14332788D01*
X13939967Y-14332788D02*
X13930443Y-14294693D01*
X13930443Y-14294693D02*
X13930443Y-14247074D01*
X13930443Y-14247074D02*
X13939967Y-14208979D01*
X13939967Y-14208979D02*
X13949491Y-14189931D01*
X13949491Y-14189931D02*
X13959015Y-14180408D01*
X13959015Y-14180408D02*
X13978062Y-14170884D01*
X14168539Y-14170884D02*
X14187586Y-14170884D01*
X14187586Y-14170884D02*
X14206634Y-14180408D01*
X14206634Y-14180408D02*
X14216158Y-14189931D01*
X14216158Y-14189931D02*
X14225682Y-14208979D01*
X14225682Y-14208979D02*
X14235205Y-14247074D01*
X14235205Y-14247074D02*
X14235205Y-14294693D01*
X14235205Y-14294693D02*
X14225682Y-14332788D01*
X14225682Y-14332788D02*
X14216158Y-14351836D01*
X14216158Y-14351836D02*
X14206634Y-14361360D01*
X14206634Y-14361360D02*
X14187586Y-14370884D01*
X14187586Y-14370884D02*
X14168539Y-14370884D01*
X14168539Y-14370884D02*
X14149491Y-14361360D01*
X14149491Y-14361360D02*
X14139967Y-14351836D01*
X14139967Y-14351836D02*
X14130443Y-14332788D01*
X14130443Y-14332788D02*
X14120920Y-14294693D01*
X14120920Y-14294693D02*
X14120920Y-14247074D01*
X14120920Y-14247074D02*
X14130443Y-14208979D01*
X14130443Y-14208979D02*
X14139967Y-14189931D01*
X14139967Y-14189931D02*
X14149491Y-14180408D01*
X14149491Y-14180408D02*
X14168539Y-14170884D01*
X14320920Y-14370884D02*
X14320920Y-14237550D01*
X14320920Y-14256598D02*
X14330443Y-14247074D01*
X14330443Y-14247074D02*
X14349491Y-14237550D01*
X14349491Y-14237550D02*
X14378063Y-14237550D01*
X14378063Y-14237550D02*
X14397110Y-14247074D01*
X14397110Y-14247074D02*
X14406634Y-14266122D01*
X14406634Y-14266122D02*
X14406634Y-14370884D01*
X14406634Y-14266122D02*
X14416158Y-14247074D01*
X14416158Y-14247074D02*
X14435205Y-14237550D01*
X14435205Y-14237550D02*
X14463777Y-14237550D01*
X14463777Y-14237550D02*
X14482824Y-14247074D01*
X14482824Y-14247074D02*
X14492348Y-14266122D01*
X14492348Y-14266122D02*
X14492348Y-14370884D01*
X14587586Y-14370884D02*
X14587586Y-14237550D01*
X14587586Y-14256598D02*
X14597110Y-14247074D01*
X14597110Y-14247074D02*
X14616158Y-14237550D01*
X14616158Y-14237550D02*
X14644729Y-14237550D01*
X14644729Y-14237550D02*
X14663777Y-14247074D01*
X14663777Y-14247074D02*
X14673301Y-14266122D01*
X14673301Y-14266122D02*
X14673301Y-14370884D01*
X14673301Y-14266122D02*
X14682824Y-14247074D01*
X14682824Y-14247074D02*
X14701872Y-14237550D01*
X14701872Y-14237550D02*
X14730443Y-14237550D01*
X14730443Y-14237550D02*
X14749491Y-14247074D01*
X14749491Y-14247074D02*
X14759015Y-14266122D01*
X14759015Y-14266122D02*
X14759015Y-14370884D01*
X15149491Y-14161360D02*
X14978063Y-14418503D01*
X15406634Y-14170884D02*
X15425682Y-14170884D01*
X15425682Y-14170884D02*
X15444729Y-14180408D01*
X15444729Y-14180408D02*
X15454253Y-14189931D01*
X15454253Y-14189931D02*
X15463777Y-14208979D01*
X15463777Y-14208979D02*
X15473301Y-14247074D01*
X15473301Y-14247074D02*
X15473301Y-14294693D01*
X15473301Y-14294693D02*
X15463777Y-14332788D01*
X15463777Y-14332788D02*
X15454253Y-14351836D01*
X15454253Y-14351836D02*
X15444729Y-14361360D01*
X15444729Y-14361360D02*
X15425682Y-14370884D01*
X15425682Y-14370884D02*
X15406634Y-14370884D01*
X15406634Y-14370884D02*
X15387586Y-14361360D01*
X15387586Y-14361360D02*
X15378063Y-14351836D01*
X15378063Y-14351836D02*
X15368539Y-14332788D01*
X15368539Y-14332788D02*
X15359015Y-14294693D01*
X15359015Y-14294693D02*
X15359015Y-14247074D01*
X15359015Y-14247074D02*
X15368539Y-14208979D01*
X15368539Y-14208979D02*
X15378063Y-14189931D01*
X15378063Y-14189931D02*
X15387586Y-14180408D01*
X15387586Y-14180408D02*
X15406634Y-14170884D01*
X15559015Y-14351836D02*
X15568539Y-14361360D01*
X15568539Y-14361360D02*
X15559015Y-14370884D01*
X15559015Y-14370884D02*
X15549491Y-14361360D01*
X15549491Y-14361360D02*
X15559015Y-14351836D01*
X15559015Y-14351836D02*
X15559015Y-14370884D01*
X15692348Y-14170884D02*
X15711396Y-14170884D01*
X15711396Y-14170884D02*
X15730444Y-14180408D01*
X15730444Y-14180408D02*
X15739967Y-14189931D01*
X15739967Y-14189931D02*
X15749491Y-14208979D01*
X15749491Y-14208979D02*
X15759015Y-14247074D01*
X15759015Y-14247074D02*
X15759015Y-14294693D01*
X15759015Y-14294693D02*
X15749491Y-14332788D01*
X15749491Y-14332788D02*
X15739967Y-14351836D01*
X15739967Y-14351836D02*
X15730444Y-14361360D01*
X15730444Y-14361360D02*
X15711396Y-14370884D01*
X15711396Y-14370884D02*
X15692348Y-14370884D01*
X15692348Y-14370884D02*
X15673301Y-14361360D01*
X15673301Y-14361360D02*
X15663777Y-14351836D01*
X15663777Y-14351836D02*
X15654253Y-14332788D01*
X15654253Y-14332788D02*
X15644729Y-14294693D01*
X15644729Y-14294693D02*
X15644729Y-14247074D01*
X15644729Y-14247074D02*
X15654253Y-14208979D01*
X15654253Y-14208979D02*
X15663777Y-14189931D01*
X15663777Y-14189931D02*
X15673301Y-14180408D01*
X15673301Y-14180408D02*
X15692348Y-14170884D01*
X15825682Y-14170884D02*
X15949491Y-14170884D01*
X15949491Y-14170884D02*
X15882825Y-14247074D01*
X15882825Y-14247074D02*
X15911396Y-14247074D01*
X15911396Y-14247074D02*
X15930444Y-14256598D01*
X15930444Y-14256598D02*
X15939967Y-14266122D01*
X15939967Y-14266122D02*
X15949491Y-14285169D01*
X15949491Y-14285169D02*
X15949491Y-14332788D01*
X15949491Y-14332788D02*
X15939967Y-14351836D01*
X15939967Y-14351836D02*
X15930444Y-14361360D01*
X15930444Y-14361360D02*
X15911396Y-14370884D01*
X15911396Y-14370884D02*
X15854253Y-14370884D01*
X15854253Y-14370884D02*
X15835206Y-14361360D01*
X15835206Y-14361360D02*
X15825682Y-14351836D01*
X16044729Y-14370884D02*
X16082825Y-14370884D01*
X16082825Y-14370884D02*
X16101872Y-14361360D01*
X16101872Y-14361360D02*
X16111396Y-14351836D01*
X16111396Y-14351836D02*
X16130444Y-14323265D01*
X16130444Y-14323265D02*
X16139967Y-14285169D01*
X16139967Y-14285169D02*
X16139967Y-14208979D01*
X16139967Y-14208979D02*
X16130444Y-14189931D01*
X16130444Y-14189931D02*
X16120920Y-14180408D01*
X16120920Y-14180408D02*
X16101872Y-14170884D01*
X16101872Y-14170884D02*
X16063777Y-14170884D01*
X16063777Y-14170884D02*
X16044729Y-14180408D01*
X16044729Y-14180408D02*
X16035206Y-14189931D01*
X16035206Y-14189931D02*
X16025682Y-14208979D01*
X16025682Y-14208979D02*
X16025682Y-14256598D01*
X16025682Y-14256598D02*
X16035206Y-14275646D01*
X16035206Y-14275646D02*
X16044729Y-14285169D01*
X16044729Y-14285169D02*
X16063777Y-14294693D01*
X16063777Y-14294693D02*
X16101872Y-14294693D01*
X16101872Y-14294693D02*
X16120920Y-14285169D01*
X16120920Y-14285169D02*
X16130444Y-14275646D01*
X16130444Y-14275646D02*
X16139967Y-14256598D01*
X16311396Y-14237550D02*
X16311396Y-14370884D01*
X16263777Y-14161360D02*
X16216158Y-14304217D01*
X16216158Y-14304217D02*
X16339967Y-14304217D01*
X16406634Y-14170884D02*
X16406634Y-14208979D01*
X16482825Y-14170884D02*
X16482825Y-14208979D01*
X16778063Y-14447074D02*
X16768539Y-14437550D01*
X16768539Y-14437550D02*
X16749491Y-14408979D01*
X16749491Y-14408979D02*
X16739968Y-14389931D01*
X16739968Y-14389931D02*
X16730444Y-14361360D01*
X16730444Y-14361360D02*
X16720920Y-14313741D01*
X16720920Y-14313741D02*
X16720920Y-14275646D01*
X16720920Y-14275646D02*
X16730444Y-14228027D01*
X16730444Y-14228027D02*
X16739968Y-14199455D01*
X16739968Y-14199455D02*
X16749491Y-14180408D01*
X16749491Y-14180408D02*
X16768539Y-14151836D01*
X16768539Y-14151836D02*
X16778063Y-14142312D01*
X16949491Y-14170884D02*
X16854253Y-14170884D01*
X16854253Y-14170884D02*
X16844730Y-14266122D01*
X16844730Y-14266122D02*
X16854253Y-14256598D01*
X16854253Y-14256598D02*
X16873301Y-14247074D01*
X16873301Y-14247074D02*
X16920920Y-14247074D01*
X16920920Y-14247074D02*
X16939968Y-14256598D01*
X16939968Y-14256598D02*
X16949491Y-14266122D01*
X16949491Y-14266122D02*
X16959015Y-14285169D01*
X16959015Y-14285169D02*
X16959015Y-14332788D01*
X16959015Y-14332788D02*
X16949491Y-14351836D01*
X16949491Y-14351836D02*
X16939968Y-14361360D01*
X16939968Y-14361360D02*
X16920920Y-14370884D01*
X16920920Y-14370884D02*
X16873301Y-14370884D01*
X16873301Y-14370884D02*
X16854253Y-14361360D01*
X16854253Y-14361360D02*
X16844730Y-14351836D01*
X17054253Y-14370884D02*
X17092349Y-14370884D01*
X17092349Y-14370884D02*
X17111396Y-14361360D01*
X17111396Y-14361360D02*
X17120920Y-14351836D01*
X17120920Y-14351836D02*
X17139968Y-14323265D01*
X17139968Y-14323265D02*
X17149491Y-14285169D01*
X17149491Y-14285169D02*
X17149491Y-14208979D01*
X17149491Y-14208979D02*
X17139968Y-14189931D01*
X17139968Y-14189931D02*
X17130444Y-14180408D01*
X17130444Y-14180408D02*
X17111396Y-14170884D01*
X17111396Y-14170884D02*
X17073301Y-14170884D01*
X17073301Y-14170884D02*
X17054253Y-14180408D01*
X17054253Y-14180408D02*
X17044730Y-14189931D01*
X17044730Y-14189931D02*
X17035206Y-14208979D01*
X17035206Y-14208979D02*
X17035206Y-14256598D01*
X17035206Y-14256598D02*
X17044730Y-14275646D01*
X17044730Y-14275646D02*
X17054253Y-14285169D01*
X17054253Y-14285169D02*
X17073301Y-14294693D01*
X17073301Y-14294693D02*
X17111396Y-14294693D01*
X17111396Y-14294693D02*
X17130444Y-14285169D01*
X17130444Y-14285169D02*
X17139968Y-14275646D01*
X17139968Y-14275646D02*
X17149491Y-14256598D01*
X17387587Y-14370884D02*
X17387587Y-14170884D01*
X17473301Y-14370884D02*
X17473301Y-14266122D01*
X17473301Y-14266122D02*
X17463777Y-14247074D01*
X17463777Y-14247074D02*
X17444730Y-14237550D01*
X17444730Y-14237550D02*
X17416158Y-14237550D01*
X17416158Y-14237550D02*
X17397111Y-14247074D01*
X17397111Y-14247074D02*
X17387587Y-14256598D01*
X17597111Y-14370884D02*
X17578063Y-14361360D01*
X17578063Y-14361360D02*
X17568539Y-14351836D01*
X17568539Y-14351836D02*
X17559015Y-14332788D01*
X17559015Y-14332788D02*
X17559015Y-14275646D01*
X17559015Y-14275646D02*
X17568539Y-14256598D01*
X17568539Y-14256598D02*
X17578063Y-14247074D01*
X17578063Y-14247074D02*
X17597111Y-14237550D01*
X17597111Y-14237550D02*
X17625682Y-14237550D01*
X17625682Y-14237550D02*
X17644730Y-14247074D01*
X17644730Y-14247074D02*
X17654253Y-14256598D01*
X17654253Y-14256598D02*
X17663777Y-14275646D01*
X17663777Y-14275646D02*
X17663777Y-14332788D01*
X17663777Y-14332788D02*
X17654253Y-14351836D01*
X17654253Y-14351836D02*
X17644730Y-14361360D01*
X17644730Y-14361360D02*
X17625682Y-14370884D01*
X17625682Y-14370884D02*
X17597111Y-14370884D01*
X17778063Y-14370884D02*
X17759015Y-14361360D01*
X17759015Y-14361360D02*
X17749492Y-14342312D01*
X17749492Y-14342312D02*
X17749492Y-14170884D01*
X17930444Y-14361360D02*
X17911396Y-14370884D01*
X17911396Y-14370884D02*
X17873301Y-14370884D01*
X17873301Y-14370884D02*
X17854253Y-14361360D01*
X17854253Y-14361360D02*
X17844730Y-14342312D01*
X17844730Y-14342312D02*
X17844730Y-14266122D01*
X17844730Y-14266122D02*
X17854253Y-14247074D01*
X17854253Y-14247074D02*
X17873301Y-14237550D01*
X17873301Y-14237550D02*
X17911396Y-14237550D01*
X17911396Y-14237550D02*
X17930444Y-14247074D01*
X17930444Y-14247074D02*
X17939968Y-14266122D01*
X17939968Y-14266122D02*
X17939968Y-14285169D01*
X17939968Y-14285169D02*
X17844730Y-14304217D01*
X18016158Y-14361360D02*
X18035206Y-14370884D01*
X18035206Y-14370884D02*
X18073301Y-14370884D01*
X18073301Y-14370884D02*
X18092349Y-14361360D01*
X18092349Y-14361360D02*
X18101873Y-14342312D01*
X18101873Y-14342312D02*
X18101873Y-14332788D01*
X18101873Y-14332788D02*
X18092349Y-14313741D01*
X18092349Y-14313741D02*
X18073301Y-14304217D01*
X18073301Y-14304217D02*
X18044730Y-14304217D01*
X18044730Y-14304217D02*
X18025682Y-14294693D01*
X18025682Y-14294693D02*
X18016158Y-14275646D01*
X18016158Y-14275646D02*
X18016158Y-14266122D01*
X18016158Y-14266122D02*
X18025682Y-14247074D01*
X18025682Y-14247074D02*
X18044730Y-14237550D01*
X18044730Y-14237550D02*
X18073301Y-14237550D01*
X18073301Y-14237550D02*
X18092349Y-14247074D01*
X18168539Y-14447074D02*
X18178063Y-14437550D01*
X18178063Y-14437550D02*
X18197111Y-14408979D01*
X18197111Y-14408979D02*
X18206634Y-14389931D01*
X18206634Y-14389931D02*
X18216158Y-14361360D01*
X18216158Y-14361360D02*
X18225682Y-14313741D01*
X18225682Y-14313741D02*
X18225682Y-14275646D01*
X18225682Y-14275646D02*
X18216158Y-14228027D01*
X18216158Y-14228027D02*
X18206634Y-14199455D01*
X18206634Y-14199455D02*
X18197111Y-14180408D01*
X18197111Y-14180408D02*
X18178063Y-14151836D01*
X18178063Y-14151836D02*
X18168539Y-14142312D01*
D14*
X13188063Y-14579463D02*
X13188063Y-14507337D01*
X13115937Y-14507337D01*
X13115937Y-14579463D01*
X13188063Y-14579463D01*
D11*
X13568539Y-14634884D02*
X13454253Y-14634884D01*
X13511396Y-14634884D02*
X13511396Y-14434884D01*
X13511396Y-14434884D02*
X13492348Y-14463455D01*
X13492348Y-14463455D02*
X13473301Y-14482503D01*
X13473301Y-14482503D02*
X13454253Y-14492027D01*
X13654253Y-14615836D02*
X13663777Y-14625360D01*
X13663777Y-14625360D02*
X13654253Y-14634884D01*
X13654253Y-14634884D02*
X13644729Y-14625360D01*
X13644729Y-14625360D02*
X13654253Y-14615836D01*
X13654253Y-14615836D02*
X13654253Y-14634884D01*
X13787586Y-14434884D02*
X13806634Y-14434884D01*
X13806634Y-14434884D02*
X13825682Y-14444408D01*
X13825682Y-14444408D02*
X13835205Y-14453931D01*
X13835205Y-14453931D02*
X13844729Y-14472979D01*
X13844729Y-14472979D02*
X13854253Y-14511074D01*
X13854253Y-14511074D02*
X13854253Y-14558693D01*
X13854253Y-14558693D02*
X13844729Y-14596788D01*
X13844729Y-14596788D02*
X13835205Y-14615836D01*
X13835205Y-14615836D02*
X13825682Y-14625360D01*
X13825682Y-14625360D02*
X13806634Y-14634884D01*
X13806634Y-14634884D02*
X13787586Y-14634884D01*
X13787586Y-14634884D02*
X13768539Y-14625360D01*
X13768539Y-14625360D02*
X13759015Y-14615836D01*
X13759015Y-14615836D02*
X13749491Y-14596788D01*
X13749491Y-14596788D02*
X13739967Y-14558693D01*
X13739967Y-14558693D02*
X13739967Y-14511074D01*
X13739967Y-14511074D02*
X13749491Y-14472979D01*
X13749491Y-14472979D02*
X13759015Y-14453931D01*
X13759015Y-14453931D02*
X13768539Y-14444408D01*
X13768539Y-14444408D02*
X13787586Y-14434884D01*
X13930443Y-14453931D02*
X13939967Y-14444408D01*
X13939967Y-14444408D02*
X13959015Y-14434884D01*
X13959015Y-14434884D02*
X14006634Y-14434884D01*
X14006634Y-14434884D02*
X14025682Y-14444408D01*
X14025682Y-14444408D02*
X14035205Y-14453931D01*
X14035205Y-14453931D02*
X14044729Y-14472979D01*
X14044729Y-14472979D02*
X14044729Y-14492027D01*
X14044729Y-14492027D02*
X14035205Y-14520598D01*
X14035205Y-14520598D02*
X13920920Y-14634884D01*
X13920920Y-14634884D02*
X14044729Y-14634884D01*
X14168539Y-14434884D02*
X14187586Y-14434884D01*
X14187586Y-14434884D02*
X14206634Y-14444408D01*
X14206634Y-14444408D02*
X14216158Y-14453931D01*
X14216158Y-14453931D02*
X14225682Y-14472979D01*
X14225682Y-14472979D02*
X14235205Y-14511074D01*
X14235205Y-14511074D02*
X14235205Y-14558693D01*
X14235205Y-14558693D02*
X14225682Y-14596788D01*
X14225682Y-14596788D02*
X14216158Y-14615836D01*
X14216158Y-14615836D02*
X14206634Y-14625360D01*
X14206634Y-14625360D02*
X14187586Y-14634884D01*
X14187586Y-14634884D02*
X14168539Y-14634884D01*
X14168539Y-14634884D02*
X14149491Y-14625360D01*
X14149491Y-14625360D02*
X14139967Y-14615836D01*
X14139967Y-14615836D02*
X14130443Y-14596788D01*
X14130443Y-14596788D02*
X14120920Y-14558693D01*
X14120920Y-14558693D02*
X14120920Y-14511074D01*
X14120920Y-14511074D02*
X14130443Y-14472979D01*
X14130443Y-14472979D02*
X14139967Y-14453931D01*
X14139967Y-14453931D02*
X14149491Y-14444408D01*
X14149491Y-14444408D02*
X14168539Y-14434884D01*
X14320920Y-14634884D02*
X14320920Y-14501550D01*
X14320920Y-14520598D02*
X14330443Y-14511074D01*
X14330443Y-14511074D02*
X14349491Y-14501550D01*
X14349491Y-14501550D02*
X14378063Y-14501550D01*
X14378063Y-14501550D02*
X14397110Y-14511074D01*
X14397110Y-14511074D02*
X14406634Y-14530122D01*
X14406634Y-14530122D02*
X14406634Y-14634884D01*
X14406634Y-14530122D02*
X14416158Y-14511074D01*
X14416158Y-14511074D02*
X14435205Y-14501550D01*
X14435205Y-14501550D02*
X14463777Y-14501550D01*
X14463777Y-14501550D02*
X14482824Y-14511074D01*
X14482824Y-14511074D02*
X14492348Y-14530122D01*
X14492348Y-14530122D02*
X14492348Y-14634884D01*
X14587586Y-14634884D02*
X14587586Y-14501550D01*
X14587586Y-14520598D02*
X14597110Y-14511074D01*
X14597110Y-14511074D02*
X14616158Y-14501550D01*
X14616158Y-14501550D02*
X14644729Y-14501550D01*
X14644729Y-14501550D02*
X14663777Y-14511074D01*
X14663777Y-14511074D02*
X14673301Y-14530122D01*
X14673301Y-14530122D02*
X14673301Y-14634884D01*
X14673301Y-14530122D02*
X14682824Y-14511074D01*
X14682824Y-14511074D02*
X14701872Y-14501550D01*
X14701872Y-14501550D02*
X14730443Y-14501550D01*
X14730443Y-14501550D02*
X14749491Y-14511074D01*
X14749491Y-14511074D02*
X14759015Y-14530122D01*
X14759015Y-14530122D02*
X14759015Y-14634884D01*
X15149491Y-14425360D02*
X14978063Y-14682503D01*
X15406634Y-14434884D02*
X15425682Y-14434884D01*
X15425682Y-14434884D02*
X15444729Y-14444408D01*
X15444729Y-14444408D02*
X15454253Y-14453931D01*
X15454253Y-14453931D02*
X15463777Y-14472979D01*
X15463777Y-14472979D02*
X15473301Y-14511074D01*
X15473301Y-14511074D02*
X15473301Y-14558693D01*
X15473301Y-14558693D02*
X15463777Y-14596788D01*
X15463777Y-14596788D02*
X15454253Y-14615836D01*
X15454253Y-14615836D02*
X15444729Y-14625360D01*
X15444729Y-14625360D02*
X15425682Y-14634884D01*
X15425682Y-14634884D02*
X15406634Y-14634884D01*
X15406634Y-14634884D02*
X15387586Y-14625360D01*
X15387586Y-14625360D02*
X15378063Y-14615836D01*
X15378063Y-14615836D02*
X15368539Y-14596788D01*
X15368539Y-14596788D02*
X15359015Y-14558693D01*
X15359015Y-14558693D02*
X15359015Y-14511074D01*
X15359015Y-14511074D02*
X15368539Y-14472979D01*
X15368539Y-14472979D02*
X15378063Y-14453931D01*
X15378063Y-14453931D02*
X15387586Y-14444408D01*
X15387586Y-14444408D02*
X15406634Y-14434884D01*
X15559015Y-14615836D02*
X15568539Y-14625360D01*
X15568539Y-14625360D02*
X15559015Y-14634884D01*
X15559015Y-14634884D02*
X15549491Y-14625360D01*
X15549491Y-14625360D02*
X15559015Y-14615836D01*
X15559015Y-14615836D02*
X15559015Y-14634884D01*
X15692348Y-14434884D02*
X15711396Y-14434884D01*
X15711396Y-14434884D02*
X15730444Y-14444408D01*
X15730444Y-14444408D02*
X15739967Y-14453931D01*
X15739967Y-14453931D02*
X15749491Y-14472979D01*
X15749491Y-14472979D02*
X15759015Y-14511074D01*
X15759015Y-14511074D02*
X15759015Y-14558693D01*
X15759015Y-14558693D02*
X15749491Y-14596788D01*
X15749491Y-14596788D02*
X15739967Y-14615836D01*
X15739967Y-14615836D02*
X15730444Y-14625360D01*
X15730444Y-14625360D02*
X15711396Y-14634884D01*
X15711396Y-14634884D02*
X15692348Y-14634884D01*
X15692348Y-14634884D02*
X15673301Y-14625360D01*
X15673301Y-14625360D02*
X15663777Y-14615836D01*
X15663777Y-14615836D02*
X15654253Y-14596788D01*
X15654253Y-14596788D02*
X15644729Y-14558693D01*
X15644729Y-14558693D02*
X15644729Y-14511074D01*
X15644729Y-14511074D02*
X15654253Y-14472979D01*
X15654253Y-14472979D02*
X15663777Y-14453931D01*
X15663777Y-14453931D02*
X15673301Y-14444408D01*
X15673301Y-14444408D02*
X15692348Y-14434884D01*
X15930444Y-14501550D02*
X15930444Y-14634884D01*
X15882825Y-14425360D02*
X15835206Y-14568217D01*
X15835206Y-14568217D02*
X15959015Y-14568217D01*
X16073301Y-14434884D02*
X16092348Y-14434884D01*
X16092348Y-14434884D02*
X16111396Y-14444408D01*
X16111396Y-14444408D02*
X16120920Y-14453931D01*
X16120920Y-14453931D02*
X16130444Y-14472979D01*
X16130444Y-14472979D02*
X16139967Y-14511074D01*
X16139967Y-14511074D02*
X16139967Y-14558693D01*
X16139967Y-14558693D02*
X16130444Y-14596788D01*
X16130444Y-14596788D02*
X16120920Y-14615836D01*
X16120920Y-14615836D02*
X16111396Y-14625360D01*
X16111396Y-14625360D02*
X16092348Y-14634884D01*
X16092348Y-14634884D02*
X16073301Y-14634884D01*
X16073301Y-14634884D02*
X16054253Y-14625360D01*
X16054253Y-14625360D02*
X16044729Y-14615836D01*
X16044729Y-14615836D02*
X16035206Y-14596788D01*
X16035206Y-14596788D02*
X16025682Y-14558693D01*
X16025682Y-14558693D02*
X16025682Y-14511074D01*
X16025682Y-14511074D02*
X16035206Y-14472979D01*
X16035206Y-14472979D02*
X16044729Y-14453931D01*
X16044729Y-14453931D02*
X16054253Y-14444408D01*
X16054253Y-14444408D02*
X16073301Y-14434884D01*
X16216158Y-14453931D02*
X16225682Y-14444408D01*
X16225682Y-14444408D02*
X16244729Y-14434884D01*
X16244729Y-14434884D02*
X16292348Y-14434884D01*
X16292348Y-14434884D02*
X16311396Y-14444408D01*
X16311396Y-14444408D02*
X16320920Y-14453931D01*
X16320920Y-14453931D02*
X16330444Y-14472979D01*
X16330444Y-14472979D02*
X16330444Y-14492027D01*
X16330444Y-14492027D02*
X16320920Y-14520598D01*
X16320920Y-14520598D02*
X16206634Y-14634884D01*
X16206634Y-14634884D02*
X16330444Y-14634884D01*
X16406634Y-14434884D02*
X16406634Y-14472979D01*
X16482825Y-14434884D02*
X16482825Y-14472979D01*
X16778063Y-14711074D02*
X16768539Y-14701550D01*
X16768539Y-14701550D02*
X16749491Y-14672979D01*
X16749491Y-14672979D02*
X16739968Y-14653931D01*
X16739968Y-14653931D02*
X16730444Y-14625360D01*
X16730444Y-14625360D02*
X16720920Y-14577741D01*
X16720920Y-14577741D02*
X16720920Y-14539646D01*
X16720920Y-14539646D02*
X16730444Y-14492027D01*
X16730444Y-14492027D02*
X16739968Y-14463455D01*
X16739968Y-14463455D02*
X16749491Y-14444408D01*
X16749491Y-14444408D02*
X16768539Y-14415836D01*
X16768539Y-14415836D02*
X16778063Y-14406312D01*
X16939968Y-14501550D02*
X16939968Y-14634884D01*
X16892349Y-14425360D02*
X16844730Y-14568217D01*
X16844730Y-14568217D02*
X16968539Y-14568217D01*
X17025682Y-14434884D02*
X17149491Y-14434884D01*
X17149491Y-14434884D02*
X17082825Y-14511074D01*
X17082825Y-14511074D02*
X17111396Y-14511074D01*
X17111396Y-14511074D02*
X17130444Y-14520598D01*
X17130444Y-14520598D02*
X17139968Y-14530122D01*
X17139968Y-14530122D02*
X17149491Y-14549169D01*
X17149491Y-14549169D02*
X17149491Y-14596788D01*
X17149491Y-14596788D02*
X17139968Y-14615836D01*
X17139968Y-14615836D02*
X17130444Y-14625360D01*
X17130444Y-14625360D02*
X17111396Y-14634884D01*
X17111396Y-14634884D02*
X17054253Y-14634884D01*
X17054253Y-14634884D02*
X17035206Y-14625360D01*
X17035206Y-14625360D02*
X17025682Y-14615836D01*
X17387587Y-14634884D02*
X17387587Y-14434884D01*
X17473301Y-14634884D02*
X17473301Y-14530122D01*
X17473301Y-14530122D02*
X17463777Y-14511074D01*
X17463777Y-14511074D02*
X17444730Y-14501550D01*
X17444730Y-14501550D02*
X17416158Y-14501550D01*
X17416158Y-14501550D02*
X17397111Y-14511074D01*
X17397111Y-14511074D02*
X17387587Y-14520598D01*
X17597111Y-14634884D02*
X17578063Y-14625360D01*
X17578063Y-14625360D02*
X17568539Y-14615836D01*
X17568539Y-14615836D02*
X17559015Y-14596788D01*
X17559015Y-14596788D02*
X17559015Y-14539646D01*
X17559015Y-14539646D02*
X17568539Y-14520598D01*
X17568539Y-14520598D02*
X17578063Y-14511074D01*
X17578063Y-14511074D02*
X17597111Y-14501550D01*
X17597111Y-14501550D02*
X17625682Y-14501550D01*
X17625682Y-14501550D02*
X17644730Y-14511074D01*
X17644730Y-14511074D02*
X17654253Y-14520598D01*
X17654253Y-14520598D02*
X17663777Y-14539646D01*
X17663777Y-14539646D02*
X17663777Y-14596788D01*
X17663777Y-14596788D02*
X17654253Y-14615836D01*
X17654253Y-14615836D02*
X17644730Y-14625360D01*
X17644730Y-14625360D02*
X17625682Y-14634884D01*
X17625682Y-14634884D02*
X17597111Y-14634884D01*
X17778063Y-14634884D02*
X17759015Y-14625360D01*
X17759015Y-14625360D02*
X17749492Y-14606312D01*
X17749492Y-14606312D02*
X17749492Y-14434884D01*
X17930444Y-14625360D02*
X17911396Y-14634884D01*
X17911396Y-14634884D02*
X17873301Y-14634884D01*
X17873301Y-14634884D02*
X17854253Y-14625360D01*
X17854253Y-14625360D02*
X17844730Y-14606312D01*
X17844730Y-14606312D02*
X17844730Y-14530122D01*
X17844730Y-14530122D02*
X17854253Y-14511074D01*
X17854253Y-14511074D02*
X17873301Y-14501550D01*
X17873301Y-14501550D02*
X17911396Y-14501550D01*
X17911396Y-14501550D02*
X17930444Y-14511074D01*
X17930444Y-14511074D02*
X17939968Y-14530122D01*
X17939968Y-14530122D02*
X17939968Y-14549169D01*
X17939968Y-14549169D02*
X17844730Y-14568217D01*
X18016158Y-14625360D02*
X18035206Y-14634884D01*
X18035206Y-14634884D02*
X18073301Y-14634884D01*
X18073301Y-14634884D02*
X18092349Y-14625360D01*
X18092349Y-14625360D02*
X18101873Y-14606312D01*
X18101873Y-14606312D02*
X18101873Y-14596788D01*
X18101873Y-14596788D02*
X18092349Y-14577741D01*
X18092349Y-14577741D02*
X18073301Y-14568217D01*
X18073301Y-14568217D02*
X18044730Y-14568217D01*
X18044730Y-14568217D02*
X18025682Y-14558693D01*
X18025682Y-14558693D02*
X18016158Y-14539646D01*
X18016158Y-14539646D02*
X18016158Y-14530122D01*
X18016158Y-14530122D02*
X18025682Y-14511074D01*
X18025682Y-14511074D02*
X18044730Y-14501550D01*
X18044730Y-14501550D02*
X18073301Y-14501550D01*
X18073301Y-14501550D02*
X18092349Y-14511074D01*
X18168539Y-14711074D02*
X18178063Y-14701550D01*
X18178063Y-14701550D02*
X18197111Y-14672979D01*
X18197111Y-14672979D02*
X18206634Y-14653931D01*
X18206634Y-14653931D02*
X18216158Y-14625360D01*
X18216158Y-14625360D02*
X18225682Y-14577741D01*
X18225682Y-14577741D02*
X18225682Y-14539646D01*
X18225682Y-14539646D02*
X18216158Y-14492027D01*
X18216158Y-14492027D02*
X18206634Y-14463455D01*
X18206634Y-14463455D02*
X18197111Y-14444408D01*
X18197111Y-14444408D02*
X18178063Y-14415836D01*
X18178063Y-14415836D02*
X18168539Y-14406312D01*
X13103000Y-14907400D02*
X13203000Y-14807400D01*
X13103000Y-14707400D01*
X13003000Y-14807400D01*
X13103000Y-14907400D01*
X13444729Y-14698884D02*
X13568539Y-14698884D01*
X13568539Y-14698884D02*
X13501872Y-14775074D01*
X13501872Y-14775074D02*
X13530443Y-14775074D01*
X13530443Y-14775074D02*
X13549491Y-14784598D01*
X13549491Y-14784598D02*
X13559015Y-14794122D01*
X13559015Y-14794122D02*
X13568539Y-14813169D01*
X13568539Y-14813169D02*
X13568539Y-14860788D01*
X13568539Y-14860788D02*
X13559015Y-14879836D01*
X13559015Y-14879836D02*
X13549491Y-14889360D01*
X13549491Y-14889360D02*
X13530443Y-14898884D01*
X13530443Y-14898884D02*
X13473301Y-14898884D01*
X13473301Y-14898884D02*
X13454253Y-14889360D01*
X13454253Y-14889360D02*
X13444729Y-14879836D01*
X13654253Y-14879836D02*
X13663777Y-14889360D01*
X13663777Y-14889360D02*
X13654253Y-14898884D01*
X13654253Y-14898884D02*
X13644729Y-14889360D01*
X13644729Y-14889360D02*
X13654253Y-14879836D01*
X13654253Y-14879836D02*
X13654253Y-14898884D01*
X13739967Y-14717931D02*
X13749491Y-14708408D01*
X13749491Y-14708408D02*
X13768539Y-14698884D01*
X13768539Y-14698884D02*
X13816158Y-14698884D01*
X13816158Y-14698884D02*
X13835205Y-14708408D01*
X13835205Y-14708408D02*
X13844729Y-14717931D01*
X13844729Y-14717931D02*
X13854253Y-14736979D01*
X13854253Y-14736979D02*
X13854253Y-14756027D01*
X13854253Y-14756027D02*
X13844729Y-14784598D01*
X13844729Y-14784598D02*
X13730443Y-14898884D01*
X13730443Y-14898884D02*
X13854253Y-14898884D01*
X13978062Y-14698884D02*
X13997110Y-14698884D01*
X13997110Y-14698884D02*
X14016158Y-14708408D01*
X14016158Y-14708408D02*
X14025682Y-14717931D01*
X14025682Y-14717931D02*
X14035205Y-14736979D01*
X14035205Y-14736979D02*
X14044729Y-14775074D01*
X14044729Y-14775074D02*
X14044729Y-14822693D01*
X14044729Y-14822693D02*
X14035205Y-14860788D01*
X14035205Y-14860788D02*
X14025682Y-14879836D01*
X14025682Y-14879836D02*
X14016158Y-14889360D01*
X14016158Y-14889360D02*
X13997110Y-14898884D01*
X13997110Y-14898884D02*
X13978062Y-14898884D01*
X13978062Y-14898884D02*
X13959015Y-14889360D01*
X13959015Y-14889360D02*
X13949491Y-14879836D01*
X13949491Y-14879836D02*
X13939967Y-14860788D01*
X13939967Y-14860788D02*
X13930443Y-14822693D01*
X13930443Y-14822693D02*
X13930443Y-14775074D01*
X13930443Y-14775074D02*
X13939967Y-14736979D01*
X13939967Y-14736979D02*
X13949491Y-14717931D01*
X13949491Y-14717931D02*
X13959015Y-14708408D01*
X13959015Y-14708408D02*
X13978062Y-14698884D01*
X14168539Y-14698884D02*
X14187586Y-14698884D01*
X14187586Y-14698884D02*
X14206634Y-14708408D01*
X14206634Y-14708408D02*
X14216158Y-14717931D01*
X14216158Y-14717931D02*
X14225682Y-14736979D01*
X14225682Y-14736979D02*
X14235205Y-14775074D01*
X14235205Y-14775074D02*
X14235205Y-14822693D01*
X14235205Y-14822693D02*
X14225682Y-14860788D01*
X14225682Y-14860788D02*
X14216158Y-14879836D01*
X14216158Y-14879836D02*
X14206634Y-14889360D01*
X14206634Y-14889360D02*
X14187586Y-14898884D01*
X14187586Y-14898884D02*
X14168539Y-14898884D01*
X14168539Y-14898884D02*
X14149491Y-14889360D01*
X14149491Y-14889360D02*
X14139967Y-14879836D01*
X14139967Y-14879836D02*
X14130443Y-14860788D01*
X14130443Y-14860788D02*
X14120920Y-14822693D01*
X14120920Y-14822693D02*
X14120920Y-14775074D01*
X14120920Y-14775074D02*
X14130443Y-14736979D01*
X14130443Y-14736979D02*
X14139967Y-14717931D01*
X14139967Y-14717931D02*
X14149491Y-14708408D01*
X14149491Y-14708408D02*
X14168539Y-14698884D01*
X14320920Y-14898884D02*
X14320920Y-14765550D01*
X14320920Y-14784598D02*
X14330443Y-14775074D01*
X14330443Y-14775074D02*
X14349491Y-14765550D01*
X14349491Y-14765550D02*
X14378063Y-14765550D01*
X14378063Y-14765550D02*
X14397110Y-14775074D01*
X14397110Y-14775074D02*
X14406634Y-14794122D01*
X14406634Y-14794122D02*
X14406634Y-14898884D01*
X14406634Y-14794122D02*
X14416158Y-14775074D01*
X14416158Y-14775074D02*
X14435205Y-14765550D01*
X14435205Y-14765550D02*
X14463777Y-14765550D01*
X14463777Y-14765550D02*
X14482824Y-14775074D01*
X14482824Y-14775074D02*
X14492348Y-14794122D01*
X14492348Y-14794122D02*
X14492348Y-14898884D01*
X14587586Y-14898884D02*
X14587586Y-14765550D01*
X14587586Y-14784598D02*
X14597110Y-14775074D01*
X14597110Y-14775074D02*
X14616158Y-14765550D01*
X14616158Y-14765550D02*
X14644729Y-14765550D01*
X14644729Y-14765550D02*
X14663777Y-14775074D01*
X14663777Y-14775074D02*
X14673301Y-14794122D01*
X14673301Y-14794122D02*
X14673301Y-14898884D01*
X14673301Y-14794122D02*
X14682824Y-14775074D01*
X14682824Y-14775074D02*
X14701872Y-14765550D01*
X14701872Y-14765550D02*
X14730443Y-14765550D01*
X14730443Y-14765550D02*
X14749491Y-14775074D01*
X14749491Y-14775074D02*
X14759015Y-14794122D01*
X14759015Y-14794122D02*
X14759015Y-14898884D01*
X15149491Y-14689360D02*
X14978063Y-14946503D01*
X15406634Y-14698884D02*
X15425682Y-14698884D01*
X15425682Y-14698884D02*
X15444729Y-14708408D01*
X15444729Y-14708408D02*
X15454253Y-14717931D01*
X15454253Y-14717931D02*
X15463777Y-14736979D01*
X15463777Y-14736979D02*
X15473301Y-14775074D01*
X15473301Y-14775074D02*
X15473301Y-14822693D01*
X15473301Y-14822693D02*
X15463777Y-14860788D01*
X15463777Y-14860788D02*
X15454253Y-14879836D01*
X15454253Y-14879836D02*
X15444729Y-14889360D01*
X15444729Y-14889360D02*
X15425682Y-14898884D01*
X15425682Y-14898884D02*
X15406634Y-14898884D01*
X15406634Y-14898884D02*
X15387586Y-14889360D01*
X15387586Y-14889360D02*
X15378063Y-14879836D01*
X15378063Y-14879836D02*
X15368539Y-14860788D01*
X15368539Y-14860788D02*
X15359015Y-14822693D01*
X15359015Y-14822693D02*
X15359015Y-14775074D01*
X15359015Y-14775074D02*
X15368539Y-14736979D01*
X15368539Y-14736979D02*
X15378063Y-14717931D01*
X15378063Y-14717931D02*
X15387586Y-14708408D01*
X15387586Y-14708408D02*
X15406634Y-14698884D01*
X15559015Y-14879836D02*
X15568539Y-14889360D01*
X15568539Y-14889360D02*
X15559015Y-14898884D01*
X15559015Y-14898884D02*
X15549491Y-14889360D01*
X15549491Y-14889360D02*
X15559015Y-14879836D01*
X15559015Y-14879836D02*
X15559015Y-14898884D01*
X15759015Y-14898884D02*
X15644729Y-14898884D01*
X15701872Y-14898884D02*
X15701872Y-14698884D01*
X15701872Y-14698884D02*
X15682825Y-14727455D01*
X15682825Y-14727455D02*
X15663777Y-14746503D01*
X15663777Y-14746503D02*
X15644729Y-14756027D01*
X15835206Y-14717931D02*
X15844729Y-14708408D01*
X15844729Y-14708408D02*
X15863777Y-14698884D01*
X15863777Y-14698884D02*
X15911396Y-14698884D01*
X15911396Y-14698884D02*
X15930444Y-14708408D01*
X15930444Y-14708408D02*
X15939967Y-14717931D01*
X15939967Y-14717931D02*
X15949491Y-14736979D01*
X15949491Y-14736979D02*
X15949491Y-14756027D01*
X15949491Y-14756027D02*
X15939967Y-14784598D01*
X15939967Y-14784598D02*
X15825682Y-14898884D01*
X15825682Y-14898884D02*
X15949491Y-14898884D01*
X16120920Y-14698884D02*
X16082825Y-14698884D01*
X16082825Y-14698884D02*
X16063777Y-14708408D01*
X16063777Y-14708408D02*
X16054253Y-14717931D01*
X16054253Y-14717931D02*
X16035206Y-14746503D01*
X16035206Y-14746503D02*
X16025682Y-14784598D01*
X16025682Y-14784598D02*
X16025682Y-14860788D01*
X16025682Y-14860788D02*
X16035206Y-14879836D01*
X16035206Y-14879836D02*
X16044729Y-14889360D01*
X16044729Y-14889360D02*
X16063777Y-14898884D01*
X16063777Y-14898884D02*
X16101872Y-14898884D01*
X16101872Y-14898884D02*
X16120920Y-14889360D01*
X16120920Y-14889360D02*
X16130444Y-14879836D01*
X16130444Y-14879836D02*
X16139967Y-14860788D01*
X16139967Y-14860788D02*
X16139967Y-14813169D01*
X16139967Y-14813169D02*
X16130444Y-14794122D01*
X16130444Y-14794122D02*
X16120920Y-14784598D01*
X16120920Y-14784598D02*
X16101872Y-14775074D01*
X16101872Y-14775074D02*
X16063777Y-14775074D01*
X16063777Y-14775074D02*
X16044729Y-14784598D01*
X16044729Y-14784598D02*
X16035206Y-14794122D01*
X16035206Y-14794122D02*
X16025682Y-14813169D01*
X16263777Y-14698884D02*
X16282825Y-14698884D01*
X16282825Y-14698884D02*
X16301872Y-14708408D01*
X16301872Y-14708408D02*
X16311396Y-14717931D01*
X16311396Y-14717931D02*
X16320920Y-14736979D01*
X16320920Y-14736979D02*
X16330444Y-14775074D01*
X16330444Y-14775074D02*
X16330444Y-14822693D01*
X16330444Y-14822693D02*
X16320920Y-14860788D01*
X16320920Y-14860788D02*
X16311396Y-14879836D01*
X16311396Y-14879836D02*
X16301872Y-14889360D01*
X16301872Y-14889360D02*
X16282825Y-14898884D01*
X16282825Y-14898884D02*
X16263777Y-14898884D01*
X16263777Y-14898884D02*
X16244729Y-14889360D01*
X16244729Y-14889360D02*
X16235206Y-14879836D01*
X16235206Y-14879836D02*
X16225682Y-14860788D01*
X16225682Y-14860788D02*
X16216158Y-14822693D01*
X16216158Y-14822693D02*
X16216158Y-14775074D01*
X16216158Y-14775074D02*
X16225682Y-14736979D01*
X16225682Y-14736979D02*
X16235206Y-14717931D01*
X16235206Y-14717931D02*
X16244729Y-14708408D01*
X16244729Y-14708408D02*
X16263777Y-14698884D01*
X16406634Y-14698884D02*
X16406634Y-14736979D01*
X16482825Y-14698884D02*
X16482825Y-14736979D01*
X16778063Y-14975074D02*
X16768539Y-14965550D01*
X16768539Y-14965550D02*
X16749491Y-14936979D01*
X16749491Y-14936979D02*
X16739968Y-14917931D01*
X16739968Y-14917931D02*
X16730444Y-14889360D01*
X16730444Y-14889360D02*
X16720920Y-14841741D01*
X16720920Y-14841741D02*
X16720920Y-14803646D01*
X16720920Y-14803646D02*
X16730444Y-14756027D01*
X16730444Y-14756027D02*
X16739968Y-14727455D01*
X16739968Y-14727455D02*
X16749491Y-14708408D01*
X16749491Y-14708408D02*
X16768539Y-14679836D01*
X16768539Y-14679836D02*
X16778063Y-14670312D01*
X16939968Y-14765550D02*
X16939968Y-14898884D01*
X16892349Y-14689360D02*
X16844730Y-14832217D01*
X16844730Y-14832217D02*
X16968539Y-14832217D01*
X17197111Y-14898884D02*
X17197111Y-14698884D01*
X17282825Y-14898884D02*
X17282825Y-14794122D01*
X17282825Y-14794122D02*
X17273301Y-14775074D01*
X17273301Y-14775074D02*
X17254253Y-14765550D01*
X17254253Y-14765550D02*
X17225682Y-14765550D01*
X17225682Y-14765550D02*
X17206634Y-14775074D01*
X17206634Y-14775074D02*
X17197111Y-14784598D01*
X17406634Y-14898884D02*
X17387587Y-14889360D01*
X17387587Y-14889360D02*
X17378063Y-14879836D01*
X17378063Y-14879836D02*
X17368539Y-14860788D01*
X17368539Y-14860788D02*
X17368539Y-14803646D01*
X17368539Y-14803646D02*
X17378063Y-14784598D01*
X17378063Y-14784598D02*
X17387587Y-14775074D01*
X17387587Y-14775074D02*
X17406634Y-14765550D01*
X17406634Y-14765550D02*
X17435206Y-14765550D01*
X17435206Y-14765550D02*
X17454253Y-14775074D01*
X17454253Y-14775074D02*
X17463777Y-14784598D01*
X17463777Y-14784598D02*
X17473301Y-14803646D01*
X17473301Y-14803646D02*
X17473301Y-14860788D01*
X17473301Y-14860788D02*
X17463777Y-14879836D01*
X17463777Y-14879836D02*
X17454253Y-14889360D01*
X17454253Y-14889360D02*
X17435206Y-14898884D01*
X17435206Y-14898884D02*
X17406634Y-14898884D01*
X17587587Y-14898884D02*
X17568539Y-14889360D01*
X17568539Y-14889360D02*
X17559015Y-14870312D01*
X17559015Y-14870312D02*
X17559015Y-14698884D01*
X17739968Y-14889360D02*
X17720920Y-14898884D01*
X17720920Y-14898884D02*
X17682825Y-14898884D01*
X17682825Y-14898884D02*
X17663777Y-14889360D01*
X17663777Y-14889360D02*
X17654253Y-14870312D01*
X17654253Y-14870312D02*
X17654253Y-14794122D01*
X17654253Y-14794122D02*
X17663777Y-14775074D01*
X17663777Y-14775074D02*
X17682825Y-14765550D01*
X17682825Y-14765550D02*
X17720920Y-14765550D01*
X17720920Y-14765550D02*
X17739968Y-14775074D01*
X17739968Y-14775074D02*
X17749492Y-14794122D01*
X17749492Y-14794122D02*
X17749492Y-14813169D01*
X17749492Y-14813169D02*
X17654253Y-14832217D01*
X17825682Y-14889360D02*
X17844730Y-14898884D01*
X17844730Y-14898884D02*
X17882825Y-14898884D01*
X17882825Y-14898884D02*
X17901873Y-14889360D01*
X17901873Y-14889360D02*
X17911396Y-14870312D01*
X17911396Y-14870312D02*
X17911396Y-14860788D01*
X17911396Y-14860788D02*
X17901873Y-14841741D01*
X17901873Y-14841741D02*
X17882825Y-14832217D01*
X17882825Y-14832217D02*
X17854253Y-14832217D01*
X17854253Y-14832217D02*
X17835206Y-14822693D01*
X17835206Y-14822693D02*
X17825682Y-14803646D01*
X17825682Y-14803646D02*
X17825682Y-14794122D01*
X17825682Y-14794122D02*
X17835206Y-14775074D01*
X17835206Y-14775074D02*
X17854253Y-14765550D01*
X17854253Y-14765550D02*
X17882825Y-14765550D01*
X17882825Y-14765550D02*
X17901873Y-14775074D01*
X17978063Y-14975074D02*
X17987587Y-14965550D01*
X17987587Y-14965550D02*
X18006634Y-14936979D01*
X18006634Y-14936979D02*
X18016158Y-14917931D01*
X18016158Y-14917931D02*
X18025682Y-14889360D01*
X18025682Y-14889360D02*
X18035206Y-14841741D01*
X18035206Y-14841741D02*
X18035206Y-14803646D01*
X18035206Y-14803646D02*
X18025682Y-14756027D01*
X18025682Y-14756027D02*
X18016158Y-14727455D01*
X18016158Y-14727455D02*
X18006634Y-14708408D01*
X18006634Y-14708408D02*
X17987587Y-14679836D01*
X17987587Y-14679836D02*
X17978063Y-14670312D01*
M02*
