%TF.GenerationSoftware,KiCad,Pcbnew,7.0.8*%
%TF.CreationDate,2023-11-16T15:54:20-08:00*%
%TF.ProjectId,wifi_pc_power_switch,77696669-5f70-4635-9f70-6f7765725f73,rev?*%
%TF.SameCoordinates,Original*%
%TF.FileFunction,Legend,Bot*%
%TF.FilePolarity,Positive*%
%FSLAX46Y46*%
G04 Gerber Fmt 4.6, Leading zero omitted, Abs format (unit mm)*
G04 Created by KiCad (PCBNEW 7.0.8) date 2023-11-16 15:54:20*
%MOMM*%
%LPD*%
G01*
G04 APERTURE LIST*
%ADD10R,1.700000X1.700000*%
%ADD11O,1.700000X1.700000*%
%ADD12C,0.800000*%
%ADD13C,6.400000*%
%ADD14O,1.800000X1.800000*%
%ADD15O,1.500000X1.500000*%
G04 APERTURE END LIST*
%LPC*%
D10*
%TO.C,J7*%
X204216000Y-100330000D03*
D11*
X201676000Y-100330000D03*
X199136000Y-100330000D03*
X196596000Y-100330000D03*
%TD*%
D10*
%TO.C,J6*%
X204216000Y-95504000D03*
D11*
X201676000Y-95504000D03*
X199136000Y-95504000D03*
X196596000Y-95504000D03*
%TD*%
D10*
%TO.C,J1*%
X145796000Y-77724000D03*
D11*
X145796000Y-80264000D03*
X145796000Y-82804000D03*
X145796000Y-85344000D03*
X145796000Y-87884000D03*
X145796000Y-90424000D03*
X145796000Y-92964000D03*
X145796000Y-95504000D03*
X145796000Y-98044000D03*
X145796000Y-100584000D03*
X145796000Y-103124000D03*
X145796000Y-105664000D03*
X145796000Y-108204000D03*
X145796000Y-110744000D03*
X145796000Y-113284000D03*
X145796000Y-115824000D03*
X145796000Y-118364000D03*
X145796000Y-120904000D03*
X145796000Y-123444000D03*
X145796000Y-125984000D03*
%TD*%
D12*
%TO.C,H2*%
X211468000Y-80264000D03*
X212170944Y-78566944D03*
X212170944Y-81961056D03*
X213868000Y-77864000D03*
D13*
X213868000Y-80264000D03*
D12*
X213868000Y-82664000D03*
X215565056Y-78566944D03*
X215565056Y-81961056D03*
X216268000Y-80264000D03*
%TD*%
D10*
%TO.C,J5*%
X204216000Y-80264000D03*
D11*
X204216000Y-82804000D03*
X204216000Y-85344000D03*
X204216000Y-87884000D03*
%TD*%
D10*
%TO.C,J3*%
X192024000Y-80264000D03*
D11*
X192024000Y-82804000D03*
X192024000Y-85344000D03*
X192024000Y-87884000D03*
%TD*%
D10*
%TO.C,J4*%
X141199000Y-111760000D03*
D11*
X141199000Y-109220000D03*
X141199000Y-106680000D03*
%TD*%
D14*
%TO.C,U1*%
X160597000Y-77854000D03*
D15*
X160897000Y-80884000D03*
X165747000Y-80884000D03*
D14*
X166047000Y-77854000D03*
D11*
X154432000Y-77724000D03*
X154432000Y-80264000D03*
D10*
X154432000Y-82804000D03*
D11*
X154432000Y-85344000D03*
X154432000Y-87884000D03*
X154432000Y-90424000D03*
X154432000Y-92964000D03*
D10*
X154432000Y-95504000D03*
D11*
X154432000Y-98044000D03*
X154432000Y-100584000D03*
X154432000Y-103124000D03*
X154432000Y-105664000D03*
D10*
X154432000Y-108204000D03*
D11*
X154432000Y-110744000D03*
X154432000Y-113284000D03*
X154432000Y-115824000D03*
X154432000Y-118364000D03*
D10*
X154432000Y-120904000D03*
D11*
X154432000Y-123444000D03*
X154432000Y-125984000D03*
X172212000Y-125984000D03*
X172212000Y-123444000D03*
D10*
X172212000Y-120904000D03*
D11*
X172212000Y-118364000D03*
X172212000Y-115824000D03*
X172212000Y-113284000D03*
X172212000Y-110744000D03*
D10*
X172212000Y-108204000D03*
D11*
X172212000Y-105664000D03*
X172212000Y-103124000D03*
X172212000Y-100584000D03*
X172212000Y-98044000D03*
D10*
X172212000Y-95504000D03*
D11*
X172212000Y-92964000D03*
X172212000Y-90424000D03*
X172212000Y-87884000D03*
X172212000Y-85344000D03*
D10*
X172212000Y-82804000D03*
D11*
X172212000Y-80264000D03*
X172212000Y-77724000D03*
X163906100Y-107454000D03*
D10*
X166446100Y-107454000D03*
D11*
X168986100Y-107454000D03*
%TD*%
D12*
%TO.C,H1*%
X134252000Y-80264000D03*
X134954944Y-78566944D03*
X134954944Y-81961056D03*
X136652000Y-77864000D03*
D13*
X136652000Y-80264000D03*
D12*
X136652000Y-82664000D03*
X138349056Y-78566944D03*
X138349056Y-81961056D03*
X139052000Y-80264000D03*
%TD*%
%TO.C,H3*%
X134252000Y-126492000D03*
X134954944Y-124794944D03*
X134954944Y-128189056D03*
X136652000Y-124092000D03*
D13*
X136652000Y-126492000D03*
D12*
X136652000Y-128892000D03*
X138349056Y-124794944D03*
X138349056Y-128189056D03*
X139052000Y-126492000D03*
%TD*%
%TO.C,H4*%
X211468000Y-126492000D03*
X212170944Y-124794944D03*
X212170944Y-128189056D03*
X213868000Y-124092000D03*
D13*
X213868000Y-126492000D03*
D12*
X213868000Y-128892000D03*
X215565056Y-124794944D03*
X215565056Y-128189056D03*
X216268000Y-126492000D03*
%TD*%
D10*
%TO.C,J2*%
X180848000Y-125984000D03*
D11*
X180848000Y-123444000D03*
X180848000Y-120904000D03*
X180848000Y-118364000D03*
X180848000Y-115824000D03*
X180848000Y-113284000D03*
X180848000Y-110744000D03*
X180848000Y-108204000D03*
X180848000Y-105664000D03*
X180848000Y-103124000D03*
X180848000Y-100584000D03*
X180848000Y-98044000D03*
X180848000Y-95504000D03*
X180848000Y-92964000D03*
X180848000Y-90424000D03*
X180848000Y-87884000D03*
X180848000Y-85344000D03*
X180848000Y-82804000D03*
X180848000Y-80264000D03*
X180848000Y-77724000D03*
%TD*%
%LPD*%
M02*
