%TF.GenerationSoftware,KiCad,Pcbnew,7.0.8*%
%TF.CreationDate,2023-11-16T15:54:20-08:00*%
%TF.ProjectId,wifi_pc_power_switch,77696669-5f70-4635-9f70-6f7765725f73,rev?*%
%TF.SameCoordinates,Original*%
%TF.FileFunction,Soldermask,Top*%
%TF.FilePolarity,Negative*%
%FSLAX46Y46*%
G04 Gerber Fmt 4.6, Leading zero omitted, Abs format (unit mm)*
G04 Created by KiCad (PCBNEW 7.0.8) date 2023-11-16 15:54:20*
%MOMM*%
%LPD*%
G01*
G04 APERTURE LIST*
G04 Aperture macros list*
%AMRoundRect*
0 Rectangle with rounded corners*
0 $1 Rounding radius*
0 $2 $3 $4 $5 $6 $7 $8 $9 X,Y pos of 4 corners*
0 Add a 4 corners polygon primitive as box body*
4,1,4,$2,$3,$4,$5,$6,$7,$8,$9,$2,$3,0*
0 Add four circle primitives for the rounded corners*
1,1,$1+$1,$2,$3*
1,1,$1+$1,$4,$5*
1,1,$1+$1,$6,$7*
1,1,$1+$1,$8,$9*
0 Add four rect primitives between the rounded corners*
20,1,$1+$1,$2,$3,$4,$5,0*
20,1,$1+$1,$4,$5,$6,$7,0*
20,1,$1+$1,$6,$7,$8,$9,0*
20,1,$1+$1,$8,$9,$2,$3,0*%
G04 Aperture macros list end*
%ADD10RoundRect,0.150000X-0.587500X-0.150000X0.587500X-0.150000X0.587500X0.150000X-0.587500X0.150000X0*%
%ADD11R,1.700000X1.700000*%
%ADD12O,1.700000X1.700000*%
%ADD13RoundRect,0.237500X0.237500X-0.250000X0.237500X0.250000X-0.237500X0.250000X-0.237500X-0.250000X0*%
%ADD14C,0.800000*%
%ADD15C,6.400000*%
%ADD16R,1.200000X1.200000*%
%ADD17O,1.800000X1.800000*%
%ADD18O,1.500000X1.500000*%
%ADD19R,3.500000X1.700000*%
%ADD20R,1.200000X0.800000*%
G04 APERTURE END LIST*
D10*
%TO.C,Q1*%
X188038500Y-104714000D03*
X188038500Y-106614000D03*
X189913500Y-105664000D03*
%TD*%
D11*
%TO.C,J7*%
X204216000Y-100330000D03*
D12*
X201676000Y-100330000D03*
X199136000Y-100330000D03*
X196596000Y-100330000D03*
%TD*%
D11*
%TO.C,J6*%
X204216000Y-95504000D03*
D12*
X201676000Y-95504000D03*
X199136000Y-95504000D03*
X196596000Y-95504000D03*
%TD*%
D11*
%TO.C,J1*%
X145796000Y-77724000D03*
D12*
X145796000Y-80264000D03*
X145796000Y-82804000D03*
X145796000Y-85344000D03*
X145796000Y-87884000D03*
X145796000Y-90424000D03*
X145796000Y-92964000D03*
X145796000Y-95504000D03*
X145796000Y-98044000D03*
X145796000Y-100584000D03*
X145796000Y-103124000D03*
X145796000Y-105664000D03*
X145796000Y-108204000D03*
X145796000Y-110744000D03*
X145796000Y-113284000D03*
X145796000Y-115824000D03*
X145796000Y-118364000D03*
X145796000Y-120904000D03*
X145796000Y-123444000D03*
X145796000Y-125984000D03*
%TD*%
D13*
%TO.C,R1*%
X184912000Y-104648000D03*
X184912000Y-102823000D03*
%TD*%
D14*
%TO.C,H2*%
X211468000Y-80264000D03*
X212170944Y-78566944D03*
X212170944Y-81961056D03*
X213868000Y-77864000D03*
D15*
X213868000Y-80264000D03*
D14*
X213868000Y-82664000D03*
X215565056Y-78566944D03*
X215565056Y-81961056D03*
X216268000Y-80264000D03*
%TD*%
D11*
%TO.C,J5*%
X204216000Y-80264000D03*
D12*
X204216000Y-82804000D03*
X204216000Y-85344000D03*
X204216000Y-87884000D03*
%TD*%
D16*
%TO.C,D2*%
X184652000Y-80264000D03*
X187452000Y-80264000D03*
%TD*%
D11*
%TO.C,J3*%
X192024000Y-80264000D03*
D12*
X192024000Y-82804000D03*
X192024000Y-85344000D03*
X192024000Y-87884000D03*
%TD*%
D11*
%TO.C,J4*%
X141199000Y-111760000D03*
D12*
X141199000Y-109220000D03*
X141199000Y-106680000D03*
%TD*%
D13*
%TO.C,R2*%
X186944000Y-92456000D03*
X186944000Y-90631000D03*
%TD*%
D17*
%TO.C,U1*%
X160597000Y-77854000D03*
D18*
X160897000Y-80884000D03*
X165747000Y-80884000D03*
D17*
X166047000Y-77854000D03*
D12*
X154432000Y-77724000D03*
D19*
X153532000Y-77724000D03*
D12*
X154432000Y-80264000D03*
D19*
X153532000Y-80264000D03*
D11*
X154432000Y-82804000D03*
D19*
X153532000Y-82804000D03*
D12*
X154432000Y-85344000D03*
D19*
X153532000Y-85344000D03*
D12*
X154432000Y-87884000D03*
D19*
X153532000Y-87884000D03*
D12*
X154432000Y-90424000D03*
D19*
X153532000Y-90424000D03*
D12*
X154432000Y-92964000D03*
D19*
X153532000Y-92964000D03*
D11*
X154432000Y-95504000D03*
D19*
X153532000Y-95504000D03*
D12*
X154432000Y-98044000D03*
D19*
X153532000Y-98044000D03*
D12*
X154432000Y-100584000D03*
D19*
X153532000Y-100584000D03*
D12*
X154432000Y-103124000D03*
D19*
X153532000Y-103124000D03*
D12*
X154432000Y-105664000D03*
D19*
X153532000Y-105664000D03*
D11*
X154432000Y-108204000D03*
D19*
X153532000Y-108204000D03*
D12*
X154432000Y-110744000D03*
D19*
X153532000Y-110744000D03*
D12*
X154432000Y-113284000D03*
D19*
X153532000Y-113284000D03*
D12*
X154432000Y-115824000D03*
D19*
X153532000Y-115824000D03*
D12*
X154432000Y-118364000D03*
D19*
X153532000Y-118364000D03*
D11*
X154432000Y-120904000D03*
D19*
X153532000Y-120904000D03*
D12*
X154432000Y-123444000D03*
D19*
X153532000Y-123444000D03*
D12*
X154432000Y-125984000D03*
D19*
X153532000Y-125984000D03*
D12*
X172212000Y-125984000D03*
D19*
X173112000Y-125984000D03*
D12*
X172212000Y-123444000D03*
D19*
X173112000Y-123444000D03*
D11*
X172212000Y-120904000D03*
D19*
X173112000Y-120904000D03*
D12*
X172212000Y-118364000D03*
D19*
X173112000Y-118364000D03*
D12*
X172212000Y-115824000D03*
D19*
X173112000Y-115824000D03*
D12*
X172212000Y-113284000D03*
D19*
X173112000Y-113284000D03*
D12*
X172212000Y-110744000D03*
D19*
X173112000Y-110744000D03*
D11*
X172212000Y-108204000D03*
D19*
X173112000Y-108204000D03*
D12*
X172212000Y-105664000D03*
D19*
X173112000Y-105664000D03*
D12*
X172212000Y-103124000D03*
D19*
X173112000Y-103124000D03*
D12*
X172212000Y-100584000D03*
D19*
X173112000Y-100584000D03*
D12*
X172212000Y-98044000D03*
D19*
X173112000Y-98044000D03*
D11*
X172212000Y-95504000D03*
D19*
X173112000Y-95504000D03*
D12*
X172212000Y-92964000D03*
D19*
X173112000Y-92964000D03*
D12*
X172212000Y-90424000D03*
D19*
X173112000Y-90424000D03*
D12*
X172212000Y-87884000D03*
D19*
X173112000Y-87884000D03*
D12*
X172212000Y-85344000D03*
D19*
X173112000Y-85344000D03*
D11*
X172212000Y-82804000D03*
D19*
X173112000Y-82804000D03*
D12*
X172212000Y-80264000D03*
D19*
X173112000Y-80264000D03*
D12*
X172212000Y-77724000D03*
D19*
X173112000Y-77724000D03*
D12*
X163906100Y-107454000D03*
D11*
X166446100Y-107454000D03*
D12*
X168986100Y-107454000D03*
%TD*%
D14*
%TO.C,H1*%
X134252000Y-80264000D03*
X134954944Y-78566944D03*
X134954944Y-81961056D03*
X136652000Y-77864000D03*
D15*
X136652000Y-80264000D03*
D14*
X136652000Y-82664000D03*
X138349056Y-78566944D03*
X138349056Y-81961056D03*
X139052000Y-80264000D03*
%TD*%
%TO.C,H3*%
X134252000Y-126492000D03*
X134954944Y-124794944D03*
X134954944Y-128189056D03*
X136652000Y-124092000D03*
D15*
X136652000Y-126492000D03*
D14*
X136652000Y-128892000D03*
X138349056Y-124794944D03*
X138349056Y-128189056D03*
X139052000Y-126492000D03*
%TD*%
%TO.C,H4*%
X211468000Y-126492000D03*
X212170944Y-124794944D03*
X212170944Y-128189056D03*
X213868000Y-124092000D03*
D15*
X213868000Y-126492000D03*
D14*
X213868000Y-128892000D03*
X215565056Y-124794944D03*
X215565056Y-128189056D03*
X216268000Y-126492000D03*
%TD*%
D20*
%TO.C,U2*%
X186842000Y-96774000D03*
X186842000Y-99314000D03*
X193142000Y-99314000D03*
X193142000Y-96774000D03*
%TD*%
D11*
%TO.C,J2*%
X180848000Y-125984000D03*
D12*
X180848000Y-123444000D03*
X180848000Y-120904000D03*
X180848000Y-118364000D03*
X180848000Y-115824000D03*
X180848000Y-113284000D03*
X180848000Y-110744000D03*
X180848000Y-108204000D03*
X180848000Y-105664000D03*
X180848000Y-103124000D03*
X180848000Y-100584000D03*
X180848000Y-98044000D03*
X180848000Y-95504000D03*
X180848000Y-92964000D03*
X180848000Y-90424000D03*
X180848000Y-87884000D03*
X180848000Y-85344000D03*
X180848000Y-82804000D03*
X180848000Y-80264000D03*
X180848000Y-77724000D03*
%TD*%
M02*
