M48
; DRILL file {KiCad 7.0.8} date Thu 16 Nov 2023 03:54:06 PM PST
; FORMAT={-:-/ absolute / metric / decimal}
; #@! TF.CreationDate,2023-11-16T15:54:06-08:00
; #@! TF.GenerationSoftware,Kicad,Pcbnew,7.0.8
; #@! TF.FileFunction,Plated,1,2,PTH
FMAT,2
METRIC
; #@! TA.AperFunction,Plated,PTH,ViaDrill
T1C0.400
; #@! TA.AperFunction,Plated,PTH,ComponentDrill
T2C0.500
; #@! TA.AperFunction,Plated,PTH,ComponentDrill
T3C1.000
; #@! TA.AperFunction,Plated,PTH,ComponentDrill
T4C1.020
; #@! TA.AperFunction,Plated,PTH,ComponentDrill
T5C3.200
%
G90
G05
T1
X187.96Y-108.204
T2
X134.252Y-80.264
X134.252Y-126.492
X134.955Y-78.567
X134.955Y-81.961
X134.955Y-124.795
X134.955Y-128.189
X136.652Y-77.864
X136.652Y-82.664
X136.652Y-124.092
X136.652Y-128.892
X138.349Y-78.567
X138.349Y-81.961
X138.349Y-124.795
X138.349Y-128.189
X139.052Y-80.264
X139.052Y-126.492
X211.468Y-80.264
X211.468Y-126.492
X212.171Y-78.567
X212.171Y-81.961
X212.171Y-124.795
X212.171Y-128.189
X213.868Y-77.864
X213.868Y-82.664
X213.868Y-124.092
X213.868Y-128.892
X215.565Y-78.567
X215.565Y-81.961
X215.565Y-124.795
X215.565Y-128.189
X216.268Y-80.264
X216.268Y-126.492
T3
X141.199Y-106.68
X141.199Y-109.22
X141.199Y-111.76
X145.796Y-77.724
X145.796Y-80.264
X145.796Y-82.804
X145.796Y-85.344
X145.796Y-87.884
X145.796Y-90.424
X145.796Y-92.964
X145.796Y-95.504
X145.796Y-98.044
X145.796Y-100.584
X145.796Y-103.124
X145.796Y-105.664
X145.796Y-108.204
X145.796Y-110.744
X145.796Y-113.284
X145.796Y-115.824
X145.796Y-118.364
X145.796Y-120.904
X145.796Y-123.444
X145.796Y-125.984
X180.848Y-77.724
X180.848Y-80.264
X180.848Y-82.804
X180.848Y-85.344
X180.848Y-87.884
X180.848Y-90.424
X180.848Y-92.964
X180.848Y-95.504
X180.848Y-98.044
X180.848Y-100.584
X180.848Y-103.124
X180.848Y-105.664
X180.848Y-108.204
X180.848Y-110.744
X180.848Y-113.284
X180.848Y-115.824
X180.848Y-118.364
X180.848Y-120.904
X180.848Y-123.444
X180.848Y-125.984
X192.024Y-80.264
X192.024Y-82.804
X192.024Y-85.344
X192.024Y-87.884
X196.596Y-95.504
X196.596Y-100.33
X199.136Y-95.504
X199.136Y-100.33
X201.676Y-95.504
X201.676Y-100.33
X204.216Y-80.264
X204.216Y-82.804
X204.216Y-85.344
X204.216Y-87.884
X204.216Y-95.504
X204.216Y-100.33
T4
X154.432Y-77.724
X154.432Y-80.264
X154.432Y-82.804
X154.432Y-85.344
X154.432Y-87.884
X154.432Y-90.424
X154.432Y-92.964
X154.432Y-95.504
X154.432Y-98.044
X154.432Y-100.584
X154.432Y-103.124
X154.432Y-105.664
X154.432Y-108.204
X154.432Y-110.744
X154.432Y-113.284
X154.432Y-115.824
X154.432Y-118.364
X154.432Y-120.904
X154.432Y-123.444
X154.432Y-125.984
X163.906Y-107.454
X166.446Y-107.454
X168.986Y-107.454
X172.212Y-77.724
X172.212Y-80.264
X172.212Y-82.804
X172.212Y-85.344
X172.212Y-87.884
X172.212Y-90.424
X172.212Y-92.964
X172.212Y-95.504
X172.212Y-98.044
X172.212Y-100.584
X172.212Y-103.124
X172.212Y-105.664
X172.212Y-108.204
X172.212Y-110.744
X172.212Y-113.284
X172.212Y-115.824
X172.212Y-118.364
X172.212Y-120.904
X172.212Y-123.444
X172.212Y-125.984
T5
X136.652Y-80.264
X136.652Y-126.492
X213.868Y-80.264
X213.868Y-126.492
T0
M30
