%TF.GenerationSoftware,KiCad,Pcbnew,7.0.8*%
%TF.CreationDate,2023-11-16T15:54:05-08:00*%
%TF.ProjectId,wifi_pc_power_switch,77696669-5f70-4635-9f70-6f7765725f73,rev?*%
%TF.SameCoordinates,Original*%
%TF.FileFunction,Drillmap*%
%TF.FilePolarity,Positive*%
%FSLAX45Y45*%
G04 Gerber Fmt 4.5, Leading zero omitted, Abs format (unit mm)*
G04 Created by KiCad (PCBNEW 7.0.8) date 2023-11-16 15:54:05*
%MOMM*%
%LPD*%
G01*
G04 APERTURE LIST*
%ADD10C,0.100000*%
%ADD11C,0.200000*%
%ADD12C,0.150000*%
%ADD13C,0.180000*%
G04 APERTURE END LIST*
D10*
X13208000Y-7518400D02*
X21844000Y-7518400D01*
X21844000Y-13106400D01*
X13208000Y-13106400D01*
X13208000Y-7518400D01*
D11*
D12*
X16014700Y-8013400D02*
X16164700Y-8163400D01*
X16164700Y-8013400D02*
X16014700Y-8163400D01*
X16499700Y-8013400D02*
X16649700Y-8163400D01*
X16649700Y-8013400D02*
X16499700Y-8163400D01*
D13*
X16149700Y-7785400D02*
G75*
G03*
X16149700Y-7785400I-90000J0D01*
G01*
X16694700Y-7785400D02*
G75*
G03*
X16694700Y-7785400I-90000J0D01*
G01*
D11*
X13463777Y-13422884D02*
X13463777Y-13222884D01*
X13463777Y-13222884D02*
X13511396Y-13222884D01*
X13511396Y-13222884D02*
X13539967Y-13232408D01*
X13539967Y-13232408D02*
X13559015Y-13251455D01*
X13559015Y-13251455D02*
X13568539Y-13270503D01*
X13568539Y-13270503D02*
X13578062Y-13308598D01*
X13578062Y-13308598D02*
X13578062Y-13337169D01*
X13578062Y-13337169D02*
X13568539Y-13375265D01*
X13568539Y-13375265D02*
X13559015Y-13394312D01*
X13559015Y-13394312D02*
X13539967Y-13413360D01*
X13539967Y-13413360D02*
X13511396Y-13422884D01*
X13511396Y-13422884D02*
X13463777Y-13422884D01*
X13663777Y-13422884D02*
X13663777Y-13289550D01*
X13663777Y-13327646D02*
X13673301Y-13308598D01*
X13673301Y-13308598D02*
X13682824Y-13299074D01*
X13682824Y-13299074D02*
X13701872Y-13289550D01*
X13701872Y-13289550D02*
X13720920Y-13289550D01*
X13787586Y-13422884D02*
X13787586Y-13289550D01*
X13787586Y-13222884D02*
X13778062Y-13232408D01*
X13778062Y-13232408D02*
X13787586Y-13241931D01*
X13787586Y-13241931D02*
X13797110Y-13232408D01*
X13797110Y-13232408D02*
X13787586Y-13222884D01*
X13787586Y-13222884D02*
X13787586Y-13241931D01*
X13911396Y-13422884D02*
X13892348Y-13413360D01*
X13892348Y-13413360D02*
X13882824Y-13394312D01*
X13882824Y-13394312D02*
X13882824Y-13222884D01*
X14016158Y-13422884D02*
X13997110Y-13413360D01*
X13997110Y-13413360D02*
X13987586Y-13394312D01*
X13987586Y-13394312D02*
X13987586Y-13222884D01*
X14244729Y-13422884D02*
X14244729Y-13222884D01*
X14244729Y-13222884D02*
X14311396Y-13365741D01*
X14311396Y-13365741D02*
X14378062Y-13222884D01*
X14378062Y-13222884D02*
X14378062Y-13422884D01*
X14559015Y-13422884D02*
X14559015Y-13318122D01*
X14559015Y-13318122D02*
X14549491Y-13299074D01*
X14549491Y-13299074D02*
X14530443Y-13289550D01*
X14530443Y-13289550D02*
X14492348Y-13289550D01*
X14492348Y-13289550D02*
X14473301Y-13299074D01*
X14559015Y-13413360D02*
X14539967Y-13422884D01*
X14539967Y-13422884D02*
X14492348Y-13422884D01*
X14492348Y-13422884D02*
X14473301Y-13413360D01*
X14473301Y-13413360D02*
X14463777Y-13394312D01*
X14463777Y-13394312D02*
X14463777Y-13375265D01*
X14463777Y-13375265D02*
X14473301Y-13356217D01*
X14473301Y-13356217D02*
X14492348Y-13346693D01*
X14492348Y-13346693D02*
X14539967Y-13346693D01*
X14539967Y-13346693D02*
X14559015Y-13337169D01*
X14654253Y-13289550D02*
X14654253Y-13489550D01*
X14654253Y-13299074D02*
X14673301Y-13289550D01*
X14673301Y-13289550D02*
X14711396Y-13289550D01*
X14711396Y-13289550D02*
X14730443Y-13299074D01*
X14730443Y-13299074D02*
X14739967Y-13308598D01*
X14739967Y-13308598D02*
X14749491Y-13327646D01*
X14749491Y-13327646D02*
X14749491Y-13384788D01*
X14749491Y-13384788D02*
X14739967Y-13403836D01*
X14739967Y-13403836D02*
X14730443Y-13413360D01*
X14730443Y-13413360D02*
X14711396Y-13422884D01*
X14711396Y-13422884D02*
X14673301Y-13422884D01*
X14673301Y-13422884D02*
X14654253Y-13413360D01*
X14835205Y-13403836D02*
X14844729Y-13413360D01*
X14844729Y-13413360D02*
X14835205Y-13422884D01*
X14835205Y-13422884D02*
X14825682Y-13413360D01*
X14825682Y-13413360D02*
X14835205Y-13403836D01*
X14835205Y-13403836D02*
X14835205Y-13422884D01*
X14835205Y-13299074D02*
X14844729Y-13308598D01*
X14844729Y-13308598D02*
X14835205Y-13318122D01*
X14835205Y-13318122D02*
X14825682Y-13308598D01*
X14825682Y-13308598D02*
X14835205Y-13299074D01*
X14835205Y-13299074D02*
X14835205Y-13318122D01*
D12*
X13053000Y-13676400D02*
X13203000Y-13826400D01*
X13203000Y-13676400D02*
X13053000Y-13826400D01*
D11*
X13568539Y-13842884D02*
X13454253Y-13842884D01*
X13511396Y-13842884D02*
X13511396Y-13642884D01*
X13511396Y-13642884D02*
X13492348Y-13671455D01*
X13492348Y-13671455D02*
X13473301Y-13690503D01*
X13473301Y-13690503D02*
X13454253Y-13700027D01*
X13654253Y-13823836D02*
X13663777Y-13833360D01*
X13663777Y-13833360D02*
X13654253Y-13842884D01*
X13654253Y-13842884D02*
X13644729Y-13833360D01*
X13644729Y-13833360D02*
X13654253Y-13823836D01*
X13654253Y-13823836D02*
X13654253Y-13842884D01*
X13844729Y-13642884D02*
X13749491Y-13642884D01*
X13749491Y-13642884D02*
X13739967Y-13738122D01*
X13739967Y-13738122D02*
X13749491Y-13728598D01*
X13749491Y-13728598D02*
X13768539Y-13719074D01*
X13768539Y-13719074D02*
X13816158Y-13719074D01*
X13816158Y-13719074D02*
X13835205Y-13728598D01*
X13835205Y-13728598D02*
X13844729Y-13738122D01*
X13844729Y-13738122D02*
X13854253Y-13757169D01*
X13854253Y-13757169D02*
X13854253Y-13804788D01*
X13854253Y-13804788D02*
X13844729Y-13823836D01*
X13844729Y-13823836D02*
X13835205Y-13833360D01*
X13835205Y-13833360D02*
X13816158Y-13842884D01*
X13816158Y-13842884D02*
X13768539Y-13842884D01*
X13768539Y-13842884D02*
X13749491Y-13833360D01*
X13749491Y-13833360D02*
X13739967Y-13823836D01*
X13978062Y-13642884D02*
X13997110Y-13642884D01*
X13997110Y-13642884D02*
X14016158Y-13652408D01*
X14016158Y-13652408D02*
X14025682Y-13661931D01*
X14025682Y-13661931D02*
X14035205Y-13680979D01*
X14035205Y-13680979D02*
X14044729Y-13719074D01*
X14044729Y-13719074D02*
X14044729Y-13766693D01*
X14044729Y-13766693D02*
X14035205Y-13804788D01*
X14035205Y-13804788D02*
X14025682Y-13823836D01*
X14025682Y-13823836D02*
X14016158Y-13833360D01*
X14016158Y-13833360D02*
X13997110Y-13842884D01*
X13997110Y-13842884D02*
X13978062Y-13842884D01*
X13978062Y-13842884D02*
X13959015Y-13833360D01*
X13959015Y-13833360D02*
X13949491Y-13823836D01*
X13949491Y-13823836D02*
X13939967Y-13804788D01*
X13939967Y-13804788D02*
X13930443Y-13766693D01*
X13930443Y-13766693D02*
X13930443Y-13719074D01*
X13930443Y-13719074D02*
X13939967Y-13680979D01*
X13939967Y-13680979D02*
X13949491Y-13661931D01*
X13949491Y-13661931D02*
X13959015Y-13652408D01*
X13959015Y-13652408D02*
X13978062Y-13642884D01*
X14168539Y-13642884D02*
X14187586Y-13642884D01*
X14187586Y-13642884D02*
X14206634Y-13652408D01*
X14206634Y-13652408D02*
X14216158Y-13661931D01*
X14216158Y-13661931D02*
X14225682Y-13680979D01*
X14225682Y-13680979D02*
X14235205Y-13719074D01*
X14235205Y-13719074D02*
X14235205Y-13766693D01*
X14235205Y-13766693D02*
X14225682Y-13804788D01*
X14225682Y-13804788D02*
X14216158Y-13823836D01*
X14216158Y-13823836D02*
X14206634Y-13833360D01*
X14206634Y-13833360D02*
X14187586Y-13842884D01*
X14187586Y-13842884D02*
X14168539Y-13842884D01*
X14168539Y-13842884D02*
X14149491Y-13833360D01*
X14149491Y-13833360D02*
X14139967Y-13823836D01*
X14139967Y-13823836D02*
X14130443Y-13804788D01*
X14130443Y-13804788D02*
X14120920Y-13766693D01*
X14120920Y-13766693D02*
X14120920Y-13719074D01*
X14120920Y-13719074D02*
X14130443Y-13680979D01*
X14130443Y-13680979D02*
X14139967Y-13661931D01*
X14139967Y-13661931D02*
X14149491Y-13652408D01*
X14149491Y-13652408D02*
X14168539Y-13642884D01*
X14320920Y-13842884D02*
X14320920Y-13709550D01*
X14320920Y-13728598D02*
X14330443Y-13719074D01*
X14330443Y-13719074D02*
X14349491Y-13709550D01*
X14349491Y-13709550D02*
X14378063Y-13709550D01*
X14378063Y-13709550D02*
X14397110Y-13719074D01*
X14397110Y-13719074D02*
X14406634Y-13738122D01*
X14406634Y-13738122D02*
X14406634Y-13842884D01*
X14406634Y-13738122D02*
X14416158Y-13719074D01*
X14416158Y-13719074D02*
X14435205Y-13709550D01*
X14435205Y-13709550D02*
X14463777Y-13709550D01*
X14463777Y-13709550D02*
X14482824Y-13719074D01*
X14482824Y-13719074D02*
X14492348Y-13738122D01*
X14492348Y-13738122D02*
X14492348Y-13842884D01*
X14587586Y-13842884D02*
X14587586Y-13709550D01*
X14587586Y-13728598D02*
X14597110Y-13719074D01*
X14597110Y-13719074D02*
X14616158Y-13709550D01*
X14616158Y-13709550D02*
X14644729Y-13709550D01*
X14644729Y-13709550D02*
X14663777Y-13719074D01*
X14663777Y-13719074D02*
X14673301Y-13738122D01*
X14673301Y-13738122D02*
X14673301Y-13842884D01*
X14673301Y-13738122D02*
X14682824Y-13719074D01*
X14682824Y-13719074D02*
X14701872Y-13709550D01*
X14701872Y-13709550D02*
X14730443Y-13709550D01*
X14730443Y-13709550D02*
X14749491Y-13719074D01*
X14749491Y-13719074D02*
X14759015Y-13738122D01*
X14759015Y-13738122D02*
X14759015Y-13842884D01*
X15149491Y-13633360D02*
X14978063Y-13890503D01*
X15406634Y-13642884D02*
X15425682Y-13642884D01*
X15425682Y-13642884D02*
X15444729Y-13652408D01*
X15444729Y-13652408D02*
X15454253Y-13661931D01*
X15454253Y-13661931D02*
X15463777Y-13680979D01*
X15463777Y-13680979D02*
X15473301Y-13719074D01*
X15473301Y-13719074D02*
X15473301Y-13766693D01*
X15473301Y-13766693D02*
X15463777Y-13804788D01*
X15463777Y-13804788D02*
X15454253Y-13823836D01*
X15454253Y-13823836D02*
X15444729Y-13833360D01*
X15444729Y-13833360D02*
X15425682Y-13842884D01*
X15425682Y-13842884D02*
X15406634Y-13842884D01*
X15406634Y-13842884D02*
X15387586Y-13833360D01*
X15387586Y-13833360D02*
X15378063Y-13823836D01*
X15378063Y-13823836D02*
X15368539Y-13804788D01*
X15368539Y-13804788D02*
X15359015Y-13766693D01*
X15359015Y-13766693D02*
X15359015Y-13719074D01*
X15359015Y-13719074D02*
X15368539Y-13680979D01*
X15368539Y-13680979D02*
X15378063Y-13661931D01*
X15378063Y-13661931D02*
X15387586Y-13652408D01*
X15387586Y-13652408D02*
X15406634Y-13642884D01*
X15559015Y-13823836D02*
X15568539Y-13833360D01*
X15568539Y-13833360D02*
X15559015Y-13842884D01*
X15559015Y-13842884D02*
X15549491Y-13833360D01*
X15549491Y-13833360D02*
X15559015Y-13823836D01*
X15559015Y-13823836D02*
X15559015Y-13842884D01*
X15692348Y-13642884D02*
X15711396Y-13642884D01*
X15711396Y-13642884D02*
X15730444Y-13652408D01*
X15730444Y-13652408D02*
X15739967Y-13661931D01*
X15739967Y-13661931D02*
X15749491Y-13680979D01*
X15749491Y-13680979D02*
X15759015Y-13719074D01*
X15759015Y-13719074D02*
X15759015Y-13766693D01*
X15759015Y-13766693D02*
X15749491Y-13804788D01*
X15749491Y-13804788D02*
X15739967Y-13823836D01*
X15739967Y-13823836D02*
X15730444Y-13833360D01*
X15730444Y-13833360D02*
X15711396Y-13842884D01*
X15711396Y-13842884D02*
X15692348Y-13842884D01*
X15692348Y-13842884D02*
X15673301Y-13833360D01*
X15673301Y-13833360D02*
X15663777Y-13823836D01*
X15663777Y-13823836D02*
X15654253Y-13804788D01*
X15654253Y-13804788D02*
X15644729Y-13766693D01*
X15644729Y-13766693D02*
X15644729Y-13719074D01*
X15644729Y-13719074D02*
X15654253Y-13680979D01*
X15654253Y-13680979D02*
X15663777Y-13661931D01*
X15663777Y-13661931D02*
X15673301Y-13652408D01*
X15673301Y-13652408D02*
X15692348Y-13642884D01*
X15939967Y-13642884D02*
X15844729Y-13642884D01*
X15844729Y-13642884D02*
X15835206Y-13738122D01*
X15835206Y-13738122D02*
X15844729Y-13728598D01*
X15844729Y-13728598D02*
X15863777Y-13719074D01*
X15863777Y-13719074D02*
X15911396Y-13719074D01*
X15911396Y-13719074D02*
X15930444Y-13728598D01*
X15930444Y-13728598D02*
X15939967Y-13738122D01*
X15939967Y-13738122D02*
X15949491Y-13757169D01*
X15949491Y-13757169D02*
X15949491Y-13804788D01*
X15949491Y-13804788D02*
X15939967Y-13823836D01*
X15939967Y-13823836D02*
X15930444Y-13833360D01*
X15930444Y-13833360D02*
X15911396Y-13842884D01*
X15911396Y-13842884D02*
X15863777Y-13842884D01*
X15863777Y-13842884D02*
X15844729Y-13833360D01*
X15844729Y-13833360D02*
X15835206Y-13823836D01*
X16044729Y-13842884D02*
X16082825Y-13842884D01*
X16082825Y-13842884D02*
X16101872Y-13833360D01*
X16101872Y-13833360D02*
X16111396Y-13823836D01*
X16111396Y-13823836D02*
X16130444Y-13795265D01*
X16130444Y-13795265D02*
X16139967Y-13757169D01*
X16139967Y-13757169D02*
X16139967Y-13680979D01*
X16139967Y-13680979D02*
X16130444Y-13661931D01*
X16130444Y-13661931D02*
X16120920Y-13652408D01*
X16120920Y-13652408D02*
X16101872Y-13642884D01*
X16101872Y-13642884D02*
X16063777Y-13642884D01*
X16063777Y-13642884D02*
X16044729Y-13652408D01*
X16044729Y-13652408D02*
X16035206Y-13661931D01*
X16035206Y-13661931D02*
X16025682Y-13680979D01*
X16025682Y-13680979D02*
X16025682Y-13728598D01*
X16025682Y-13728598D02*
X16035206Y-13747646D01*
X16035206Y-13747646D02*
X16044729Y-13757169D01*
X16044729Y-13757169D02*
X16063777Y-13766693D01*
X16063777Y-13766693D02*
X16101872Y-13766693D01*
X16101872Y-13766693D02*
X16120920Y-13757169D01*
X16120920Y-13757169D02*
X16130444Y-13747646D01*
X16130444Y-13747646D02*
X16139967Y-13728598D01*
X16330444Y-13842884D02*
X16216158Y-13842884D01*
X16273301Y-13842884D02*
X16273301Y-13642884D01*
X16273301Y-13642884D02*
X16254253Y-13671455D01*
X16254253Y-13671455D02*
X16235206Y-13690503D01*
X16235206Y-13690503D02*
X16216158Y-13700027D01*
X16406634Y-13642884D02*
X16406634Y-13680979D01*
X16482825Y-13642884D02*
X16482825Y-13680979D01*
X16778063Y-13919074D02*
X16768539Y-13909550D01*
X16768539Y-13909550D02*
X16749491Y-13880979D01*
X16749491Y-13880979D02*
X16739968Y-13861931D01*
X16739968Y-13861931D02*
X16730444Y-13833360D01*
X16730444Y-13833360D02*
X16720920Y-13785741D01*
X16720920Y-13785741D02*
X16720920Y-13747646D01*
X16720920Y-13747646D02*
X16730444Y-13700027D01*
X16730444Y-13700027D02*
X16739968Y-13671455D01*
X16739968Y-13671455D02*
X16749491Y-13652408D01*
X16749491Y-13652408D02*
X16768539Y-13623836D01*
X16768539Y-13623836D02*
X16778063Y-13614312D01*
X16844730Y-13661931D02*
X16854253Y-13652408D01*
X16854253Y-13652408D02*
X16873301Y-13642884D01*
X16873301Y-13642884D02*
X16920920Y-13642884D01*
X16920920Y-13642884D02*
X16939968Y-13652408D01*
X16939968Y-13652408D02*
X16949491Y-13661931D01*
X16949491Y-13661931D02*
X16959015Y-13680979D01*
X16959015Y-13680979D02*
X16959015Y-13700027D01*
X16959015Y-13700027D02*
X16949491Y-13728598D01*
X16949491Y-13728598D02*
X16835206Y-13842884D01*
X16835206Y-13842884D02*
X16959015Y-13842884D01*
X17197111Y-13842884D02*
X17197111Y-13642884D01*
X17282825Y-13842884D02*
X17282825Y-13738122D01*
X17282825Y-13738122D02*
X17273301Y-13719074D01*
X17273301Y-13719074D02*
X17254253Y-13709550D01*
X17254253Y-13709550D02*
X17225682Y-13709550D01*
X17225682Y-13709550D02*
X17206634Y-13719074D01*
X17206634Y-13719074D02*
X17197111Y-13728598D01*
X17406634Y-13842884D02*
X17387587Y-13833360D01*
X17387587Y-13833360D02*
X17378063Y-13823836D01*
X17378063Y-13823836D02*
X17368539Y-13804788D01*
X17368539Y-13804788D02*
X17368539Y-13747646D01*
X17368539Y-13747646D02*
X17378063Y-13728598D01*
X17378063Y-13728598D02*
X17387587Y-13719074D01*
X17387587Y-13719074D02*
X17406634Y-13709550D01*
X17406634Y-13709550D02*
X17435206Y-13709550D01*
X17435206Y-13709550D02*
X17454253Y-13719074D01*
X17454253Y-13719074D02*
X17463777Y-13728598D01*
X17463777Y-13728598D02*
X17473301Y-13747646D01*
X17473301Y-13747646D02*
X17473301Y-13804788D01*
X17473301Y-13804788D02*
X17463777Y-13823836D01*
X17463777Y-13823836D02*
X17454253Y-13833360D01*
X17454253Y-13833360D02*
X17435206Y-13842884D01*
X17435206Y-13842884D02*
X17406634Y-13842884D01*
X17587587Y-13842884D02*
X17568539Y-13833360D01*
X17568539Y-13833360D02*
X17559015Y-13814312D01*
X17559015Y-13814312D02*
X17559015Y-13642884D01*
X17739968Y-13833360D02*
X17720920Y-13842884D01*
X17720920Y-13842884D02*
X17682825Y-13842884D01*
X17682825Y-13842884D02*
X17663777Y-13833360D01*
X17663777Y-13833360D02*
X17654253Y-13814312D01*
X17654253Y-13814312D02*
X17654253Y-13738122D01*
X17654253Y-13738122D02*
X17663777Y-13719074D01*
X17663777Y-13719074D02*
X17682825Y-13709550D01*
X17682825Y-13709550D02*
X17720920Y-13709550D01*
X17720920Y-13709550D02*
X17739968Y-13719074D01*
X17739968Y-13719074D02*
X17749492Y-13738122D01*
X17749492Y-13738122D02*
X17749492Y-13757169D01*
X17749492Y-13757169D02*
X17654253Y-13776217D01*
X17825682Y-13833360D02*
X17844730Y-13842884D01*
X17844730Y-13842884D02*
X17882825Y-13842884D01*
X17882825Y-13842884D02*
X17901873Y-13833360D01*
X17901873Y-13833360D02*
X17911396Y-13814312D01*
X17911396Y-13814312D02*
X17911396Y-13804788D01*
X17911396Y-13804788D02*
X17901873Y-13785741D01*
X17901873Y-13785741D02*
X17882825Y-13776217D01*
X17882825Y-13776217D02*
X17854253Y-13776217D01*
X17854253Y-13776217D02*
X17835206Y-13766693D01*
X17835206Y-13766693D02*
X17825682Y-13747646D01*
X17825682Y-13747646D02*
X17825682Y-13738122D01*
X17825682Y-13738122D02*
X17835206Y-13719074D01*
X17835206Y-13719074D02*
X17854253Y-13709550D01*
X17854253Y-13709550D02*
X17882825Y-13709550D01*
X17882825Y-13709550D02*
X17901873Y-13719074D01*
X17978063Y-13919074D02*
X17987587Y-13909550D01*
X17987587Y-13909550D02*
X18006634Y-13880979D01*
X18006634Y-13880979D02*
X18016158Y-13861931D01*
X18016158Y-13861931D02*
X18025682Y-13833360D01*
X18025682Y-13833360D02*
X18035206Y-13785741D01*
X18035206Y-13785741D02*
X18035206Y-13747646D01*
X18035206Y-13747646D02*
X18025682Y-13700027D01*
X18025682Y-13700027D02*
X18016158Y-13671455D01*
X18016158Y-13671455D02*
X18006634Y-13652408D01*
X18006634Y-13652408D02*
X17987587Y-13623836D01*
X17987587Y-13623836D02*
X17978063Y-13614312D01*
X18339968Y-13919074D02*
X18330444Y-13909550D01*
X18330444Y-13909550D02*
X18311396Y-13880979D01*
X18311396Y-13880979D02*
X18301873Y-13861931D01*
X18301873Y-13861931D02*
X18292349Y-13833360D01*
X18292349Y-13833360D02*
X18282825Y-13785741D01*
X18282825Y-13785741D02*
X18282825Y-13747646D01*
X18282825Y-13747646D02*
X18292349Y-13700027D01*
X18292349Y-13700027D02*
X18301873Y-13671455D01*
X18301873Y-13671455D02*
X18311396Y-13652408D01*
X18311396Y-13652408D02*
X18330444Y-13623836D01*
X18330444Y-13623836D02*
X18339968Y-13614312D01*
X18416158Y-13709550D02*
X18416158Y-13842884D01*
X18416158Y-13728598D02*
X18425682Y-13719074D01*
X18425682Y-13719074D02*
X18444730Y-13709550D01*
X18444730Y-13709550D02*
X18473301Y-13709550D01*
X18473301Y-13709550D02*
X18492349Y-13719074D01*
X18492349Y-13719074D02*
X18501873Y-13738122D01*
X18501873Y-13738122D02*
X18501873Y-13842884D01*
X18625682Y-13842884D02*
X18606634Y-13833360D01*
X18606634Y-13833360D02*
X18597111Y-13823836D01*
X18597111Y-13823836D02*
X18587587Y-13804788D01*
X18587587Y-13804788D02*
X18587587Y-13747646D01*
X18587587Y-13747646D02*
X18597111Y-13728598D01*
X18597111Y-13728598D02*
X18606634Y-13719074D01*
X18606634Y-13719074D02*
X18625682Y-13709550D01*
X18625682Y-13709550D02*
X18654254Y-13709550D01*
X18654254Y-13709550D02*
X18673301Y-13719074D01*
X18673301Y-13719074D02*
X18682825Y-13728598D01*
X18682825Y-13728598D02*
X18692349Y-13747646D01*
X18692349Y-13747646D02*
X18692349Y-13804788D01*
X18692349Y-13804788D02*
X18682825Y-13823836D01*
X18682825Y-13823836D02*
X18673301Y-13833360D01*
X18673301Y-13833360D02*
X18654254Y-13842884D01*
X18654254Y-13842884D02*
X18625682Y-13842884D01*
X18749492Y-13709550D02*
X18825682Y-13709550D01*
X18778063Y-13642884D02*
X18778063Y-13814312D01*
X18778063Y-13814312D02*
X18787587Y-13833360D01*
X18787587Y-13833360D02*
X18806634Y-13842884D01*
X18806634Y-13842884D02*
X18825682Y-13842884D01*
X19044730Y-13709550D02*
X19044730Y-13909550D01*
X19044730Y-13719074D02*
X19063777Y-13709550D01*
X19063777Y-13709550D02*
X19101873Y-13709550D01*
X19101873Y-13709550D02*
X19120920Y-13719074D01*
X19120920Y-13719074D02*
X19130444Y-13728598D01*
X19130444Y-13728598D02*
X19139968Y-13747646D01*
X19139968Y-13747646D02*
X19139968Y-13804788D01*
X19139968Y-13804788D02*
X19130444Y-13823836D01*
X19130444Y-13823836D02*
X19120920Y-13833360D01*
X19120920Y-13833360D02*
X19101873Y-13842884D01*
X19101873Y-13842884D02*
X19063777Y-13842884D01*
X19063777Y-13842884D02*
X19044730Y-13833360D01*
X19254254Y-13842884D02*
X19235206Y-13833360D01*
X19235206Y-13833360D02*
X19225682Y-13814312D01*
X19225682Y-13814312D02*
X19225682Y-13642884D01*
X19416158Y-13842884D02*
X19416158Y-13738122D01*
X19416158Y-13738122D02*
X19406635Y-13719074D01*
X19406635Y-13719074D02*
X19387587Y-13709550D01*
X19387587Y-13709550D02*
X19349492Y-13709550D01*
X19349492Y-13709550D02*
X19330444Y-13719074D01*
X19416158Y-13833360D02*
X19397111Y-13842884D01*
X19397111Y-13842884D02*
X19349492Y-13842884D01*
X19349492Y-13842884D02*
X19330444Y-13833360D01*
X19330444Y-13833360D02*
X19320920Y-13814312D01*
X19320920Y-13814312D02*
X19320920Y-13795265D01*
X19320920Y-13795265D02*
X19330444Y-13776217D01*
X19330444Y-13776217D02*
X19349492Y-13766693D01*
X19349492Y-13766693D02*
X19397111Y-13766693D01*
X19397111Y-13766693D02*
X19416158Y-13757169D01*
X19482825Y-13709550D02*
X19559015Y-13709550D01*
X19511396Y-13642884D02*
X19511396Y-13814312D01*
X19511396Y-13814312D02*
X19520920Y-13833360D01*
X19520920Y-13833360D02*
X19539968Y-13842884D01*
X19539968Y-13842884D02*
X19559015Y-13842884D01*
X19701873Y-13833360D02*
X19682825Y-13842884D01*
X19682825Y-13842884D02*
X19644730Y-13842884D01*
X19644730Y-13842884D02*
X19625682Y-13833360D01*
X19625682Y-13833360D02*
X19616158Y-13814312D01*
X19616158Y-13814312D02*
X19616158Y-13738122D01*
X19616158Y-13738122D02*
X19625682Y-13719074D01*
X19625682Y-13719074D02*
X19644730Y-13709550D01*
X19644730Y-13709550D02*
X19682825Y-13709550D01*
X19682825Y-13709550D02*
X19701873Y-13719074D01*
X19701873Y-13719074D02*
X19711396Y-13738122D01*
X19711396Y-13738122D02*
X19711396Y-13757169D01*
X19711396Y-13757169D02*
X19616158Y-13776217D01*
X19882825Y-13842884D02*
X19882825Y-13642884D01*
X19882825Y-13833360D02*
X19863777Y-13842884D01*
X19863777Y-13842884D02*
X19825682Y-13842884D01*
X19825682Y-13842884D02*
X19806635Y-13833360D01*
X19806635Y-13833360D02*
X19797111Y-13823836D01*
X19797111Y-13823836D02*
X19787587Y-13804788D01*
X19787587Y-13804788D02*
X19787587Y-13747646D01*
X19787587Y-13747646D02*
X19797111Y-13728598D01*
X19797111Y-13728598D02*
X19806635Y-13719074D01*
X19806635Y-13719074D02*
X19825682Y-13709550D01*
X19825682Y-13709550D02*
X19863777Y-13709550D01*
X19863777Y-13709550D02*
X19882825Y-13719074D01*
X19959016Y-13919074D02*
X19968539Y-13909550D01*
X19968539Y-13909550D02*
X19987587Y-13880979D01*
X19987587Y-13880979D02*
X19997111Y-13861931D01*
X19997111Y-13861931D02*
X20006635Y-13833360D01*
X20006635Y-13833360D02*
X20016158Y-13785741D01*
X20016158Y-13785741D02*
X20016158Y-13747646D01*
X20016158Y-13747646D02*
X20006635Y-13700027D01*
X20006635Y-13700027D02*
X19997111Y-13671455D01*
X19997111Y-13671455D02*
X19987587Y-13652408D01*
X19987587Y-13652408D02*
X19968539Y-13623836D01*
X19968539Y-13623836D02*
X19959016Y-13614312D01*
D13*
X13203000Y-14021400D02*
G75*
G03*
X13203000Y-14021400I-90000J0D01*
G01*
D11*
X13568539Y-14112884D02*
X13454253Y-14112884D01*
X13511396Y-14112884D02*
X13511396Y-13912884D01*
X13511396Y-13912884D02*
X13492348Y-13941455D01*
X13492348Y-13941455D02*
X13473301Y-13960503D01*
X13473301Y-13960503D02*
X13454253Y-13970027D01*
X13654253Y-14093836D02*
X13663777Y-14103360D01*
X13663777Y-14103360D02*
X13654253Y-14112884D01*
X13654253Y-14112884D02*
X13644729Y-14103360D01*
X13644729Y-14103360D02*
X13654253Y-14093836D01*
X13654253Y-14093836D02*
X13654253Y-14112884D01*
X13778062Y-13998598D02*
X13759015Y-13989074D01*
X13759015Y-13989074D02*
X13749491Y-13979550D01*
X13749491Y-13979550D02*
X13739967Y-13960503D01*
X13739967Y-13960503D02*
X13739967Y-13950979D01*
X13739967Y-13950979D02*
X13749491Y-13931931D01*
X13749491Y-13931931D02*
X13759015Y-13922408D01*
X13759015Y-13922408D02*
X13778062Y-13912884D01*
X13778062Y-13912884D02*
X13816158Y-13912884D01*
X13816158Y-13912884D02*
X13835205Y-13922408D01*
X13835205Y-13922408D02*
X13844729Y-13931931D01*
X13844729Y-13931931D02*
X13854253Y-13950979D01*
X13854253Y-13950979D02*
X13854253Y-13960503D01*
X13854253Y-13960503D02*
X13844729Y-13979550D01*
X13844729Y-13979550D02*
X13835205Y-13989074D01*
X13835205Y-13989074D02*
X13816158Y-13998598D01*
X13816158Y-13998598D02*
X13778062Y-13998598D01*
X13778062Y-13998598D02*
X13759015Y-14008122D01*
X13759015Y-14008122D02*
X13749491Y-14017646D01*
X13749491Y-14017646D02*
X13739967Y-14036693D01*
X13739967Y-14036693D02*
X13739967Y-14074788D01*
X13739967Y-14074788D02*
X13749491Y-14093836D01*
X13749491Y-14093836D02*
X13759015Y-14103360D01*
X13759015Y-14103360D02*
X13778062Y-14112884D01*
X13778062Y-14112884D02*
X13816158Y-14112884D01*
X13816158Y-14112884D02*
X13835205Y-14103360D01*
X13835205Y-14103360D02*
X13844729Y-14093836D01*
X13844729Y-14093836D02*
X13854253Y-14074788D01*
X13854253Y-14074788D02*
X13854253Y-14036693D01*
X13854253Y-14036693D02*
X13844729Y-14017646D01*
X13844729Y-14017646D02*
X13835205Y-14008122D01*
X13835205Y-14008122D02*
X13816158Y-13998598D01*
X13978062Y-13912884D02*
X13997110Y-13912884D01*
X13997110Y-13912884D02*
X14016158Y-13922408D01*
X14016158Y-13922408D02*
X14025682Y-13931931D01*
X14025682Y-13931931D02*
X14035205Y-13950979D01*
X14035205Y-13950979D02*
X14044729Y-13989074D01*
X14044729Y-13989074D02*
X14044729Y-14036693D01*
X14044729Y-14036693D02*
X14035205Y-14074788D01*
X14035205Y-14074788D02*
X14025682Y-14093836D01*
X14025682Y-14093836D02*
X14016158Y-14103360D01*
X14016158Y-14103360D02*
X13997110Y-14112884D01*
X13997110Y-14112884D02*
X13978062Y-14112884D01*
X13978062Y-14112884D02*
X13959015Y-14103360D01*
X13959015Y-14103360D02*
X13949491Y-14093836D01*
X13949491Y-14093836D02*
X13939967Y-14074788D01*
X13939967Y-14074788D02*
X13930443Y-14036693D01*
X13930443Y-14036693D02*
X13930443Y-13989074D01*
X13930443Y-13989074D02*
X13939967Y-13950979D01*
X13939967Y-13950979D02*
X13949491Y-13931931D01*
X13949491Y-13931931D02*
X13959015Y-13922408D01*
X13959015Y-13922408D02*
X13978062Y-13912884D01*
X14168539Y-13912884D02*
X14187586Y-13912884D01*
X14187586Y-13912884D02*
X14206634Y-13922408D01*
X14206634Y-13922408D02*
X14216158Y-13931931D01*
X14216158Y-13931931D02*
X14225682Y-13950979D01*
X14225682Y-13950979D02*
X14235205Y-13989074D01*
X14235205Y-13989074D02*
X14235205Y-14036693D01*
X14235205Y-14036693D02*
X14225682Y-14074788D01*
X14225682Y-14074788D02*
X14216158Y-14093836D01*
X14216158Y-14093836D02*
X14206634Y-14103360D01*
X14206634Y-14103360D02*
X14187586Y-14112884D01*
X14187586Y-14112884D02*
X14168539Y-14112884D01*
X14168539Y-14112884D02*
X14149491Y-14103360D01*
X14149491Y-14103360D02*
X14139967Y-14093836D01*
X14139967Y-14093836D02*
X14130443Y-14074788D01*
X14130443Y-14074788D02*
X14120920Y-14036693D01*
X14120920Y-14036693D02*
X14120920Y-13989074D01*
X14120920Y-13989074D02*
X14130443Y-13950979D01*
X14130443Y-13950979D02*
X14139967Y-13931931D01*
X14139967Y-13931931D02*
X14149491Y-13922408D01*
X14149491Y-13922408D02*
X14168539Y-13912884D01*
X14320920Y-14112884D02*
X14320920Y-13979550D01*
X14320920Y-13998598D02*
X14330443Y-13989074D01*
X14330443Y-13989074D02*
X14349491Y-13979550D01*
X14349491Y-13979550D02*
X14378063Y-13979550D01*
X14378063Y-13979550D02*
X14397110Y-13989074D01*
X14397110Y-13989074D02*
X14406634Y-14008122D01*
X14406634Y-14008122D02*
X14406634Y-14112884D01*
X14406634Y-14008122D02*
X14416158Y-13989074D01*
X14416158Y-13989074D02*
X14435205Y-13979550D01*
X14435205Y-13979550D02*
X14463777Y-13979550D01*
X14463777Y-13979550D02*
X14482824Y-13989074D01*
X14482824Y-13989074D02*
X14492348Y-14008122D01*
X14492348Y-14008122D02*
X14492348Y-14112884D01*
X14587586Y-14112884D02*
X14587586Y-13979550D01*
X14587586Y-13998598D02*
X14597110Y-13989074D01*
X14597110Y-13989074D02*
X14616158Y-13979550D01*
X14616158Y-13979550D02*
X14644729Y-13979550D01*
X14644729Y-13979550D02*
X14663777Y-13989074D01*
X14663777Y-13989074D02*
X14673301Y-14008122D01*
X14673301Y-14008122D02*
X14673301Y-14112884D01*
X14673301Y-14008122D02*
X14682824Y-13989074D01*
X14682824Y-13989074D02*
X14701872Y-13979550D01*
X14701872Y-13979550D02*
X14730443Y-13979550D01*
X14730443Y-13979550D02*
X14749491Y-13989074D01*
X14749491Y-13989074D02*
X14759015Y-14008122D01*
X14759015Y-14008122D02*
X14759015Y-14112884D01*
X15149491Y-13903360D02*
X14978063Y-14160503D01*
X15406634Y-13912884D02*
X15425682Y-13912884D01*
X15425682Y-13912884D02*
X15444729Y-13922408D01*
X15444729Y-13922408D02*
X15454253Y-13931931D01*
X15454253Y-13931931D02*
X15463777Y-13950979D01*
X15463777Y-13950979D02*
X15473301Y-13989074D01*
X15473301Y-13989074D02*
X15473301Y-14036693D01*
X15473301Y-14036693D02*
X15463777Y-14074788D01*
X15463777Y-14074788D02*
X15454253Y-14093836D01*
X15454253Y-14093836D02*
X15444729Y-14103360D01*
X15444729Y-14103360D02*
X15425682Y-14112884D01*
X15425682Y-14112884D02*
X15406634Y-14112884D01*
X15406634Y-14112884D02*
X15387586Y-14103360D01*
X15387586Y-14103360D02*
X15378063Y-14093836D01*
X15378063Y-14093836D02*
X15368539Y-14074788D01*
X15368539Y-14074788D02*
X15359015Y-14036693D01*
X15359015Y-14036693D02*
X15359015Y-13989074D01*
X15359015Y-13989074D02*
X15368539Y-13950979D01*
X15368539Y-13950979D02*
X15378063Y-13931931D01*
X15378063Y-13931931D02*
X15387586Y-13922408D01*
X15387586Y-13922408D02*
X15406634Y-13912884D01*
X15559015Y-14093836D02*
X15568539Y-14103360D01*
X15568539Y-14103360D02*
X15559015Y-14112884D01*
X15559015Y-14112884D02*
X15549491Y-14103360D01*
X15549491Y-14103360D02*
X15559015Y-14093836D01*
X15559015Y-14093836D02*
X15559015Y-14112884D01*
X15692348Y-13912884D02*
X15711396Y-13912884D01*
X15711396Y-13912884D02*
X15730444Y-13922408D01*
X15730444Y-13922408D02*
X15739967Y-13931931D01*
X15739967Y-13931931D02*
X15749491Y-13950979D01*
X15749491Y-13950979D02*
X15759015Y-13989074D01*
X15759015Y-13989074D02*
X15759015Y-14036693D01*
X15759015Y-14036693D02*
X15749491Y-14074788D01*
X15749491Y-14074788D02*
X15739967Y-14093836D01*
X15739967Y-14093836D02*
X15730444Y-14103360D01*
X15730444Y-14103360D02*
X15711396Y-14112884D01*
X15711396Y-14112884D02*
X15692348Y-14112884D01*
X15692348Y-14112884D02*
X15673301Y-14103360D01*
X15673301Y-14103360D02*
X15663777Y-14093836D01*
X15663777Y-14093836D02*
X15654253Y-14074788D01*
X15654253Y-14074788D02*
X15644729Y-14036693D01*
X15644729Y-14036693D02*
X15644729Y-13989074D01*
X15644729Y-13989074D02*
X15654253Y-13950979D01*
X15654253Y-13950979D02*
X15663777Y-13931931D01*
X15663777Y-13931931D02*
X15673301Y-13922408D01*
X15673301Y-13922408D02*
X15692348Y-13912884D01*
X15825682Y-13912884D02*
X15959015Y-13912884D01*
X15959015Y-13912884D02*
X15873301Y-14112884D01*
X16073301Y-13912884D02*
X16092348Y-13912884D01*
X16092348Y-13912884D02*
X16111396Y-13922408D01*
X16111396Y-13922408D02*
X16120920Y-13931931D01*
X16120920Y-13931931D02*
X16130444Y-13950979D01*
X16130444Y-13950979D02*
X16139967Y-13989074D01*
X16139967Y-13989074D02*
X16139967Y-14036693D01*
X16139967Y-14036693D02*
X16130444Y-14074788D01*
X16130444Y-14074788D02*
X16120920Y-14093836D01*
X16120920Y-14093836D02*
X16111396Y-14103360D01*
X16111396Y-14103360D02*
X16092348Y-14112884D01*
X16092348Y-14112884D02*
X16073301Y-14112884D01*
X16073301Y-14112884D02*
X16054253Y-14103360D01*
X16054253Y-14103360D02*
X16044729Y-14093836D01*
X16044729Y-14093836D02*
X16035206Y-14074788D01*
X16035206Y-14074788D02*
X16025682Y-14036693D01*
X16025682Y-14036693D02*
X16025682Y-13989074D01*
X16025682Y-13989074D02*
X16035206Y-13950979D01*
X16035206Y-13950979D02*
X16044729Y-13931931D01*
X16044729Y-13931931D02*
X16054253Y-13922408D01*
X16054253Y-13922408D02*
X16073301Y-13912884D01*
X16235206Y-14112884D02*
X16273301Y-14112884D01*
X16273301Y-14112884D02*
X16292348Y-14103360D01*
X16292348Y-14103360D02*
X16301872Y-14093836D01*
X16301872Y-14093836D02*
X16320920Y-14065265D01*
X16320920Y-14065265D02*
X16330444Y-14027169D01*
X16330444Y-14027169D02*
X16330444Y-13950979D01*
X16330444Y-13950979D02*
X16320920Y-13931931D01*
X16320920Y-13931931D02*
X16311396Y-13922408D01*
X16311396Y-13922408D02*
X16292348Y-13912884D01*
X16292348Y-13912884D02*
X16254253Y-13912884D01*
X16254253Y-13912884D02*
X16235206Y-13922408D01*
X16235206Y-13922408D02*
X16225682Y-13931931D01*
X16225682Y-13931931D02*
X16216158Y-13950979D01*
X16216158Y-13950979D02*
X16216158Y-13998598D01*
X16216158Y-13998598D02*
X16225682Y-14017646D01*
X16225682Y-14017646D02*
X16235206Y-14027169D01*
X16235206Y-14027169D02*
X16254253Y-14036693D01*
X16254253Y-14036693D02*
X16292348Y-14036693D01*
X16292348Y-14036693D02*
X16311396Y-14027169D01*
X16311396Y-14027169D02*
X16320920Y-14017646D01*
X16320920Y-14017646D02*
X16330444Y-13998598D01*
X16406634Y-13912884D02*
X16406634Y-13950979D01*
X16482825Y-13912884D02*
X16482825Y-13950979D01*
X16778063Y-14189074D02*
X16768539Y-14179550D01*
X16768539Y-14179550D02*
X16749491Y-14150979D01*
X16749491Y-14150979D02*
X16739968Y-14131931D01*
X16739968Y-14131931D02*
X16730444Y-14103360D01*
X16730444Y-14103360D02*
X16720920Y-14055741D01*
X16720920Y-14055741D02*
X16720920Y-14017646D01*
X16720920Y-14017646D02*
X16730444Y-13970027D01*
X16730444Y-13970027D02*
X16739968Y-13941455D01*
X16739968Y-13941455D02*
X16749491Y-13922408D01*
X16749491Y-13922408D02*
X16768539Y-13893836D01*
X16768539Y-13893836D02*
X16778063Y-13884312D01*
X16844730Y-13931931D02*
X16854253Y-13922408D01*
X16854253Y-13922408D02*
X16873301Y-13912884D01*
X16873301Y-13912884D02*
X16920920Y-13912884D01*
X16920920Y-13912884D02*
X16939968Y-13922408D01*
X16939968Y-13922408D02*
X16949491Y-13931931D01*
X16949491Y-13931931D02*
X16959015Y-13950979D01*
X16959015Y-13950979D02*
X16959015Y-13970027D01*
X16959015Y-13970027D02*
X16949491Y-13998598D01*
X16949491Y-13998598D02*
X16835206Y-14112884D01*
X16835206Y-14112884D02*
X16959015Y-14112884D01*
X17197111Y-14112884D02*
X17197111Y-13912884D01*
X17282825Y-14112884D02*
X17282825Y-14008122D01*
X17282825Y-14008122D02*
X17273301Y-13989074D01*
X17273301Y-13989074D02*
X17254253Y-13979550D01*
X17254253Y-13979550D02*
X17225682Y-13979550D01*
X17225682Y-13979550D02*
X17206634Y-13989074D01*
X17206634Y-13989074D02*
X17197111Y-13998598D01*
X17406634Y-14112884D02*
X17387587Y-14103360D01*
X17387587Y-14103360D02*
X17378063Y-14093836D01*
X17378063Y-14093836D02*
X17368539Y-14074788D01*
X17368539Y-14074788D02*
X17368539Y-14017646D01*
X17368539Y-14017646D02*
X17378063Y-13998598D01*
X17378063Y-13998598D02*
X17387587Y-13989074D01*
X17387587Y-13989074D02*
X17406634Y-13979550D01*
X17406634Y-13979550D02*
X17435206Y-13979550D01*
X17435206Y-13979550D02*
X17454253Y-13989074D01*
X17454253Y-13989074D02*
X17463777Y-13998598D01*
X17463777Y-13998598D02*
X17473301Y-14017646D01*
X17473301Y-14017646D02*
X17473301Y-14074788D01*
X17473301Y-14074788D02*
X17463777Y-14093836D01*
X17463777Y-14093836D02*
X17454253Y-14103360D01*
X17454253Y-14103360D02*
X17435206Y-14112884D01*
X17435206Y-14112884D02*
X17406634Y-14112884D01*
X17587587Y-14112884D02*
X17568539Y-14103360D01*
X17568539Y-14103360D02*
X17559015Y-14084312D01*
X17559015Y-14084312D02*
X17559015Y-13912884D01*
X17739968Y-14103360D02*
X17720920Y-14112884D01*
X17720920Y-14112884D02*
X17682825Y-14112884D01*
X17682825Y-14112884D02*
X17663777Y-14103360D01*
X17663777Y-14103360D02*
X17654253Y-14084312D01*
X17654253Y-14084312D02*
X17654253Y-14008122D01*
X17654253Y-14008122D02*
X17663777Y-13989074D01*
X17663777Y-13989074D02*
X17682825Y-13979550D01*
X17682825Y-13979550D02*
X17720920Y-13979550D01*
X17720920Y-13979550D02*
X17739968Y-13989074D01*
X17739968Y-13989074D02*
X17749492Y-14008122D01*
X17749492Y-14008122D02*
X17749492Y-14027169D01*
X17749492Y-14027169D02*
X17654253Y-14046217D01*
X17825682Y-14103360D02*
X17844730Y-14112884D01*
X17844730Y-14112884D02*
X17882825Y-14112884D01*
X17882825Y-14112884D02*
X17901873Y-14103360D01*
X17901873Y-14103360D02*
X17911396Y-14084312D01*
X17911396Y-14084312D02*
X17911396Y-14074788D01*
X17911396Y-14074788D02*
X17901873Y-14055741D01*
X17901873Y-14055741D02*
X17882825Y-14046217D01*
X17882825Y-14046217D02*
X17854253Y-14046217D01*
X17854253Y-14046217D02*
X17835206Y-14036693D01*
X17835206Y-14036693D02*
X17825682Y-14017646D01*
X17825682Y-14017646D02*
X17825682Y-14008122D01*
X17825682Y-14008122D02*
X17835206Y-13989074D01*
X17835206Y-13989074D02*
X17854253Y-13979550D01*
X17854253Y-13979550D02*
X17882825Y-13979550D01*
X17882825Y-13979550D02*
X17901873Y-13989074D01*
X17978063Y-14189074D02*
X17987587Y-14179550D01*
X17987587Y-14179550D02*
X18006634Y-14150979D01*
X18006634Y-14150979D02*
X18016158Y-14131931D01*
X18016158Y-14131931D02*
X18025682Y-14103360D01*
X18025682Y-14103360D02*
X18035206Y-14055741D01*
X18035206Y-14055741D02*
X18035206Y-14017646D01*
X18035206Y-14017646D02*
X18025682Y-13970027D01*
X18025682Y-13970027D02*
X18016158Y-13941455D01*
X18016158Y-13941455D02*
X18006634Y-13922408D01*
X18006634Y-13922408D02*
X17987587Y-13893836D01*
X17987587Y-13893836D02*
X17978063Y-13884312D01*
X18339968Y-14189074D02*
X18330444Y-14179550D01*
X18330444Y-14179550D02*
X18311396Y-14150979D01*
X18311396Y-14150979D02*
X18301873Y-14131931D01*
X18301873Y-14131931D02*
X18292349Y-14103360D01*
X18292349Y-14103360D02*
X18282825Y-14055741D01*
X18282825Y-14055741D02*
X18282825Y-14017646D01*
X18282825Y-14017646D02*
X18292349Y-13970027D01*
X18292349Y-13970027D02*
X18301873Y-13941455D01*
X18301873Y-13941455D02*
X18311396Y-13922408D01*
X18311396Y-13922408D02*
X18330444Y-13893836D01*
X18330444Y-13893836D02*
X18339968Y-13884312D01*
X18416158Y-13979550D02*
X18416158Y-14112884D01*
X18416158Y-13998598D02*
X18425682Y-13989074D01*
X18425682Y-13989074D02*
X18444730Y-13979550D01*
X18444730Y-13979550D02*
X18473301Y-13979550D01*
X18473301Y-13979550D02*
X18492349Y-13989074D01*
X18492349Y-13989074D02*
X18501873Y-14008122D01*
X18501873Y-14008122D02*
X18501873Y-14112884D01*
X18625682Y-14112884D02*
X18606634Y-14103360D01*
X18606634Y-14103360D02*
X18597111Y-14093836D01*
X18597111Y-14093836D02*
X18587587Y-14074788D01*
X18587587Y-14074788D02*
X18587587Y-14017646D01*
X18587587Y-14017646D02*
X18597111Y-13998598D01*
X18597111Y-13998598D02*
X18606634Y-13989074D01*
X18606634Y-13989074D02*
X18625682Y-13979550D01*
X18625682Y-13979550D02*
X18654254Y-13979550D01*
X18654254Y-13979550D02*
X18673301Y-13989074D01*
X18673301Y-13989074D02*
X18682825Y-13998598D01*
X18682825Y-13998598D02*
X18692349Y-14017646D01*
X18692349Y-14017646D02*
X18692349Y-14074788D01*
X18692349Y-14074788D02*
X18682825Y-14093836D01*
X18682825Y-14093836D02*
X18673301Y-14103360D01*
X18673301Y-14103360D02*
X18654254Y-14112884D01*
X18654254Y-14112884D02*
X18625682Y-14112884D01*
X18749492Y-13979550D02*
X18825682Y-13979550D01*
X18778063Y-13912884D02*
X18778063Y-14084312D01*
X18778063Y-14084312D02*
X18787587Y-14103360D01*
X18787587Y-14103360D02*
X18806634Y-14112884D01*
X18806634Y-14112884D02*
X18825682Y-14112884D01*
X19044730Y-13979550D02*
X19044730Y-14179550D01*
X19044730Y-13989074D02*
X19063777Y-13979550D01*
X19063777Y-13979550D02*
X19101873Y-13979550D01*
X19101873Y-13979550D02*
X19120920Y-13989074D01*
X19120920Y-13989074D02*
X19130444Y-13998598D01*
X19130444Y-13998598D02*
X19139968Y-14017646D01*
X19139968Y-14017646D02*
X19139968Y-14074788D01*
X19139968Y-14074788D02*
X19130444Y-14093836D01*
X19130444Y-14093836D02*
X19120920Y-14103360D01*
X19120920Y-14103360D02*
X19101873Y-14112884D01*
X19101873Y-14112884D02*
X19063777Y-14112884D01*
X19063777Y-14112884D02*
X19044730Y-14103360D01*
X19254254Y-14112884D02*
X19235206Y-14103360D01*
X19235206Y-14103360D02*
X19225682Y-14084312D01*
X19225682Y-14084312D02*
X19225682Y-13912884D01*
X19416158Y-14112884D02*
X19416158Y-14008122D01*
X19416158Y-14008122D02*
X19406635Y-13989074D01*
X19406635Y-13989074D02*
X19387587Y-13979550D01*
X19387587Y-13979550D02*
X19349492Y-13979550D01*
X19349492Y-13979550D02*
X19330444Y-13989074D01*
X19416158Y-14103360D02*
X19397111Y-14112884D01*
X19397111Y-14112884D02*
X19349492Y-14112884D01*
X19349492Y-14112884D02*
X19330444Y-14103360D01*
X19330444Y-14103360D02*
X19320920Y-14084312D01*
X19320920Y-14084312D02*
X19320920Y-14065265D01*
X19320920Y-14065265D02*
X19330444Y-14046217D01*
X19330444Y-14046217D02*
X19349492Y-14036693D01*
X19349492Y-14036693D02*
X19397111Y-14036693D01*
X19397111Y-14036693D02*
X19416158Y-14027169D01*
X19482825Y-13979550D02*
X19559015Y-13979550D01*
X19511396Y-13912884D02*
X19511396Y-14084312D01*
X19511396Y-14084312D02*
X19520920Y-14103360D01*
X19520920Y-14103360D02*
X19539968Y-14112884D01*
X19539968Y-14112884D02*
X19559015Y-14112884D01*
X19701873Y-14103360D02*
X19682825Y-14112884D01*
X19682825Y-14112884D02*
X19644730Y-14112884D01*
X19644730Y-14112884D02*
X19625682Y-14103360D01*
X19625682Y-14103360D02*
X19616158Y-14084312D01*
X19616158Y-14084312D02*
X19616158Y-14008122D01*
X19616158Y-14008122D02*
X19625682Y-13989074D01*
X19625682Y-13989074D02*
X19644730Y-13979550D01*
X19644730Y-13979550D02*
X19682825Y-13979550D01*
X19682825Y-13979550D02*
X19701873Y-13989074D01*
X19701873Y-13989074D02*
X19711396Y-14008122D01*
X19711396Y-14008122D02*
X19711396Y-14027169D01*
X19711396Y-14027169D02*
X19616158Y-14046217D01*
X19882825Y-14112884D02*
X19882825Y-13912884D01*
X19882825Y-14103360D02*
X19863777Y-14112884D01*
X19863777Y-14112884D02*
X19825682Y-14112884D01*
X19825682Y-14112884D02*
X19806635Y-14103360D01*
X19806635Y-14103360D02*
X19797111Y-14093836D01*
X19797111Y-14093836D02*
X19787587Y-14074788D01*
X19787587Y-14074788D02*
X19787587Y-14017646D01*
X19787587Y-14017646D02*
X19797111Y-13998598D01*
X19797111Y-13998598D02*
X19806635Y-13989074D01*
X19806635Y-13989074D02*
X19825682Y-13979550D01*
X19825682Y-13979550D02*
X19863777Y-13979550D01*
X19863777Y-13979550D02*
X19882825Y-13989074D01*
X19959016Y-14189074D02*
X19968539Y-14179550D01*
X19968539Y-14179550D02*
X19987587Y-14150979D01*
X19987587Y-14150979D02*
X19997111Y-14131931D01*
X19997111Y-14131931D02*
X20006635Y-14103360D01*
X20006635Y-14103360D02*
X20016158Y-14055741D01*
X20016158Y-14055741D02*
X20016158Y-14017646D01*
X20016158Y-14017646D02*
X20006635Y-13970027D01*
X20006635Y-13970027D02*
X19997111Y-13941455D01*
X19997111Y-13941455D02*
X19987587Y-13922408D01*
X19987587Y-13922408D02*
X19968539Y-13893836D01*
X19968539Y-13893836D02*
X19959016Y-13884312D01*
M02*
