%TF.GenerationSoftware,KiCad,Pcbnew,7.0.8*%
%TF.CreationDate,2023-11-16T15:54:20-08:00*%
%TF.ProjectId,wifi_pc_power_switch,77696669-5f70-4635-9f70-6f7765725f73,rev?*%
%TF.SameCoordinates,Original*%
%TF.FileFunction,Copper,L1,Top*%
%TF.FilePolarity,Positive*%
%FSLAX46Y46*%
G04 Gerber Fmt 4.6, Leading zero omitted, Abs format (unit mm)*
G04 Created by KiCad (PCBNEW 7.0.8) date 2023-11-16 15:54:20*
%MOMM*%
%LPD*%
G01*
G04 APERTURE LIST*
G04 Aperture macros list*
%AMRoundRect*
0 Rectangle with rounded corners*
0 $1 Rounding radius*
0 $2 $3 $4 $5 $6 $7 $8 $9 X,Y pos of 4 corners*
0 Add a 4 corners polygon primitive as box body*
4,1,4,$2,$3,$4,$5,$6,$7,$8,$9,$2,$3,0*
0 Add four circle primitives for the rounded corners*
1,1,$1+$1,$2,$3*
1,1,$1+$1,$4,$5*
1,1,$1+$1,$6,$7*
1,1,$1+$1,$8,$9*
0 Add four rect primitives between the rounded corners*
20,1,$1+$1,$2,$3,$4,$5,0*
20,1,$1+$1,$4,$5,$6,$7,0*
20,1,$1+$1,$6,$7,$8,$9,0*
20,1,$1+$1,$8,$9,$2,$3,0*%
G04 Aperture macros list end*
%TA.AperFunction,SMDPad,CuDef*%
%ADD10RoundRect,0.150000X-0.587500X-0.150000X0.587500X-0.150000X0.587500X0.150000X-0.587500X0.150000X0*%
%TD*%
%TA.AperFunction,ComponentPad*%
%ADD11R,1.700000X1.700000*%
%TD*%
%TA.AperFunction,ComponentPad*%
%ADD12O,1.700000X1.700000*%
%TD*%
%TA.AperFunction,SMDPad,CuDef*%
%ADD13RoundRect,0.237500X0.237500X-0.250000X0.237500X0.250000X-0.237500X0.250000X-0.237500X-0.250000X0*%
%TD*%
%TA.AperFunction,ComponentPad*%
%ADD14C,0.800000*%
%TD*%
%TA.AperFunction,ComponentPad*%
%ADD15C,6.400000*%
%TD*%
%TA.AperFunction,SMDPad,CuDef*%
%ADD16R,1.200000X1.200000*%
%TD*%
%TA.AperFunction,SMDPad,CuDef*%
%ADD17R,3.500000X1.700000*%
%TD*%
%TA.AperFunction,SMDPad,CuDef*%
%ADD18R,1.200000X0.800000*%
%TD*%
%TA.AperFunction,ViaPad*%
%ADD19C,0.800000*%
%TD*%
%TA.AperFunction,Conductor*%
%ADD20C,0.250000*%
%TD*%
G04 APERTURE END LIST*
D10*
%TO.P,Q1,1,G*%
%TO.N,Net-(Q1-G)*%
X188038500Y-104714000D03*
%TO.P,Q1,2,S*%
%TO.N,GND*%
X188038500Y-106614000D03*
%TO.P,Q1,3,D*%
%TO.N,Net-(Q1-D)*%
X189913500Y-105664000D03*
%TD*%
D11*
%TO.P,J7,1,Pin_1*%
%TO.N,Net-(J7-Pin_1)*%
X204216000Y-100330000D03*
D12*
%TO.P,J7,2,Pin_2*%
X201676000Y-100330000D03*
%TO.P,J7,3,Pin_3*%
X199136000Y-100330000D03*
%TO.P,J7,4,Pin_4*%
X196596000Y-100330000D03*
%TD*%
D11*
%TO.P,J6,1,Pin_1*%
%TO.N,Net-(J6-Pin_1)*%
X204216000Y-95504000D03*
D12*
%TO.P,J6,2,Pin_2*%
X201676000Y-95504000D03*
%TO.P,J6,3,Pin_3*%
X199136000Y-95504000D03*
%TO.P,J6,4,Pin_4*%
X196596000Y-95504000D03*
%TD*%
D11*
%TO.P,J1,1,Pin_1*%
%TO.N,Net-(J1-Pin_1)*%
X145796000Y-77724000D03*
D12*
%TO.P,J1,2,Pin_2*%
%TO.N,Net-(J1-Pin_2)*%
X145796000Y-80264000D03*
%TO.P,J1,3,Pin_3*%
%TO.N,GND*%
X145796000Y-82804000D03*
%TO.P,J1,4,Pin_4*%
%TO.N,Net-(J1-Pin_4)*%
X145796000Y-85344000D03*
%TO.P,J1,5,Pin_5*%
%TO.N,Net-(J1-Pin_5)*%
X145796000Y-87884000D03*
%TO.P,J1,6,Pin_6*%
%TO.N,Net-(J1-Pin_6)*%
X145796000Y-90424000D03*
%TO.P,J1,7,Pin_7*%
%TO.N,Net-(J1-Pin_7)*%
X145796000Y-92964000D03*
%TO.P,J1,8,Pin_8*%
%TO.N,GND*%
X145796000Y-95504000D03*
%TO.P,J1,9,Pin_9*%
%TO.N,Net-(J1-Pin_9)*%
X145796000Y-98044000D03*
%TO.P,J1,10,Pin_10*%
%TO.N,Net-(J1-Pin_10)*%
X145796000Y-100584000D03*
%TO.P,J1,11,Pin_11*%
%TO.N,Net-(J1-Pin_11)*%
X145796000Y-103124000D03*
%TO.P,J1,12,Pin_12*%
%TO.N,Net-(J1-Pin_12)*%
X145796000Y-105664000D03*
%TO.P,J1,13,Pin_13*%
%TO.N,GND*%
X145796000Y-108204000D03*
%TO.P,J1,14,Pin_14*%
%TO.N,Net-(J1-Pin_14)*%
X145796000Y-110744000D03*
%TO.P,J1,15,Pin_15*%
%TO.N,Net-(J1-Pin_15)*%
X145796000Y-113284000D03*
%TO.P,J1,16,Pin_16*%
%TO.N,Net-(J1-Pin_16)*%
X145796000Y-115824000D03*
%TO.P,J1,17,Pin_17*%
%TO.N,Net-(J1-Pin_17)*%
X145796000Y-118364000D03*
%TO.P,J1,18,Pin_18*%
%TO.N,GND*%
X145796000Y-120904000D03*
%TO.P,J1,19,Pin_19*%
%TO.N,Net-(J1-Pin_19)*%
X145796000Y-123444000D03*
%TO.P,J1,20,Pin_20*%
%TO.N,Net-(J1-Pin_20)*%
X145796000Y-125984000D03*
%TD*%
D13*
%TO.P,R1,1*%
%TO.N,Net-(Q1-G)*%
X184912000Y-104648000D03*
%TO.P,R1,2*%
%TO.N,/EN*%
X184912000Y-102823000D03*
%TD*%
D14*
%TO.P,H2,1,1*%
%TO.N,GND*%
X211468000Y-80264000D03*
X212170944Y-78566944D03*
X212170944Y-81961056D03*
X213868000Y-77864000D03*
D15*
X213868000Y-80264000D03*
D14*
X213868000Y-82664000D03*
X215565056Y-78566944D03*
X215565056Y-81961056D03*
X216268000Y-80264000D03*
%TD*%
D11*
%TO.P,J5,1,Pin_1*%
%TO.N,GND*%
X204216000Y-80264000D03*
D12*
%TO.P,J5,2,Pin_2*%
X204216000Y-82804000D03*
%TO.P,J5,3,Pin_3*%
X204216000Y-85344000D03*
%TO.P,J5,4,Pin_4*%
X204216000Y-87884000D03*
%TD*%
D16*
%TO.P,D2,1,K*%
%TO.N,Net-(D2-K)*%
X184652000Y-80264000D03*
%TO.P,D2,2,A*%
%TO.N,Net-(D2-A)*%
X187452000Y-80264000D03*
%TD*%
D11*
%TO.P,J3,1,Pin_1*%
%TO.N,Net-(D2-A)*%
X192024000Y-80264000D03*
D12*
%TO.P,J3,2,Pin_2*%
X192024000Y-82804000D03*
%TO.P,J3,3,Pin_3*%
X192024000Y-85344000D03*
%TO.P,J3,4,Pin_4*%
X192024000Y-87884000D03*
%TD*%
D11*
%TO.P,J4,1,Pin_1*%
%TO.N,Net-(J4-Pin_1)*%
X141199000Y-111760000D03*
D12*
%TO.P,J4,2,Pin_2*%
%TO.N,Net-(J4-Pin_2)*%
X141199000Y-109220000D03*
%TO.P,J4,3,Pin_3*%
%TO.N,Net-(J4-Pin_3)*%
X141199000Y-106680000D03*
%TD*%
D13*
%TO.P,R2,1*%
%TO.N,Net-(R2-Pad1)*%
X186944000Y-92456000D03*
%TO.P,R2,2*%
%TO.N,/V_{3.3}*%
X186944000Y-90631000D03*
%TD*%
D12*
%TO.P,U1,1,GPIO0*%
%TO.N,Net-(J1-Pin_1)*%
X154432000Y-77724000D03*
D17*
X153532000Y-77724000D03*
D12*
%TO.P,U1,2,GPIO1*%
%TO.N,Net-(J1-Pin_2)*%
X154432000Y-80264000D03*
D17*
X153532000Y-80264000D03*
D11*
%TO.P,U1,3,GND*%
%TO.N,GND*%
X154432000Y-82804000D03*
D17*
X153532000Y-82804000D03*
D12*
%TO.P,U1,4,GPIO2*%
%TO.N,Net-(J1-Pin_4)*%
X154432000Y-85344000D03*
D17*
X153532000Y-85344000D03*
D12*
%TO.P,U1,5,GPIO3*%
%TO.N,Net-(J1-Pin_5)*%
X154432000Y-87884000D03*
D17*
X153532000Y-87884000D03*
D12*
%TO.P,U1,6,GPIO4*%
%TO.N,Net-(J1-Pin_6)*%
X154432000Y-90424000D03*
D17*
X153532000Y-90424000D03*
D12*
%TO.P,U1,7,GPIO5*%
%TO.N,Net-(J1-Pin_7)*%
X154432000Y-92964000D03*
D17*
X153532000Y-92964000D03*
D11*
%TO.P,U1,8,GND*%
%TO.N,GND*%
X154432000Y-95504000D03*
D17*
X153532000Y-95504000D03*
D12*
%TO.P,U1,9,GPIO6*%
%TO.N,Net-(J1-Pin_9)*%
X154432000Y-98044000D03*
D17*
X153532000Y-98044000D03*
D12*
%TO.P,U1,10,GPIO7*%
%TO.N,Net-(J1-Pin_10)*%
X154432000Y-100584000D03*
D17*
X153532000Y-100584000D03*
D12*
%TO.P,U1,11,GPIO8*%
%TO.N,Net-(J1-Pin_11)*%
X154432000Y-103124000D03*
D17*
X153532000Y-103124000D03*
D12*
%TO.P,U1,12,GPIO9*%
%TO.N,Net-(J1-Pin_12)*%
X154432000Y-105664000D03*
D17*
X153532000Y-105664000D03*
D11*
%TO.P,U1,13,GND*%
%TO.N,GND*%
X154432000Y-108204000D03*
D17*
X153532000Y-108204000D03*
D12*
%TO.P,U1,14,GPIO10*%
%TO.N,Net-(J1-Pin_14)*%
X154432000Y-110744000D03*
D17*
X153532000Y-110744000D03*
D12*
%TO.P,U1,15,GPIO11*%
%TO.N,Net-(J1-Pin_15)*%
X154432000Y-113284000D03*
D17*
X153532000Y-113284000D03*
D12*
%TO.P,U1,16,GPIO12*%
%TO.N,Net-(J1-Pin_16)*%
X154432000Y-115824000D03*
D17*
X153532000Y-115824000D03*
D12*
%TO.P,U1,17,GPIO13*%
%TO.N,Net-(J1-Pin_17)*%
X154432000Y-118364000D03*
D17*
X153532000Y-118364000D03*
D11*
%TO.P,U1,18,GND*%
%TO.N,GND*%
X154432000Y-120904000D03*
D17*
X153532000Y-120904000D03*
D12*
%TO.P,U1,19,GPIO14*%
%TO.N,Net-(J1-Pin_19)*%
X154432000Y-123444000D03*
D17*
X153532000Y-123444000D03*
D12*
%TO.P,U1,20,GPIO15*%
%TO.N,Net-(J1-Pin_20)*%
X154432000Y-125984000D03*
D17*
X153532000Y-125984000D03*
D12*
%TO.P,U1,21,GPIO16*%
%TO.N,Net-(J2-Pin_1)*%
X172212000Y-125984000D03*
D17*
X173112000Y-125984000D03*
D12*
%TO.P,U1,22,GPIO17*%
%TO.N,Net-(J2-Pin_2)*%
X172212000Y-123444000D03*
D17*
X173112000Y-123444000D03*
D11*
%TO.P,U1,23,GND*%
%TO.N,GND*%
X172212000Y-120904000D03*
D17*
X173112000Y-120904000D03*
D12*
%TO.P,U1,24,GPIO18*%
%TO.N,Net-(J2-Pin_4)*%
X172212000Y-118364000D03*
D17*
X173112000Y-118364000D03*
D12*
%TO.P,U1,25,GPIO19*%
%TO.N,Net-(J2-Pin_5)*%
X172212000Y-115824000D03*
D17*
X173112000Y-115824000D03*
D12*
%TO.P,U1,26,GPIO20*%
%TO.N,Net-(J2-Pin_6)*%
X172212000Y-113284000D03*
D17*
X173112000Y-113284000D03*
D12*
%TO.P,U1,27,GPIO21*%
%TO.N,Net-(J2-Pin_7)*%
X172212000Y-110744000D03*
D17*
X173112000Y-110744000D03*
D11*
%TO.P,U1,28,GND*%
%TO.N,GND*%
X172212000Y-108204000D03*
D17*
X173112000Y-108204000D03*
D12*
%TO.P,U1,29,GPIO22*%
%TO.N,/EN*%
X172212000Y-105664000D03*
D17*
X173112000Y-105664000D03*
D12*
%TO.P,U1,30,RUN*%
%TO.N,Net-(J2-Pin_10)*%
X172212000Y-103124000D03*
D17*
X173112000Y-103124000D03*
D12*
%TO.P,U1,31,GPIO26_ADC0*%
%TO.N,Net-(J2-Pin_11)*%
X172212000Y-100584000D03*
D17*
X173112000Y-100584000D03*
D12*
%TO.P,U1,32,GPIO27_ADC1*%
%TO.N,Net-(J2-Pin_12)*%
X172212000Y-98044000D03*
D17*
X173112000Y-98044000D03*
D11*
%TO.P,U1,33,AGND*%
%TO.N,GND*%
X172212000Y-95504000D03*
D17*
X173112000Y-95504000D03*
D12*
%TO.P,U1,34,GPIO28_ADC2*%
%TO.N,Net-(J2-Pin_14)*%
X172212000Y-92964000D03*
D17*
X173112000Y-92964000D03*
D12*
%TO.P,U1,35,ADC_VREF*%
%TO.N,Net-(J2-Pin_15)*%
X172212000Y-90424000D03*
D17*
X173112000Y-90424000D03*
D12*
%TO.P,U1,36,3V3*%
%TO.N,/V_{3.3}*%
X172212000Y-87884000D03*
D17*
X173112000Y-87884000D03*
D12*
%TO.P,U1,37,3V3_EN*%
%TO.N,Net-(J2-Pin_17)*%
X172212000Y-85344000D03*
D17*
X173112000Y-85344000D03*
D11*
%TO.P,U1,38,GND*%
%TO.N,GND*%
X172212000Y-82804000D03*
D17*
X173112000Y-82804000D03*
D12*
%TO.P,U1,39,VSYS*%
%TO.N,Net-(D2-K)*%
X172212000Y-80264000D03*
D17*
X173112000Y-80264000D03*
D12*
%TO.P,U1,40,VBUS*%
%TO.N,Net-(J2-Pin_20)*%
X172212000Y-77724000D03*
D17*
X173112000Y-77724000D03*
D12*
%TO.P,U1,41,SWCLK*%
%TO.N,Net-(J4-Pin_3)*%
X163906100Y-107454000D03*
D11*
%TO.P,U1,42,GND*%
%TO.N,Net-(J4-Pin_2)*%
X166446100Y-107454000D03*
D12*
%TO.P,U1,43,SWDIO*%
%TO.N,Net-(J4-Pin_1)*%
X168986100Y-107454000D03*
%TD*%
D14*
%TO.P,H1,1,1*%
%TO.N,GND*%
X134252000Y-80264000D03*
X134954944Y-78566944D03*
X134954944Y-81961056D03*
X136652000Y-77864000D03*
D15*
X136652000Y-80264000D03*
D14*
X136652000Y-82664000D03*
X138349056Y-78566944D03*
X138349056Y-81961056D03*
X139052000Y-80264000D03*
%TD*%
%TO.P,H3,1,1*%
%TO.N,GND*%
X134252000Y-126492000D03*
X134954944Y-124794944D03*
X134954944Y-128189056D03*
X136652000Y-124092000D03*
D15*
X136652000Y-126492000D03*
D14*
X136652000Y-128892000D03*
X138349056Y-124794944D03*
X138349056Y-128189056D03*
X139052000Y-126492000D03*
%TD*%
%TO.P,H4,1,1*%
%TO.N,GND*%
X211468000Y-126492000D03*
X212170944Y-124794944D03*
X212170944Y-128189056D03*
X213868000Y-124092000D03*
D15*
X213868000Y-126492000D03*
D14*
X213868000Y-128892000D03*
X215565056Y-124794944D03*
X215565056Y-128189056D03*
X216268000Y-126492000D03*
%TD*%
D18*
%TO.P,U2,1*%
%TO.N,Net-(R2-Pad1)*%
X186842000Y-96774000D03*
%TO.P,U2,3*%
%TO.N,Net-(Q1-D)*%
X186842000Y-99314000D03*
%TO.P,U2,4*%
%TO.N,Net-(J7-Pin_1)*%
X193142000Y-99314000D03*
%TO.P,U2,6*%
%TO.N,Net-(J6-Pin_1)*%
X193142000Y-96774000D03*
%TD*%
D11*
%TO.P,J2,1,Pin_1*%
%TO.N,Net-(J2-Pin_1)*%
X180848000Y-125984000D03*
D12*
%TO.P,J2,2,Pin_2*%
%TO.N,Net-(J2-Pin_2)*%
X180848000Y-123444000D03*
%TO.P,J2,3,Pin_3*%
%TO.N,GND*%
X180848000Y-120904000D03*
%TO.P,J2,4,Pin_4*%
%TO.N,Net-(J2-Pin_4)*%
X180848000Y-118364000D03*
%TO.P,J2,5,Pin_5*%
%TO.N,Net-(J2-Pin_5)*%
X180848000Y-115824000D03*
%TO.P,J2,6,Pin_6*%
%TO.N,Net-(J2-Pin_6)*%
X180848000Y-113284000D03*
%TO.P,J2,7,Pin_7*%
%TO.N,Net-(J2-Pin_7)*%
X180848000Y-110744000D03*
%TO.P,J2,8,Pin_8*%
%TO.N,GND*%
X180848000Y-108204000D03*
%TO.P,J2,9,Pin_9*%
%TO.N,/EN*%
X180848000Y-105664000D03*
%TO.P,J2,10,Pin_10*%
%TO.N,Net-(J2-Pin_10)*%
X180848000Y-103124000D03*
%TO.P,J2,11,Pin_11*%
%TO.N,Net-(J2-Pin_11)*%
X180848000Y-100584000D03*
%TO.P,J2,12,Pin_12*%
%TO.N,Net-(J2-Pin_12)*%
X180848000Y-98044000D03*
%TO.P,J2,13,Pin_13*%
%TO.N,GND*%
X180848000Y-95504000D03*
%TO.P,J2,14,Pin_14*%
%TO.N,Net-(J2-Pin_14)*%
X180848000Y-92964000D03*
%TO.P,J2,15,Pin_15*%
%TO.N,Net-(J2-Pin_15)*%
X180848000Y-90424000D03*
%TO.P,J2,16,Pin_16*%
%TO.N,/V_{3.3}*%
X180848000Y-87884000D03*
%TO.P,J2,17,Pin_17*%
%TO.N,Net-(J2-Pin_17)*%
X180848000Y-85344000D03*
%TO.P,J2,18,Pin_18*%
%TO.N,GND*%
X180848000Y-82804000D03*
%TO.P,J2,19,Pin_19*%
%TO.N,Net-(D2-K)*%
X180848000Y-80264000D03*
%TO.P,J2,20,Pin_20*%
%TO.N,Net-(J2-Pin_20)*%
X180848000Y-77724000D03*
%TD*%
D19*
%TO.N,GND*%
X187960000Y-108204000D03*
%TD*%
D20*
%TO.N,Net-(Q1-G)*%
X184912000Y-104648000D02*
X187972500Y-104648000D01*
%TO.N,GND*%
X188038500Y-108125500D02*
X187960000Y-108204000D01*
X188038500Y-106614000D02*
X188038500Y-108125500D01*
%TO.N,Net-(Q1-D)*%
X189913500Y-105664000D02*
X189913500Y-102385500D01*
X189913500Y-102385500D02*
X186842000Y-99314000D01*
%TO.N,Net-(R2-Pad1)*%
X186944000Y-92456000D02*
X186944000Y-96672000D01*
%TO.N,Net-(J7-Pin_1)*%
X204216000Y-100330000D02*
X195072000Y-100330000D01*
X194056000Y-99314000D02*
X195072000Y-100330000D01*
X193142000Y-99314000D02*
X194056000Y-99314000D01*
%TO.N,Net-(J6-Pin_1)*%
X193142000Y-96774000D02*
X193802000Y-96774000D01*
X204216000Y-95504000D02*
X195072000Y-95504000D01*
X193802000Y-96774000D02*
X195072000Y-95504000D01*
%TO.N,Net-(D2-K)*%
X172212000Y-80264000D02*
X184652000Y-80264000D01*
%TO.N,Net-(D2-A)*%
X192024000Y-80264000D02*
X192024000Y-87884000D01*
X187452000Y-80264000D02*
X192024000Y-80264000D01*
%TO.N,Net-(J1-Pin_1)*%
X154432000Y-77724000D02*
X145796000Y-77724000D01*
%TO.N,Net-(J1-Pin_2)*%
X154432000Y-80264000D02*
X145796000Y-80264000D01*
%TO.N,Net-(J1-Pin_4)*%
X154432000Y-85344000D02*
X145796000Y-85344000D01*
%TO.N,Net-(J1-Pin_5)*%
X154432000Y-87884000D02*
X145796000Y-87884000D01*
%TO.N,Net-(J1-Pin_6)*%
X154432000Y-90424000D02*
X145796000Y-90424000D01*
%TO.N,Net-(J1-Pin_7)*%
X154432000Y-92964000D02*
X145796000Y-92964000D01*
%TO.N,Net-(J1-Pin_9)*%
X154432000Y-98044000D02*
X145796000Y-98044000D01*
%TO.N,Net-(J1-Pin_10)*%
X154432000Y-100584000D02*
X145796000Y-100584000D01*
%TO.N,Net-(J1-Pin_11)*%
X154432000Y-103124000D02*
X145796000Y-103124000D01*
%TO.N,Net-(J1-Pin_12)*%
X154432000Y-105664000D02*
X145796000Y-105664000D01*
%TO.N,Net-(J1-Pin_14)*%
X154432000Y-110744000D02*
X145796000Y-110744000D01*
%TO.N,Net-(J1-Pin_15)*%
X154432000Y-113284000D02*
X145796000Y-113284000D01*
%TO.N,Net-(J1-Pin_16)*%
X154432000Y-115824000D02*
X145796000Y-115824000D01*
%TO.N,Net-(J1-Pin_17)*%
X154432000Y-118364000D02*
X145796000Y-118364000D01*
%TO.N,Net-(J1-Pin_19)*%
X154432000Y-123444000D02*
X145796000Y-123444000D01*
%TO.N,Net-(J1-Pin_20)*%
X154432000Y-125984000D02*
X145796000Y-125984000D01*
%TO.N,Net-(J2-Pin_1)*%
X172212000Y-125984000D02*
X180848000Y-125984000D01*
%TO.N,Net-(J2-Pin_2)*%
X180848000Y-123444000D02*
X172212000Y-123444000D01*
%TO.N,Net-(J2-Pin_4)*%
X172212000Y-118364000D02*
X180848000Y-118364000D01*
%TO.N,Net-(J2-Pin_5)*%
X180848000Y-115824000D02*
X172212000Y-115824000D01*
%TO.N,Net-(J2-Pin_6)*%
X172212000Y-113284000D02*
X180848000Y-113284000D01*
%TO.N,Net-(J2-Pin_7)*%
X180848000Y-110744000D02*
X172212000Y-110744000D01*
%TO.N,Net-(J2-Pin_10)*%
X180848000Y-103124000D02*
X172212000Y-103124000D01*
%TO.N,Net-(J2-Pin_11)*%
X172212000Y-100584000D02*
X180848000Y-100584000D01*
%TO.N,Net-(J2-Pin_12)*%
X180848000Y-98044000D02*
X172212000Y-98044000D01*
%TO.N,Net-(J2-Pin_14)*%
X172212000Y-92964000D02*
X180848000Y-92964000D01*
%TO.N,Net-(J2-Pin_15)*%
X180848000Y-90424000D02*
X172212000Y-90424000D01*
%TO.N,/V_{3.3}*%
X180848000Y-87884000D02*
X184197000Y-87884000D01*
X172212000Y-87884000D02*
X180848000Y-87884000D01*
X184197000Y-87884000D02*
X186944000Y-90631000D01*
%TO.N,Net-(J2-Pin_17)*%
X180848000Y-85344000D02*
X172212000Y-85344000D01*
%TO.N,Net-(J2-Pin_20)*%
X180848000Y-77724000D02*
X172212000Y-77724000D01*
%TO.N,Net-(J4-Pin_3)*%
X141199000Y-106680000D02*
X144113000Y-106680000D01*
X163291100Y-106839000D02*
X144272000Y-106839000D01*
X163906100Y-107454000D02*
X163291100Y-106839000D01*
X144113000Y-106680000D02*
X144272000Y-106839000D01*
%TO.N,Net-(J4-Pin_2)*%
X164331100Y-109569000D02*
X144272000Y-109569000D01*
X166446100Y-107454000D02*
X164331100Y-109569000D01*
X143923000Y-109220000D02*
X144272000Y-109569000D01*
X141199000Y-109220000D02*
X143923000Y-109220000D01*
%TO.N,Net-(J4-Pin_1)*%
X164521100Y-111919000D02*
X144272000Y-111919000D01*
X168986100Y-107454000D02*
X164521100Y-111919000D01*
X141199000Y-111760000D02*
X144113000Y-111760000D01*
X144113000Y-111760000D02*
X144272000Y-111919000D01*
%TO.N,/EN*%
X180848000Y-105664000D02*
X182071000Y-105664000D01*
X182071000Y-105664000D02*
X184912000Y-102823000D01*
X172212000Y-105664000D02*
X180848000Y-105664000D01*
%TD*%
M02*
